Sans_opsz10.ufo
<glyph name="exclam" format="2">
	<unicode hex="0021"/>
	<advance width="319"/>
	<outline>
		<contour>
			<point x="126" y="218" type="line"/>
			<point x="126" y="175" type="line"/>
			<point x="126" y="175" type="line"/>
			<point x="193" y="175" type="line"/>
			<point x="193" y="175" type="line"/>
			<point x="193" y="218" type="line"/>
			<point x="201" y="694" type="line"/>
			<point x="201" y="694" type="line"/>
			<point x="118" y="694" type="line"/>
			<point x="118" y="694" type="line"/>
		</contour>
		<contour>
			<point x="118" y="0" type="line"/>
			<point x="118" y="0" type="line"/>
			<point x="201" y="0" type="line"/>
			<point x="201" y="0" type="line"/>
			<point x="201" y="83" type="line"/>
			<point x="201" y="83" type="line"/>
			<point x="118" y="83" type="line"/>
			<point x="118" y="83" type="line"/>
		</contour>
	</outline>
</glyph>
<glyph name="numbersign" format="2">
	<unicode hex="0023"/>
	<advance width="1666"/>
	<outline>
		<contour>
			<point x="1036" y="260" type="line"/>
			<point x="1486" y="260" type="line" smooth="yes"/>
			<point x="1514" y="260"/>
			<point x="1552" y="260"/>
			<point x="1552" y="300" type="curve" smooth="yes"/>
			<point x="1552" y="340"/>
			<point x="1514" y="340"/>
			<point x="1484" y="340" type="curve" smooth="yes"/>
			<point x="1060" y="340" type="line"/>
			<point x="1144" y="660" type="line"/>
			<point x="1484" y="660" type="line" smooth="yes"/>
			<point x="1514" y="660"/>
			<point x="1552" y="660"/>
			<point x="1552" y="700" type="curve" smooth="yes"/>
			<point x="1552" y="740"/>
			<point x="1514" y="740"/>
			<point x="1486" y="740" type="curve" smooth="yes"/>
			<point x="1168" y="740" type="line"/>
			<point x="1322" y="1312" type="line"/>
			<point x="1324" y="1316"/>
			<point x="1330" y="1340"/>
			<point x="1330" y="1348" type="curve" smooth="yes"/>
			<point x="1330" y="1370"/>
			<point x="1312" y="1388"/>
			<point x="1290" y="1388" type="curve" smooth="yes"/>
			<point x="1258" y="1388"/>
			<point x="1252" y="1362"/>
			<point x="1246" y="1340" type="curve" smooth="yes"/>
			<point x="1086" y="740" type="line"/>
			<point x="710" y="740" type="line"/>
			<point x="864" y="1312" type="line"/>
			<point x="866" y="1316"/>
			<point x="872" y="1340"/>
			<point x="872" y="1348" type="curve" smooth="yes"/>
			<point x="872" y="1370"/>
			<point x="854" y="1388"/>
			<point x="832" y="1388" type="curve" smooth="yes"/>
			<point x="800" y="1388"/>
			<point x="794" y="1362"/>
			<point x="788" y="1340" type="curve" smooth="yes"/>
			<point x="628" y="740" type="line"/>
			<point x="178" y="740" type="line" smooth="yes"/>
			<point x="150" y="740"/>
			<point x="112" y="740"/>
			<point x="112" y="700" type="curve" smooth="yes"/>
			<point x="112" y="660"/>
			<point x="150" y="660"/>
			<point x="180" y="660" type="curve" smooth="yes"/>
			<point x="604" y="660" type="line"/>
			<point x="520" y="340" type="line"/>
			<point x="180" y="340" type="line" smooth="yes"/>
			<point x="150" y="340"/>
			<point x="112" y="340"/>
			<point x="112" y="300" type="curve" smooth="yes"/>
			<point x="112" y="260"/>
			<point x="150" y="260"/>
			<point x="178" y="260" type="curve" smooth="yes"/>
			<point x="496" y="260" type="line"/>
			<point x="342" y="-312" type="line"/>
			<point x="340" y="-316"/>
			<point x="334" y="-340"/>
			<point x="334" y="-348" type="curve" smooth="yes"/>
			<point x="334" y="-370"/>
			<point x="352" y="-388"/>
			<point x="374" y="-388" type="curve" smooth="yes"/>
			<point x="406" y="-388"/>
			<point x="412" y="-362"/>
			<point x="418" y="-340" type="curve" smooth="yes"/>
			<point x="578" y="260" type="line"/>
			<point x="954" y="260" type="line"/>
			<point x="800" y="-312" type="line"/>
			<point x="798" y="-316"/>
			<point x="792" y="-340"/>
			<point x="792" y="-348" type="curve" smooth="yes"/>
			<point x="792" y="-370"/>
			<point x="810" y="-388"/>
			<point x="832" y="-388" type="curve" smooth="yes"/>
			<point x="864" y="-388"/>
			<point x="870" y="-362"/>
			<point x="876" y="-340" type="curve" smooth="yes"/>
		</contour>
		<contour>
			<point x="602" y="340" type="line"/>
			<point x="686" y="660" type="line"/>
			<point x="1062" y="660" type="line"/>
			<point x="978" y="340" type="line"/>
		</contour>
	</outline>
</glyph>
<glyph name="dollar" format="2">
	<unicode hex="0024"/>
	<advance width="1000"/>
	<outline>
		<contour>
			<point x="558" y="1280" type="line"/>
			<point x="682" y="1268"/>
			<point x="762" y="1220"/>
			<point x="830" y="1166" type="curve"/>
			<point x="830" y="1166"/>
			<point x="830" y="1166"/>
			<point x="830" y="1166" type="curve"/>
			<point x="830" y="1166"/>
			<point x="830" y="1166"/>
			<point x="830" y="1166" type="curve"/>
			<point x="854" y="1298" type="line"/>
			<point x="854" y="1298"/>
			<point x="854" y="1298"/>
			<point x="854" y="1298" type="curve"/>
			<point x="732" y="1382"/>
			<point x="644" y="1402"/>
			<point x="558" y="1408" type="curve"/>
			<point x="558" y="1500" type="line"/>
			<point x="558" y="1500"/>
			<point x="558" y="1500"/>
			<point x="558" y="1500" type="curve"/>
			<point x="442" y="1500" type="line"/>
			<point x="442" y="1500"/>
			<point x="442" y="1500"/>
			<point x="442" y="1500" type="curve"/>
			<point x="442" y="1406" type="line"/>
			<point x="218" y="1366"/>
			<point x="112" y="1186"/>
			<point x="112" y="1026" type="curve" smooth="yes"/>
			<point x="112" y="938"/>
			<point x="150" y="712"/>
			<point x="442" y="644" type="curve"/>
			<point x="442" y="108" type="line"/>
			<point x="344" y="118"/>
			<point x="216" y="160"/>
			<point x="112" y="252" type="curve"/>
			<point x="112" y="252"/>
			<point x="112" y="252"/>
			<point x="112" y="252" type="curve"/>
			<point x="112" y="252"/>
			<point x="112" y="252"/>
			<point x="112" y="252" type="curve"/>
			<point x="104" y="207"/>
			<point x="96" y="161"/>
			<point x="88" y="116" type="curve"/>
			<point x="88" y="116"/>
			<point x="88" y="116"/>
			<point x="88" y="116" type="curve"/>
			<point x="138" y="80"/>
			<point x="256" y="-2"/>
			<point x="442" y="-20" type="curve"/>
			<point x="442" y="-112" type="line"/>
			<point x="442" y="-112"/>
			<point x="442" y="-112"/>
			<point x="442" y="-112" type="curve"/>
			<point x="558" y="-112" type="line"/>
			<point x="558" y="-112"/>
			<point x="558" y="-112"/>
			<point x="558" y="-112" type="curve"/>
			<point x="558" y="-16" type="line"/>
			<point x="758" y="18"/>
			<point x="886" y="198"/>
			<point x="886" y="390" type="curve" smooth="yes"/>
			<point x="886" y="556"/>
			<point x="786" y="752"/>
			<point x="558" y="798" type="curve"/>
		</contour>
		<contour>
			<point x="442" y="828" type="line"/>
			<point x="306" y="862"/>
			<point x="258" y="970"/>
			<point x="258" y="1052" type="curve" smooth="yes"/>
			<point x="258" y="1152"/>
			<point x="326" y="1248"/>
			<point x="442" y="1276" type="curve"/>
		</contour>
		<contour>
			<point x="558" y="616" type="line"/>
			<point x="666" y="586"/>
			<point x="740" y="482"/>
			<point x="740" y="364" type="curve" smooth="yes"/>
			<point x="740" y="262"/>
			<point x="682" y="150"/>
			<point x="558" y="114" type="curve"/>
		</contour>
	</outline>
</glyph>
<glyph name="percent" format="2">
	<unicode hex="0025"/>
	<advance width="1666"/>
	<outline>
		<contour>
			<point x="392" y="-112" type="curve" smooth="yes"/>
			<point x="414" y="-112"/>
			<point x="424" y="-98"/>
			<point x="434" y="-80" type="curve" smooth="yes"/>
			<point x="1302" y="1424" type="line"/>
			<point x="1318" y="1448"/>
			<point x="1318" y="1452"/>
			<point x="1318" y="1460" type="curve" smooth="yes"/>
			<point x="1318" y="1482"/>
			<point x="1300" y="1500"/>
			<point x="1278" y="1500" type="curve" smooth="yes"/>
			<point x="1254" y="1500"/>
			<point x="1244" y="1480"/>
			<point x="1236" y="1468" type="curve"/>
			<point x="366" y="-36" type="line"/>
			<point x="366" y="-38"/>
			<point x="352" y="-58"/>
			<point x="352" y="-72" type="curve" smooth="yes"/>
			<point x="352" y="-94"/>
			<point x="372" y="-112"/>
		</contour>
		<contour>
			<point x="392" y="816" type="curve" smooth="yes"/>
			<point x="370" y="816"/>
			<point x="262" y="822"/>
			<point x="262" y="1096" type="curve" smooth="yes"/>
			<point x="262" y="1362"/>
			<point x="364" y="1378"/>
			<point x="392" y="1378" type="curve" smooth="yes"/>
			<point x="472" y="1378"/>
			<point x="528" y="1244"/>
			<point x="528" y="1098" type="curve" smooth="yes"/>
			<point x="528" y="944"/>
			<point x="470" y="816"/>
		</contour>
		<contour>
			<point x="392" y="694" type="curve" smooth="yes"/>
			<point x="534" y="694"/>
			<point x="666" y="864"/>
			<point x="666" y="1096" type="curve" smooth="yes"/>
			<point x="666" y="1336"/>
			<point x="532" y="1500"/>
			<point x="392" y="1500" type="curve" smooth="yes"/>
			<point x="246" y="1500"/>
			<point x="112" y="1332"/>
			<point x="112" y="1098" type="curve" smooth="yes"/>
			<point x="112" y="858"/>
			<point x="250" y="694"/>
		</contour>
		<contour>
			<point x="1278" y="10" type="curve" smooth="yes"/>
			<point x="1256" y="10"/>
			<point x="1148" y="16"/>
			<point x="1148" y="290" type="curve" smooth="yes"/>
			<point x="1148" y="556"/>
			<point x="1250" y="572"/>
			<point x="1278" y="572" type="curve" smooth="yes"/>
			<point x="1358" y="572"/>
			<point x="1414" y="438"/>
			<point x="1414" y="292" type="curve" smooth="yes"/>
			<point x="1414" y="138"/>
			<point x="1356" y="10"/>
		</contour>
		<contour>
			<point x="1278" y="-112" type="curve" smooth="yes"/>
			<point x="1420" y="-112"/>
			<point x="1552" y="58"/>
			<point x="1552" y="290" type="curve" smooth="yes"/>
			<point x="1552" y="530"/>
			<point x="1418" y="694"/>
			<point x="1278" y="694" type="curve" smooth="yes"/>
			<point x="1132" y="694"/>
			<point x="998" y="526"/>
			<point x="998" y="292" type="curve" smooth="yes"/>
			<point x="998" y="52"/>
			<point x="1136" y="-112"/>
		</contour>
	</outline>
</glyph>
<glyph name="ampersand" format="2">
	<unicode hex="0026"/>
	<advance width="1516"/>
	<outline>
		<contour>
			<point x="450" y="-44" type="curve" smooth="yes"/>
			<point x="646" y="-44"/>
			<point x="788" y="38"/>
			<point x="848" y="72" type="curve"/>
			<point x="968" y="-20"/>
			<point x="1074" y="-44"/>
			<point x="1170" y="-44" type="curve" smooth="yes"/>
			<point x="1194" y="-44"/>
			<point x="1282" y="-44"/>
			<point x="1402" y="-14" type="curve"/>
			<point x="1402" y="-14"/>
			<point x="1402" y="-14"/>
			<point x="1402" y="-14" type="curve"/>
			<point x="1402" y="120" type="line"/>
			<point x="1402" y="120"/>
			<point x="1402" y="120"/>
			<point x="1402" y="120" type="curve"/>
			<point x="1402" y="120"/>
			<point x="1402" y="120"/>
			<point x="1402" y="120" type="curve"/>
			<point x="1294" y="86"/>
			<point x="1200" y="84"/>
			<point x="1172" y="84" type="curve" smooth="yes"/>
			<point x="1082" y="84"/>
			<point x="1024" y="116"/>
			<point x="964" y="158" type="curve"/>
			<point x="1148" y="318"/>
			<point x="1264" y="540"/>
			<point x="1330" y="774" type="curve"/>
			<point x="1330" y="774"/>
			<point x="1330" y="774"/>
			<point x="1330" y="774" type="curve"/>
			<point x="1206" y="810" type="line"/>
			<point x="1206" y="810"/>
			<point x="1206" y="810"/>
			<point x="1206" y="810" type="curve"/>
			<point x="1110" y="476"/>
			<point x="956" y="316"/>
			<point x="868" y="244" type="curve"/>
			<point x="808" y="308"/>
			<point x="646" y="496"/>
			<point x="556" y="686" type="curve"/>
			<point x="750" y="858"/>
			<point x="858" y="986"/>
			<point x="858" y="1118" type="curve" smooth="yes"/>
			<point x="858" y="1270"/>
			<point x="760" y="1432"/>
			<point x="600" y="1432" type="curve" smooth="yes"/>
			<point x="430" y="1432"/>
			<point x="324" y="1250"/>
			<point x="324" y="1036" type="curve" smooth="yes"/>
			<point x="324" y="880"/>
			<point x="374" y="730"/>
			<point x="388" y="700" type="curve"/>
			<point x="368" y="684"/>
			<point x="204" y="546"/>
			<point x="174" y="514" type="curve" smooth="yes"/>
			<point x="110" y="446"/>
			<point x="84" y="370"/>
			<point x="84" y="292" type="curve" smooth="yes"/>
			<point x="84" y="112"/>
			<point x="238" y="-44"/>
		</contour>
		<contour>
			<point x="508" y="808" type="curve"/>
			<point x="454" y="948"/>
			<point x="454" y="1088"/>
			<point x="454" y="1104" type="curve" smooth="yes"/>
			<point x="454" y="1254"/>
			<point x="536" y="1310"/>
			<point x="598" y="1310" type="curve" smooth="yes"/>
			<point x="704" y="1310"/>
			<point x="720" y="1170"/>
			<point x="720" y="1120" type="curve" smooth="yes"/>
			<point x="720" y="1018"/>
			<point x="630" y="920"/>
		</contour>
		<contour>
			<point x="438" y="584" type="curve"/>
			<point x="534" y="392"/>
			<point x="724" y="182"/>
			<point x="746" y="160" type="curve"/>
			<point x="620" y="94"/>
			<point x="506" y="84"/>
			<point x="452" y="84" type="curve" smooth="yes"/>
			<point x="310" y="84"/>
			<point x="240" y="204"/>
			<point x="240" y="306" type="curve" smooth="yes"/>
			<point x="240" y="382"/>
			<point x="274" y="436"/>
			<point x="308" y="470" type="curve" smooth="yes"/>
			<point x="312" y="474"/>
			<point x="424" y="572"/>
		</contour>
	</outline>
</glyph>
<glyph name="parenleft" format="2">
	<unicode hex="0028"/>
	<advance width="776"/>
	<outline>
		<contour>
			<point x="158" y="500" type="curve" smooth="yes"/>
			<point x="158" y="-146"/>
			<point x="446" y="-412"/>
			<point x="542" y="-500" type="curve"/>
			<point x="542" y="-500"/>
			<point x="542" y="-500"/>
			<point x="542" y="-500" type="curve"/>
			<point x="664" y="-500" type="line"/>
			<point x="664" y="-500"/>
			<point x="664" y="-500"/>
			<point x="664" y="-500" type="curve"/>
			<point x="664" y="-500"/>
			<point x="664" y="-500"/>
			<point x="664" y="-500" type="curve"/>
			<point x="568" y="-404"/>
			<point x="314" y="-146"/>
			<point x="314" y="500" type="curve" smooth="yes"/>
			<point x="314" y="686"/>
			<point x="322" y="1158"/>
			<point x="664" y="1500" type="curve"/>
			<point x="664" y="1500"/>
			<point x="664" y="1500"/>
			<point x="664" y="1500" type="curve"/>
			<point x="664" y="1500"/>
			<point x="664" y="1500"/>
			<point x="664" y="1500" type="curve"/>
			<point x="542" y="1500" type="line"/>
			<point x="542" y="1500"/>
			<point x="542" y="1500"/>
			<point x="542" y="1500" type="curve"/>
			<point x="226" y="1222"/>
			<point x="158" y="806"/>
		</contour>
	</outline>
</glyph>
<glyph name="parenright" format="2">
	<unicode hex="0029"/>
	<advance width="776"/>
	<outline>
		<contour>
			<point x="618" y="500" type="curve" smooth="yes"/>
			<point x="618" y="806"/>
			<point x="550" y="1222"/>
			<point x="234" y="1500" type="curve"/>
			<point x="234" y="1500"/>
			<point x="234" y="1500"/>
			<point x="234" y="1500" type="curve"/>
			<point x="112" y="1500" type="line"/>
			<point x="112" y="1500"/>
			<point x="112" y="1500"/>
			<point x="112" y="1500" type="curve"/>
			<point x="112" y="1500"/>
			<point x="112" y="1500"/>
			<point x="112" y="1500" type="curve"/>
			<point x="454" y="1158"/>
			<point x="462" y="686"/>
			<point x="462" y="500" type="curve" smooth="yes"/>
			<point x="462" y="-146"/>
			<point x="208" y="-404"/>
			<point x="112" y="-500" type="curve"/>
			<point x="112" y="-500"/>
			<point x="112" y="-500"/>
			<point x="112" y="-500" type="curve"/>
			<point x="112" y="-500"/>
			<point x="112" y="-500"/>
			<point x="112" y="-500" type="curve"/>
			<point x="234" y="-500" type="line"/>
			<point x="234" y="-500"/>
			<point x="234" y="-500"/>
			<point x="234" y="-500" type="curve"/>
			<point x="330" y="-412"/>
			<point x="618" y="-146"/>
		</contour>
	</outline>
</glyph>
<glyph name="asterisk" format="2">
	<unicode hex="002A"/>
	<advance width="1000"/>
	<outline>
		<contour>
			<point x="498" y="612" type="curve" smooth="yes"/>
			<point x="530" y="612"/>
			<point x="568" y="632"/>
			<point x="568" y="682" type="curve"/>
			<point x="563" y="775"/>
			<point x="557" y="867"/>
			<point x="552" y="960" type="curve"/>
			<point x="738" y="832" type="line"/>
			<point x="772" y="806"/>
			<point x="780" y="800"/>
			<point x="802" y="800" type="curve" smooth="yes"/>
			<point x="830" y="800"/>
			<point x="870" y="824"/>
			<point x="870" y="872" type="curve" smooth="yes"/>
			<point x="870" y="896"/>
			<point x="860" y="914"/>
			<point x="842" y="926" type="curve"/>
			<point x="600" y="1056" type="line"/>
			<point x="818" y="1174" type="line" smooth="yes"/>
			<point x="850" y="1192"/>
			<point x="870" y="1202"/>
			<point x="870" y="1240" type="curve" smooth="yes"/>
			<point x="870" y="1288"/>
			<point x="830" y="1312"/>
			<point x="802" y="1312" type="curve" smooth="yes"/>
			<point x="780" y="1312"/>
			<point x="772" y="1306"/>
			<point x="744" y="1286" type="curve" smooth="yes"/>
			<point x="552" y="1152" type="line"/>
			<point x="557" y="1245"/>
			<point x="563" y="1337"/>
			<point x="568" y="1430" type="curve"/>
			<point x="568" y="1484"/>
			<point x="524" y="1500"/>
			<point x="500" y="1500" type="curve" smooth="yes"/>
			<point x="468" y="1500"/>
			<point x="430" y="1480"/>
			<point x="430" y="1430" type="curve"/>
			<point x="435" y="1337"/>
			<point x="441" y="1245"/>
			<point x="446" y="1152" type="curve"/>
			<point x="250" y="1290" type="line" smooth="yes"/>
			<point x="220" y="1312"/>
			<point x="206" y="1312"/>
			<point x="196" y="1312" type="curve" smooth="yes"/>
			<point x="168" y="1312"/>
			<point x="128" y="1288"/>
			<point x="128" y="1240" type="curve" smooth="yes"/>
			<point x="128" y="1216"/>
			<point x="138" y="1198"/>
			<point x="156" y="1186" type="curve"/>
			<point x="398" y="1056" type="line"/>
			<point x="180" y="938" type="line" smooth="yes"/>
			<point x="148" y="920"/>
			<point x="128" y="910"/>
			<point x="128" y="872" type="curve" smooth="yes"/>
			<point x="128" y="824"/>
			<point x="168" y="800"/>
			<point x="196" y="800" type="curve" smooth="yes"/>
			<point x="218" y="800"/>
			<point x="226" y="806"/>
			<point x="254" y="826" type="curve" smooth="yes"/>
			<point x="446" y="960" type="line"/>
			<point x="441" y="867"/>
			<point x="435" y="775"/>
			<point x="430" y="682" type="curve"/>
			<point x="430" y="628"/>
			<point x="474" y="612"/>
		</contour>
	</outline>
</glyph>
<glyph name="comma" format="2">
	<unicode hex="002C"/>
	<advance width="277"/>
	<outline>
		<contour>
			<point x="122" y="0" type="line"/>
			<point x="97" y="-125" type="line"/>
			<point x="97" y="-125"/>
			<point x="97" y="-125"/>
			<point x="97" y="-125" type="curve"/>
			<point x="97" y="-125"/>
			<point x="97" y="-125"/>
			<point x="97" y="-125" type="curve"/>
			<point x="138" y="-125" type="line"/>
			<point x="138" y="-125"/>
			<point x="138" y="-125"/>
			<point x="138" y="-125" type="curve"/>
			<point x="151.986" y="-83.042"/>
			<point x="165.972" y="-41.084"/>
			<point x="180" y="1" type="curve"/>
			<point x="180" y="1"/>
			<point x="180" y="1"/>
			<point x="180" y="1" type="curve"/>
			<point x="180" y="83" type="line"/>
			<point x="180" y="83"/>
			<point x="180" y="83"/>
			<point x="180" y="83" type="curve"/>
			<point x="97" y="83" type="line"/>
			<point x="97" y="83"/>
			<point x="97" y="83"/>
			<point x="97" y="83" type="curve"/>
			<point x="97" y="0" type="line"/>
			<point x="97" y="0"/>
			<point x="97" y="0"/>
			<point x="97" y="0" type="curve"/>
		</contour>
	</outline>
</glyph>
<glyph name="hyphen" format="2">
	<unicode hex="002D"/>
	<advance width="666"/>
	<outline>
		<contour>
			<point x="552" y="386" type="curve"/>
			<point x="552" y="425"/>
			<point x="552" y="463"/>
			<point x="552" y="502" type="curve"/>
			<point x="552" y="502"/>
			<point x="552" y="502"/>
			<point x="552" y="502" type="curve"/>
			<point x="376" y="502"/>
			<point x="199" y="502"/>
			<point x="22" y="502" type="curve"/>
			<point x="22" y="502"/>
			<point x="22" y="502"/>
			<point x="22" y="502" type="curve"/>
			<point x="22" y="463"/>
			<point x="22" y="425"/>
			<point x="22" y="386" type="curve"/>
			<point x="22" y="386"/>
			<point x="22" y="386"/>
			<point x="22" y="386" type="curve"/>
			<point x="198" y="386"/>
			<point x="375" y="386"/>
			<point x="552" y="386" type="curve"/>
			<point x="552" y="386"/>
			<point x="552" y="386"/>
		</contour>
	</outline>
</glyph>
<glyph name="period" format="2">
	<unicode hex="002E"/>
	<advance width="554"/>
	<outline>
		<contour>
			<point x="360" y="166" type="line"/>
			<point x="360" y="166"/>
			<point x="360" y="166"/>
			<point x="360" y="166" type="curve"/>
			<point x="194" y="166" type="line"/>
			<point x="194" y="166"/>
			<point x="194" y="166"/>
			<point x="194" y="166" type="curve"/>
			<point x="194" y="0" type="line"/>
			<point x="194" y="0"/>
			<point x="194" y="0"/>
			<point x="194" y="0" type="curve"/>
			<point x="360" y="0" type="line"/>
			<point x="360" y="0"/>
			<point x="360" y="0"/>
			<point x="360" y="0" type="curve"/>
		</contour>
	</outline>
</glyph>
<glyph name="zero" format="2">
	<unicode hex="0030"/>
	<advance width="1000"/>
	<outline>
		<contour>
			<point x="498" y="-44" type="curve" smooth="yes"/>
			<point x="644" y="-44"/>
			<point x="770" y="38"/>
			<point x="834" y="176" type="curve" smooth="yes"/>
			<point x="894" y="306"/>
			<point x="914" y="438"/>
			<point x="914" y="652" type="curve" smooth="yes"/>
			<point x="914" y="810"/>
			<point x="906" y="996"/>
			<point x="822" y="1158" type="curve" smooth="yes"/>
			<point x="740" y="1308"/>
			<point x="602" y="1356"/>
			<point x="500" y="1356" type="curve" smooth="yes"/>
			<point x="382" y="1356"/>
			<point x="242" y="1302"/>
			<point x="160" y="1124" type="curve" smooth="yes"/>
			<point x="94" y="978"/>
			<point x="84" y="812"/>
			<point x="84" y="652" type="curve" smooth="yes"/>
			<point x="84" y="494"/>
			<point x="92" y="348"/>
			<point x="152" y="202" type="curve" smooth="yes"/>
			<point x="232" y="10"/>
			<point x="384" y="-44"/>
		</contour>
		<contour>
			<point x="500" y="78" type="curve" smooth="yes"/>
			<point x="396" y="78"/>
			<point x="314" y="154"/>
			<point x="274" y="298" type="curve" smooth="yes"/>
			<point x="242" y="412"/>
			<point x="240" y="520"/>
			<point x="240" y="676" type="curve" smooth="yes"/>
			<point x="240" y="802"/>
			<point x="240" y="922"/>
			<point x="274" y="1032" type="curve" smooth="yes"/>
			<point x="286" y="1070"/>
			<point x="336" y="1234"/>
			<point x="498" y="1234" type="curve" smooth="yes"/>
			<point x="654" y="1234"/>
			<point x="706" y="1082"/>
			<point x="720" y="1046" type="curve" smooth="yes"/>
			<point x="758" y="934"/>
			<point x="758" y="800"/>
			<point x="758" y="676" type="curve" smooth="yes"/>
			<point x="758" y="544"/>
			<point x="758" y="418"/>
			<point x="722" y="292" type="curve" smooth="yes"/>
			<point x="670" y="110"/>
			<point x="564" y="78"/>
		</contour>
	</outline>
</glyph>
<glyph name="one" format="2">
	<unicode hex="0031"/>
	<advance width="1000"/>
	<outline>
		<contour>
			<point x="440" y="116" type="line"/>
			<point x="190" y="116" type="line"/>
			<point x="190" y="116"/>
			<point x="190" y="116"/>
			<point x="190" y="116" type="curve"/>
			<point x="190" y="0" type="line"/>
			<point x="190" y="0"/>
			<point x="190" y="0"/>
			<point x="190" y="0" type="curve"/>
			<point x="848" y="0" type="line"/>
			<point x="848" y="0"/>
			<point x="848" y="0"/>
			<point x="848" y="0" type="curve"/>
			<point x="848" y="116" type="line"/>
			<point x="848" y="116"/>
			<point x="848" y="116"/>
			<point x="848" y="116" type="curve"/>
			<point x="598" y="116" type="line"/>
			<point x="598" y="1356" type="line"/>
			<point x="598" y="1356"/>
			<point x="598" y="1356"/>
			<point x="598" y="1356" type="curve"/>
			<point x="558" y="1356" type="line"/>
			<point x="558" y="1356"/>
			<point x="558" y="1356"/>
			<point x="558" y="1356" type="curve"/>
			<point x="440" y="1234"/>
			<point x="274" y="1228"/>
			<point x="178" y="1224" type="curve"/>
			<point x="178" y="1224"/>
			<point x="178" y="1224"/>
			<point x="178" y="1224" type="curve"/>
			<point x="178" y="1108" type="line"/>
			<point x="178" y="1108"/>
			<point x="178" y="1108"/>
			<point x="178" y="1108" type="curve"/>
			<point x="244" y="1110"/>
			<point x="340" y="1114"/>
			<point x="440" y="1156" type="curve"/>
		</contour>
	</outline>
</glyph>
<glyph name="two" format="2">
	<unicode hex="0032"/>
	<advance width="500"/>
	<outline>
		<contour>
			<point x="50" y="0" type="line"/>
			<point x="449" y="0" type="line"/>
			<point x="449" y="71" type="line"/>
			<point x="267" y="71" type="line" smooth="yes"/>
			<point x="255" y="71"/>
			<point x="243" y="70"/>
			<point x="122" y="70" type="curve"/>
			<point x="230" y="172"/>
			<point x="247" y="192"/>
			<point x="350" y="280" type="curve" smooth="yes"/>
			<point x="394" y="324"/>
			<point x="449" y="378"/>
			<point x="449" y="463" type="curve" smooth="yes"/>
			<point x="449" y="578"/>
			<point x="368" y="678"/>
			<point x="236" y="678" type="curve" smooth="yes"/>
			<point x="122" y="678"/>
			<point x="66" y="600"/>
			<point x="42" y="514" type="curve"/>
			<point x="83" y="459" type="line"/>
			<point x="103" y="536"/>
			<point x="131" y="614"/>
			<point x="222" y="614" type="curve" smooth="yes"/>
			<point x="316" y="614"/>
			<point x="367" y="539"/>
			<point x="367" y="461" type="curve" smooth="yes"/>
			<point x="367" y="376"/>
			<point x="310" y="319"/>
			<point x="251" y="259" type="curve" smooth="yes"/>
			<point x="184" y="194"/>
			<point x="117" y="129"/>
			<point x="50" y="64" type="curve"/>
		</contour>
	</outline>
</glyph>
<glyph name="three" format="2">
	<unicode hex="0033"/>
	<advance width="1000"/>
	<outline>
		<contour>
			<point x="494" y="-44" type="curve" smooth="yes"/>
			<point x="738" y="-44"/>
			<point x="914" y="150"/>
			<point x="914" y="360" type="curve" smooth="yes"/>
			<point x="914" y="542"/>
			<point x="774" y="666"/>
			<point x="638" y="708" type="curve"/>
			<point x="790" y="790"/>
			<point x="860" y="926"/>
			<point x="860" y="1052" type="curve" smooth="yes"/>
			<point x="860" y="1224"/>
			<point x="694" y="1356"/>
			<point x="496" y="1356" type="curve" smooth="yes"/>
			<point x="342" y="1356"/>
			<point x="196" y="1276"/>
			<point x="112" y="1136" type="curve"/>
			<point x="112" y="1136"/>
			<point x="112" y="1136"/>
			<point x="112" y="1136" type="curve"/>
			<point x="184" y="1028" type="line"/>
			<point x="184" y="1028"/>
			<point x="184" y="1028"/>
			<point x="184" y="1028" type="curve"/>
			<point x="184" y="1028"/>
			<point x="184" y="1028"/>
			<point x="184" y="1028" type="curve"/>
			<point x="242" y="1168"/>
			<point x="372" y="1240"/>
			<point x="494" y="1240" type="curve" smooth="yes"/>
			<point x="598" y="1240"/>
			<point x="696" y="1180"/>
			<point x="696" y="1052" type="curve" smooth="yes"/>
			<point x="696" y="930"/>
			<point x="616" y="810"/>
			<point x="492" y="784" type="curve" smooth="yes"/>
			<point x="480" y="782"/>
			<point x="452" y="780"/>
			<point x="334" y="770" type="curve"/>
			<point x="334" y="770"/>
			<point x="334" y="770"/>
			<point x="334" y="770" type="curve"/>
			<point x="334" y="648" type="line"/>
			<point x="334" y="648"/>
			<point x="334" y="648"/>
			<point x="334" y="648" type="curve"/>
			<point x="476" y="648" type="line" smooth="yes"/>
			<point x="692" y="648"/>
			<point x="736" y="462"/>
			<point x="736" y="362" type="curve" smooth="yes"/>
			<point x="736" y="206"/>
			<point x="644" y="78"/>
			<point x="490" y="78" type="curve" smooth="yes"/>
			<point x="352" y="78"/>
			<point x="194" y="148"/>
			<point x="106" y="284" type="curve"/>
			<point x="106" y="284"/>
			<point x="106" y="284"/>
			<point x="106" y="284" type="curve"/>
			<point x="106" y="284"/>
			<point x="106" y="284"/>
			<point x="106" y="284" type="curve"/>
			<point x="84" y="164" type="line"/>
			<point x="84" y="164"/>
			<point x="84" y="164"/>
			<point x="84" y="164" type="curve"/>
			<point x="230" y="-24"/>
			<point x="414" y="-44"/>
		</contour>
	</outline>
</glyph>
<glyph name="four" format="2">
	<unicode hex="0034"/>
	<advance width="500"/>
	<outline>
		<contour>
			<point x="293" y="0" type="line"/>
			<point x="372" y="0" type="line"/>
			<point x="372" y="171" type="line"/>
			<point x="471" y="171" type="line"/>
			<point x="471" y="232" type="line"/>
			<point x="372" y="232" type="line"/>
			<point x="372" y="656" type="line"/>
			<point x="281" y="656" type="line"/>
			<point x="28" y="232" type="line"/>
			<point x="28" y="171" type="line"/>
			<point x="293" y="171" type="line"/>
		</contour>
		<contour>
			<point x="106" y="232" type="line"/>
			<point x="132" y="274"/>
			<point x="179" y="353"/>
			<point x="220" y="429" type="curve" smooth="yes"/>
			<point x="263" y="508"/>
			<point x="299" y="583"/>
			<point x="299" y="612" type="curve"/>
			<point x="299" y="232" type="line"/>
		</contour>
	</outline>
</glyph>
<glyph name="five" format="2">
	<unicode hex="0035"/>
	<advance width="1000"/>
	<outline>
		<contour>
			<point x="306" y="1184" type="line"/>
			<point x="832" y="1184" type="line"/>
			<point x="832" y="1184"/>
			<point x="832" y="1184"/>
			<point x="832" y="1184" type="curve"/>
			<point x="832" y="1312" type="line"/>
			<point x="832" y="1312"/>
			<point x="832" y="1312"/>
			<point x="832" y="1312" type="curve"/>
			<point x="162" y="1312" type="line"/>
			<point x="162" y="1312"/>
			<point x="162" y="1312"/>
			<point x="162" y="1312" type="curve"/>
			<point x="162" y="574" type="line"/>
			<point x="162" y="574"/>
			<point x="162" y="574"/>
			<point x="162" y="574" type="curve"/>
			<point x="294" y="574" type="line"/>
			<point x="294" y="574"/>
			<point x="294" y="574"/>
			<point x="294" y="574" type="curve"/>
			<point x="328" y="654"/>
			<point x="402" y="732"/>
			<point x="518" y="732" type="curve" smooth="yes"/>
			<point x="612" y="732"/>
			<point x="720" y="650"/>
			<point x="720" y="410" type="curve" smooth="yes"/>
			<point x="720" y="78"/>
			<point x="476" y="78"/>
			<point x="458" y="78" type="curve" smooth="yes"/>
			<point x="324" y="78"/>
			<point x="202" y="156"/>
			<point x="144" y="264" type="curve"/>
			<point x="144" y="264"/>
			<point x="144" y="264"/>
			<point x="144" y="264" type="curve"/>
			<point x="144" y="264"/>
			<point x="144" y="264"/>
			<point x="144" y="264" type="curve"/>
			<point x="122" y="227"/>
			<point x="100" y="189"/>
			<point x="78" y="152" type="curve"/>
			<point x="160" y="38"/>
			<point x="298" y="-44"/>
			<point x="460" y="-44" type="curve" smooth="yes"/>
			<point x="698" y="-44"/>
			<point x="898" y="154"/>
			<point x="898" y="406" type="curve" smooth="yes"/>
			<point x="898" y="656"/>
			<point x="726" y="854"/>
			<point x="520" y="854" type="curve" smooth="yes"/>
			<point x="440" y="854"/>
			<point x="364" y="824"/>
			<point x="306" y="772" type="curve"/>
		</contour>
	</outline>
</glyph>
<glyph name="six" format="2">
	<unicode hex="0036"/>
	<advance width="1000"/>
	<outline>
		<contour>
			<point x="84" y="644" type="curve" smooth="yes"/>
			<point x="84" y="78"/>
			<point x="332" y="-44"/>
			<point x="502" y="-44" type="curve" smooth="yes"/>
			<point x="622" y="-44"/>
			<point x="708" y="2"/>
			<point x="786" y="92" type="curve" smooth="yes"/>
			<point x="876" y="194"/>
			<point x="914" y="286"/>
			<point x="914" y="444" type="curve" smooth="yes"/>
			<point x="914" y="702"/>
			<point x="782" y="924"/>
			<point x="590" y="924" type="curve" smooth="yes"/>
			<point x="526" y="924"/>
			<point x="374" y="908"/>
			<point x="252" y="758" type="curve"/>
			<point x="261" y="865"/>
			<point x="284" y="954"/>
			<point x="318" y="1025" type="curve" smooth="yes"/>
			<point x="386" y="1169"/>
			<point x="497" y="1240"/>
			<point x="620" y="1240" type="curve" smooth="yes"/>
			<point x="696" y="1240"/>
			<point x="760" y="1226"/>
			<point x="830" y="1198" type="curve"/>
			<point x="830" y="1198"/>
			<point x="830" y="1198"/>
			<point x="830" y="1198" type="curve"/>
			<point x="830" y="1198"/>
			<point x="830" y="1198"/>
			<point x="830" y="1198" type="curve"/>
			<point x="830" y="1316" type="line"/>
			<point x="830" y="1316"/>
			<point x="830" y="1316"/>
			<point x="830" y="1316" type="curve"/>
			<point x="728" y="1356"/>
			<point x="646" y="1356"/>
			<point x="618" y="1356" type="curve" smooth="yes"/>
			<point x="336" y="1356"/>
			<point x="84" y="1074"/>
		</contour>
		<contour>
			<point x="502" y="78" type="curve" smooth="yes"/>
			<point x="290" y="78"/>
			<point x="260" y="372"/>
			<point x="254" y="438" type="curve"/>
			<point x="254" y="466"/>
			<point x="254" y="470"/>
			<point x="256" y="494" type="curve"/>
			<point x="256" y="642"/>
			<point x="346" y="802"/>
			<point x="512" y="802" type="curve" smooth="yes"/>
			<point x="608" y="802"/>
			<point x="664" y="752"/>
			<point x="704" y="678" type="curve" smooth="yes"/>
			<point x="746" y="604"/>
			<point x="750" y="534"/>
			<point x="750" y="444" type="curve" smooth="yes"/>
			<point x="750" y="376"/>
			<point x="750" y="284"/>
			<point x="702" y="202" type="curve" smooth="yes"/>
			<point x="668" y="146"/>
			<point x="616" y="78"/>
		</contour>
	</outline>
</glyph>
<glyph name="seven" format="2">
	<unicode hex="0037"/>
	<advance width="1000"/>
	<outline>
		<contour>
			<point x="778" y="1172" type="line"/>
			<point x="482" y="846"/>
			<point x="304" y="446"/>
			<point x="304" y="-22" type="curve"/>
			<point x="304" y="-22"/>
			<point x="304" y="-22"/>
			<point x="304" y="-22" type="curve"/>
			<point x="472" y="-22" type="line"/>
			<point x="472" y="-22"/>
			<point x="472" y="-22"/>
			<point x="472" y="-22" type="curve"/>
			<point x="472" y="578"/>
			<point x="758" y="1006"/>
			<point x="914" y="1182" type="curve"/>
			<point x="914" y="1182"/>
			<point x="914" y="1182"/>
			<point x="914" y="1182" type="curve"/>
			<point x="914" y="1312" type="line"/>
			<point x="914" y="1312"/>
			<point x="914" y="1312"/>
			<point x="914" y="1312" type="curve"/>
			<point x="761" y="1312"/>
			<point x="608" y="1312"/>
			<point x="454" y="1312" type="curve"/>
			<point x="84" y="1312" type="line"/>
			<point x="84" y="1312"/>
			<point x="84" y="1312"/>
			<point x="84" y="1312" type="curve"/>
			<point x="84" y="1170" type="line"/>
			<point x="84" y="1170"/>
			<point x="84" y="1170"/>
			<point x="84" y="1170" type="curve"/>
			<point x="288" y="1170"/>
			<point x="432" y="1172"/>
			<point x="536" y="1172" type="curve" smooth="yes"/>
		</contour>
	</outline>
</glyph>
<glyph name="eight" format="2">
	<unicode hex="0038"/>
	<advance width="1000"/>
	<outline>
		<contour>
			<point x="640" y="710" type="curve"/>
			<point x="818" y="768"/>
			<point x="886" y="900"/>
			<point x="886" y="1006" type="curve" smooth="yes"/>
			<point x="886" y="1194"/>
			<point x="716" y="1356"/>
			<point x="500" y="1356" type="curve" smooth="yes"/>
			<point x="276" y="1356"/>
			<point x="112" y="1190"/>
			<point x="112" y="1006" type="curve" smooth="yes"/>
			<point x="112" y="900"/>
			<point x="180" y="768"/>
			<point x="358" y="710" type="curve"/>
			<point x="214" y="660"/>
			<point x="84" y="534"/>
			<point x="84" y="360" type="curve" smooth="yes"/>
			<point x="84" y="142"/>
			<point x="268" y="-44"/>
			<point x="498" y="-44" type="curve" smooth="yes"/>
			<point x="736" y="-44"/>
			<point x="914" y="148"/>
			<point x="914" y="360" type="curve" smooth="yes"/>
			<point x="914" y="542"/>
			<point x="774" y="664"/>
		</contour>
		<contour>
			<point x="500" y="770" type="curve" smooth="yes"/>
			<point x="346" y="770"/>
			<point x="252" y="868"/>
			<point x="252" y="1006" type="curve" smooth="yes"/>
			<point x="252" y="1144"/>
			<point x="350" y="1240"/>
			<point x="498" y="1240" type="curve" smooth="yes"/>
			<point x="656" y="1240"/>
			<point x="746" y="1136"/>
			<point x="746" y="1006" type="curve" smooth="yes"/>
			<point x="746" y="862"/>
			<point x="644" y="770"/>
		</contour>
		<contour>
			<point x="500" y="78" type="curve" smooth="yes"/>
			<point x="362" y="78"/>
			<point x="246" y="174"/>
			<point x="246" y="362" type="curve" smooth="yes"/>
			<point x="246" y="572"/>
			<point x="390" y="648"/>
			<point x="498" y="648" type="curve" smooth="yes"/>
			<point x="614" y="648"/>
			<point x="752" y="568"/>
			<point x="752" y="362" type="curve" smooth="yes"/>
			<point x="752" y="168"/>
			<point x="628" y="78"/>
		</contour>
	</outline>
</glyph>
<glyph name="nine" format="2">
	<unicode hex="0039"/>
	<advance width="1000"/>
	<outline>
		<contour>
			<point x="410" y="-44" type="curve" smooth="yes"/>
			<point x="672" y="-44"/>
			<point x="914" y="234"/>
			<point x="914" y="670" type="curve" smooth="yes"/>
			<point x="914" y="1230"/>
			<point x="676" y="1356"/>
			<point x="506" y="1356" type="curve" smooth="yes"/>
			<point x="366" y="1356"/>
			<point x="284" y="1296"/>
			<point x="214" y="1222" type="curve" smooth="yes"/>
			<point x="88" y="1086"/>
			<point x="84" y="954"/>
			<point x="84" y="868" type="curve" smooth="yes"/>
			<point x="84" y="734"/>
			<point x="120" y="608"/>
			<point x="182" y="518" type="curve" smooth="yes"/>
			<point x="240" y="438"/>
			<point x="316" y="388"/>
			<point x="408" y="388" type="curve" smooth="yes"/>
			<point x="532" y="388"/>
			<point x="660" y="446"/>
			<point x="746" y="554" type="curve"/>
			<point x="742" y="502"/>
			<point x="735" y="454"/>
			<point x="726" y="411" type="curve" smooth="yes"/>
			<point x="674" y="186"/>
			<point x="544" y="78"/>
			<point x="412" y="78" type="curve" smooth="yes"/>
			<point x="344" y="78"/>
			<point x="278" y="94"/>
			<point x="206" y="154" type="curve"/>
			<point x="206" y="154"/>
			<point x="206" y="154"/>
			<point x="206" y="154" type="curve"/>
			<point x="206" y="154"/>
			<point x="206" y="154"/>
			<point x="206" y="154" type="curve"/>
			<point x="185" y="119"/>
			<point x="165" y="83"/>
			<point x="144" y="48" type="curve"/>
			<point x="144" y="48"/>
			<point x="144" y="48"/>
			<point x="144" y="48" type="curve"/>
			<point x="212" y="-2"/>
			<point x="286" y="-44"/>
		</contour>
		<contour>
			<point x="486" y="510" type="curve" smooth="yes"/>
			<point x="392" y="510"/>
			<point x="336" y="556"/>
			<point x="294" y="630" type="curve" smooth="yes"/>
			<point x="250" y="708"/>
			<point x="248" y="782"/>
			<point x="248" y="868" type="curve" smooth="yes"/>
			<point x="248" y="956"/>
			<point x="250" y="1038"/>
			<point x="306" y="1126" type="curve" smooth="yes"/>
			<point x="346" y="1184"/>
			<point x="402" y="1240"/>
			<point x="506" y="1240" type="curve" smooth="yes"/>
			<point x="702" y="1240"/>
			<point x="736" y="968"/>
			<point x="740" y="870" type="curve"/>
			<point x="742" y="856"/>
			<point x="742" y="836"/>
			<point x="742" y="822" type="curve" smooth="yes"/>
			<point x="742" y="658"/>
			<point x="644" y="510"/>
		</contour>
	</outline>
</glyph>
<glyph name="colon" format="2">
	<unicode hex="003A"/>
	<advance width="554"/>
	<outline>
		<contour>
			<point x="360" y="888" type="line"/>
			<point x="360" y="888"/>
			<point x="360" y="888"/>
			<point x="360" y="888" type="curve"/>
			<point x="194" y="888" type="line"/>
			<point x="194" y="888"/>
			<point x="194" y="888"/>
			<point x="194" y="888" type="curve"/>
			<point x="194" y="722" type="line"/>
			<point x="194" y="722"/>
			<point x="194" y="722"/>
			<point x="194" y="722" type="curve"/>
			<point x="360" y="722" type="line"/>
			<point x="360" y="722"/>
			<point x="360" y="722"/>
			<point x="360" y="722" type="curve"/>
		</contour>
		<contour>
			<point x="194" y="0" type="curve"/>
			<point x="194" y="0"/>
			<point x="194" y="0"/>
			<point x="194" y="0" type="curve"/>
			<point x="249" y="0"/>
			<point x="305" y="0"/>
			<point x="360" y="0" type="curve"/>
			<point x="360" y="0"/>
			<point x="360" y="0"/>
			<point x="360" y="0" type="curve"/>
			<point x="360" y="55"/>
			<point x="360" y="111"/>
			<point x="360" y="166" type="curve"/>
			<point x="360" y="166"/>
			<point x="360" y="166"/>
			<point x="360" y="166" type="curve"/>
			<point x="305" y="166"/>
			<point x="249" y="166"/>
			<point x="194" y="166" type="curve"/>
			<point x="194" y="166"/>
			<point x="194" y="166"/>
			<point x="194" y="166" type="curve"/>
			<point x="194" y="111"/>
			<point x="194" y="55"/>
		</contour>
	</outline>
</glyph>
<glyph name="semicolon" format="2">
	<unicode hex="003B"/>
	<advance width="277"/>
	<outline>
		<contour>
			<point x="180" y="444" type="line"/>
			<point x="180" y="444"/>
			<point x="180" y="444"/>
			<point x="180" y="444" type="curve"/>
			<point x="97" y="444" type="line"/>
			<point x="97" y="444"/>
			<point x="97" y="444"/>
			<point x="97" y="444" type="curve"/>
			<point x="97" y="361" type="line"/>
			<point x="97" y="361"/>
			<point x="97" y="361"/>
			<point x="97" y="361" type="curve"/>
			<point x="180" y="361" type="line"/>
			<point x="180" y="361"/>
			<point x="180" y="361"/>
			<point x="180" y="361" type="curve"/>
		</contour>
		<contour>
			<point x="122" y="0" type="line"/>
			<point x="97" y="-125" type="line"/>
			<point x="97" y="-125"/>
			<point x="97" y="-125"/>
			<point x="97" y="-125" type="curve"/>
			<point x="97" y="-125"/>
			<point x="97" y="-125"/>
			<point x="97" y="-125" type="curve"/>
			<point x="138" y="-125" type="line"/>
			<point x="138" y="-125"/>
			<point x="138" y="-125"/>
			<point x="138" y="-125" type="curve"/>
			<point x="151.986" y="-83.042"/>
			<point x="165.972" y="-41.084"/>
			<point x="180" y="1" type="curve"/>
			<point x="180" y="1"/>
			<point x="180" y="1"/>
			<point x="180" y="1" type="curve"/>
			<point x="180" y="83" type="line"/>
			<point x="180" y="83"/>
			<point x="180" y="83"/>
			<point x="180" y="83" type="curve"/>
			<point x="97" y="83" type="line"/>
			<point x="97" y="83"/>
			<point x="97" y="83"/>
			<point x="97" y="83" type="curve"/>
			<point x="97" y="0" type="line"/>
			<point x="97" y="0"/>
			<point x="97" y="0"/>
			<point x="97" y="0" type="curve"/>
		</contour>
	</outline>
</glyph>
<glyph name="equal" format="2">
	<unicode hex="003D"/>
	<advance width="1554"/>
	<outline>
		<contour>
			<point x="1374" y="660" type="line" smooth="yes"/>
			<point x="1404" y="660"/>
			<point x="1442" y="660"/>
			<point x="1442" y="700" type="curve" smooth="yes"/>
			<point x="1442" y="740"/>
			<point x="1404" y="740"/>
			<point x="1376" y="740" type="curve" smooth="yes"/>
			<point x="178" y="740" type="line" smooth="yes"/>
			<point x="150" y="740"/>
			<point x="112" y="740"/>
			<point x="112" y="700" type="curve" smooth="yes"/>
			<point x="112" y="660"/>
			<point x="150" y="660"/>
			<point x="180" y="660" type="curve" smooth="yes"/>
		</contour>
		<contour>
			<point x="1376" y="260" type="line" smooth="yes"/>
			<point x="1404" y="260"/>
			<point x="1442" y="260"/>
			<point x="1442" y="300" type="curve" smooth="yes"/>
			<point x="1442" y="340"/>
			<point x="1404" y="340"/>
			<point x="1374" y="340" type="curve" smooth="yes"/>
			<point x="180" y="340" type="line" smooth="yes"/>
			<point x="150" y="340"/>
			<point x="112" y="340"/>
			<point x="112" y="300" type="curve" smooth="yes"/>
			<point x="112" y="260"/>
			<point x="150" y="260"/>
			<point x="178" y="260" type="curve" smooth="yes"/>
		</contour>
	</outline>
</glyph>
<glyph name="question" format="2">
	<unicode hex="003F"/>
	<advance width="944"/>
	<outline>
		<contour>
			<point x="510" y="458" type="line" smooth="yes"/>
			<point x="510" y="596"/>
			<point x="578" y="744"/>
			<point x="716" y="860" type="curve" smooth="yes"/>
			<point x="754" y="892"/>
			<point x="830" y="956"/>
			<point x="830" y="1100" type="curve" smooth="yes"/>
			<point x="830" y="1236"/>
			<point x="750" y="1410"/>
			<point x="448" y="1410" type="curve" smooth="yes"/>
			<point x="326" y="1410"/>
			<point x="218" y="1376"/>
			<point x="112" y="1304" type="curve"/>
			<point x="112" y="1304"/>
			<point x="112" y="1304"/>
			<point x="112" y="1304" type="curve"/>
			<point x="158" y="1178" type="line"/>
			<point x="158" y="1178"/>
			<point x="158" y="1178"/>
			<point x="158" y="1178" type="curve"/>
			<point x="158" y="1178"/>
			<point x="158" y="1178"/>
			<point x="158" y="1178" type="curve"/>
			<point x="206" y="1222"/>
			<point x="304" y="1288"/>
			<point x="448" y="1288" type="curve" smooth="yes"/>
			<point x="542" y="1288"/>
			<point x="674" y="1272"/>
			<point x="674" y="1102" type="curve" smooth="yes"/>
			<point x="674" y="1012"/>
			<point x="630" y="974"/>
			<point x="604" y="950" type="curve" smooth="yes"/>
			<point x="376" y="756"/>
			<point x="376" y="500"/>
			<point x="376" y="414" type="curve" smooth="yes"/>
			<point x="376" y="393"/>
			<point x="376" y="371"/>
			<point x="376" y="350" type="curve"/>
			<point x="376" y="350"/>
			<point x="376" y="350"/>
			<point x="376" y="350" type="curve"/>
			<point x="510" y="350" type="line"/>
			<point x="510" y="350"/>
			<point x="510" y="350"/>
			<point x="510" y="350" type="curve"/>
		</contour>
		<contour>
			<point x="360" y="0" type="line"/>
			<point x="360" y="0"/>
			<point x="360" y="0"/>
			<point x="360" y="0" type="curve"/>
			<point x="526" y="0" type="line"/>
			<point x="526" y="0"/>
			<point x="526" y="0"/>
			<point x="526" y="0" type="curve"/>
			<point x="526" y="166" type="line"/>
			<point x="526" y="166"/>
			<point x="526" y="166"/>
			<point x="526" y="166" type="curve"/>
			<point x="360" y="166" type="line"/>
			<point x="360" y="166"/>
			<point x="360" y="166"/>
			<point x="360" y="166" type="curve"/>
		</contour>
	</outline>
</glyph>
<glyph name="at" format="2">
	<unicode hex="0040"/>
	<advance width="1332"/>
	<outline>
		<contour>
			<point x="1124" y="170" type="line" smooth="yes"/>
			<point x="1094" y="170"/>
			<point x="1090" y="170"/>
			<point x="1074" y="162" type="curve" smooth="yes"/>
			<point x="948" y="108"/>
			<point x="842" y="100"/>
			<point x="782" y="100" type="curve" smooth="yes"/>
			<point x="488" y="100"/>
			<point x="262" y="368"/>
			<point x="262" y="694" type="curve" smooth="yes"/>
			<point x="262" y="1044"/>
			<point x="514" y="1288"/>
			<point x="772" y="1288" type="curve" smooth="yes"/>
			<point x="858" y="1288"/>
			<point x="964" y="1250"/>
			<point x="1018" y="1098" type="curve"/>
			<point x="970" y="1128"/>
			<point x="910" y="1148"/>
			<point x="850" y="1148" type="curve" smooth="yes"/>
			<point x="654" y="1148"/>
			<point x="480" y="954"/>
			<point x="480" y="694" type="curve" smooth="yes"/>
			<point x="480" y="434"/>
			<point x="654" y="240"/>
			<point x="850" y="240" type="curve" smooth="yes"/>
			<point x="986" y="240"/>
			<point x="1220" y="354"/>
			<point x="1220" y="724" type="curve" smooth="yes"/>
			<point x="1220" y="900"/>
			<point x="1218" y="1410"/>
			<point x="774" y="1410" type="curve" smooth="yes"/>
			<point x="424" y="1410"/>
			<point x="112" y="1100"/>
			<point x="112" y="694" type="curve" smooth="yes"/>
			<point x="112" y="290"/>
			<point x="418" y="-22"/>
			<point x="776" y="-22" type="curve" smooth="yes"/>
			<point x="996" y="-22"/>
			<point x="1152" y="94"/>
			<point x="1220" y="170" type="curve"/>
			<point x="1220" y="170"/>
			<point x="1220" y="170"/>
			<point x="1220" y="170" type="curve"/>
			<point x="1220" y="170"/>
			<point x="1220" y="170"/>
			<point x="1220" y="170" type="curve"/>
		</contour>
		<contour>
			<point x="850" y="362" type="curve" smooth="yes"/>
			<point x="732" y="362"/>
			<point x="630" y="504"/>
			<point x="630" y="694" type="curve" smooth="yes"/>
			<point x="630" y="882"/>
			<point x="732" y="1026"/>
			<point x="850" y="1026" type="curve" smooth="yes"/>
			<point x="968" y="1026"/>
			<point x="1070" y="884"/>
			<point x="1070" y="694" type="curve" smooth="yes"/>
			<point x="1070" y="506"/>
			<point x="968" y="362"/>
		</contour>
	</outline>
</glyph>
<glyph name="A" format="2">
	<unicode hex="0041"/>
	<advance width="666"/>
	<outline>
		<contour>
			<point x="179" y="204" type="line"/>
			<point x="470" y="204" type="line"/>
			<point x="546" y="0" type="line"/>
			<point x="546" y="0"/>
			<point x="546" y="0"/>
			<point x="546" y="0" type="curve"/>
			<point x="638" y="0" type="line"/>
			<point x="638" y="0"/>
			<point x="638" y="0"/>
			<point x="638" y="0" type="curve"/>
			<point x="638" y="0"/>
			<point x="638" y="0"/>
			<point x="638" y="0" type="curve"/>
			<point x="377" y="694" type="line"/>
			<point x="377" y="694"/>
			<point x="377" y="694"/>
			<point x="377" y="694" type="curve"/>
			<point x="289" y="694" type="line"/>
			<point x="289" y="694"/>
			<point x="289" y="694"/>
			<point x="289" y="694" type="curve"/>
			<point x="28" y="0" type="line"/>
			<point x="28" y="0"/>
			<point x="28" y="0"/>
			<point x="28" y="0" type="curve"/>
			<point x="28" y="0"/>
			<point x="28" y="0"/>
			<point x="28" y="0" type="curve"/>
			<point x="102" y="0" type="line"/>
			<point x="102" y="0"/>
			<point x="102" y="0"/>
			<point x="102" y="0" type="curve"/>
		</contour>
		<contour>
			<point x="200" y="260" type="line"/>
			<point x="282" y="489" type="line" smooth="yes"/>
			<point x="308" y="563"/>
			<point x="320" y="601"/>
			<point x="324" y="622" type="curve"/>
			<point x="325" y="622" type="line"/>
			<point x="326" y="613"/>
			<point x="336" y="580"/>
			<point x="368" y="489" type="curve" smooth="yes"/>
			<point x="448" y="260" type="line"/>
		</contour>
	</outline>
</glyph>
<glyph name="B" format="2">
	<unicode hex="0042"/>
	<advance width="1332"/>
	<outline>
		<contour>
			<point x="194" y="1388" type="line"/>
			<point x="194" y="1388"/>
			<point x="194" y="1388"/>
			<point x="194" y="1388" type="curve"/>
			<point x="194" y="0" type="line"/>
			<point x="194" y="0"/>
			<point x="194" y="0"/>
			<point x="194" y="0" type="curve"/>
			<point x="722" y="0" type="line" smooth="yes"/>
			<point x="1010" y="0"/>
			<point x="1220" y="180"/>
			<point x="1220" y="376" type="curve" smooth="yes"/>
			<point x="1220" y="550"/>
			<point x="1046" y="692"/>
			<point x="834" y="726" type="curve"/>
			<point x="1016" y="772"/>
			<point x="1166" y="888"/>
			<point x="1166" y="1040" type="curve" smooth="yes"/>
			<point x="1166" y="1224"/>
			<point x="952" y="1388"/>
			<point x="668" y="1388" type="curve" smooth="yes"/>
		</contour>
		<contour>
			<point x="360" y="782" type="line"/>
			<point x="360" y="1276" type="line"/>
			<point x="612" y="1276" type="line" smooth="yes"/>
			<point x="834" y="1276"/>
			<point x="1010" y="1170"/>
			<point x="1010" y="1038" type="curve" smooth="yes"/>
			<point x="1010" y="918"/>
			<point x="868" y="782"/>
			<point x="592" y="782" type="curve" smooth="yes"/>
		</contour>
		<contour>
			<point x="360" y="112" type="line"/>
			<point x="360" y="660" type="line"/>
			<point x="650" y="660" type="line" smooth="yes"/>
			<point x="862" y="660"/>
			<point x="1058" y="538"/>
			<point x="1058" y="378" type="curve" smooth="yes"/>
			<point x="1058" y="228"/>
			<point x="882" y="112"/>
			<point x="666" y="112" type="curve" smooth="yes"/>
		</contour>
	</outline>
</glyph>
<glyph name="C" format="2">
	<unicode hex="0043"/>
	<advance width="1278"/>
	<outline>
		<contour>
			<point x="132" y="678" type="curve" smooth="yes"/>
			<point x="132" y="362"/>
			<point x="370" y="-22"/>
			<point x="786" y="-22" type="curve" smooth="yes"/>
			<point x="970" y="-22"/>
			<point x="1046" y="10"/>
			<point x="1176" y="90" type="curve"/>
			<point x="1176" y="90"/>
			<point x="1176" y="90"/>
			<point x="1176" y="90" type="curve"/>
			<point x="1164" y="228" type="line"/>
			<point x="1164" y="228"/>
			<point x="1164" y="228"/>
			<point x="1164" y="228" type="curve"/>
			<point x="1046" y="150"/>
			<point x="978" y="108"/>
			<point x="780" y="108" type="curve" smooth="yes"/>
			<point x="492" y="108"/>
			<point x="312" y="408"/>
			<point x="312" y="696" type="curve" smooth="yes"/>
			<point x="312" y="968"/>
			<point x="478" y="1282"/>
			<point x="784" y="1282" type="curve" smooth="yes"/>
			<point x="926" y="1282"/>
			<point x="1016" y="1248"/>
			<point x="1126" y="1178" type="curve"/>
			<point x="1126" y="1178"/>
			<point x="1126" y="1178"/>
			<point x="1126" y="1178" type="curve"/>
			<point x="1126" y="1178"/>
			<point x="1126" y="1178"/>
			<point x="1126" y="1178" type="curve"/>
			<point x="1154" y="1342" type="line"/>
			<point x="1154" y="1342"/>
			<point x="1154" y="1342"/>
			<point x="1154" y="1342" type="curve"/>
			<point x="1068" y="1384"/>
			<point x="914" y="1410"/>
			<point x="786" y="1410" type="curve" smooth="yes"/>
			<point x="416" y="1410"/>
			<point x="132" y="1098"/>
		</contour>
	</outline>
</glyph>
<glyph name="D" format="2">
	<unicode hex="0044"/>
	<advance width="1444"/>
	<outline>
		<contour>
			<point x="718" y="0" type="line" smooth="yes"/>
			<point x="1058" y="0"/>
			<point x="1330" y="304"/>
			<point x="1330" y="682" type="curve" smooth="yes"/>
			<point x="1330" y="1070"/>
			<point x="1060" y="1388"/>
			<point x="716" y="1388" type="curve" smooth="yes"/>
			<point x="192" y="1388" type="line"/>
			<point x="192" y="1388"/>
			<point x="192" y="1388"/>
			<point x="192" y="1388" type="curve"/>
			<point x="192" y="0" type="line"/>
			<point x="192" y="0"/>
			<point x="192" y="0"/>
			<point x="192" y="0" type="curve"/>
		</contour>
		<contour>
			<point x="364" y="112" type="line"/>
			<point x="364" y="1276" type="line"/>
			<point x="670" y="1276" type="line" smooth="yes"/>
			<point x="950" y="1276"/>
			<point x="1158" y="1034"/>
			<point x="1158" y="682" type="curve" smooth="yes"/>
			<point x="1158" y="342"/>
			<point x="950" y="112"/>
			<point x="670" y="112" type="curve" smooth="yes"/>
		</contour>
	</outline>
</glyph>
<glyph name="E" format="2">
	<unicode hex="0045"/>
	<advance width="597"/>
	<outline>
		<contour>
			<point x="183" y="71" type="line"/>
			<point x="183" y="329" type="line"/>
			<point x="513" y="329" type="line"/>
			<point x="513" y="329"/>
			<point x="513" y="329"/>
			<point x="513" y="329" type="curve"/>
			<point x="513" y="390" type="line"/>
			<point x="513" y="390"/>
			<point x="513" y="390"/>
			<point x="513" y="390" type="curve"/>
			<point x="183" y="390" type="line"/>
			<point x="183" y="626" type="line"/>
			<point x="540" y="626" type="line"/>
			<point x="540" y="626"/>
			<point x="540" y="626"/>
			<point x="540" y="626" type="curve"/>
			<point x="540" y="691" type="line"/>
			<point x="540" y="691"/>
			<point x="540" y="691"/>
			<point x="540" y="691" type="curve"/>
			<point x="94" y="691" type="line"/>
			<point x="94" y="691"/>
			<point x="94" y="691"/>
			<point x="94" y="691" type="curve"/>
			<point x="94" y="0" type="line"/>
			<point x="94" y="0"/>
			<point x="94" y="0"/>
			<point x="94" y="0" type="curve"/>
			<point x="554" y="0" type="line"/>
			<point x="554" y="0"/>
			<point x="554" y="0"/>
			<point x="554" y="0" type="curve"/>
			<point x="554" y="71" type="line"/>
			<point x="554" y="71"/>
			<point x="554" y="71"/>
			<point x="554" y="71" type="curve"/>
		</contour>
	</outline>
</glyph>
<glyph name="F" format="2">
	<unicode hex="0046"/>
	<advance width="1138"/>
	<outline>
		<contour>
			<point x="366" y="630" type="line"/>
			<point x="970" y="630" type="line"/>
			<point x="970" y="630"/>
			<point x="970" y="630"/>
			<point x="970" y="630" type="curve"/>
			<point x="970" y="752" type="line"/>
			<point x="970" y="752"/>
			<point x="970" y="752"/>
			<point x="970" y="752" type="curve"/>
			<point x="366" y="752" type="line"/>
			<point x="366" y="1252" type="line"/>
			<point x="1052" y="1252" type="line"/>
			<point x="1052" y="1252"/>
			<point x="1052" y="1252"/>
			<point x="1052" y="1252" type="curve"/>
			<point x="1052" y="1382" type="line"/>
			<point x="1052" y="1382"/>
			<point x="1052" y="1382"/>
			<point x="1052" y="1382" type="curve"/>
			<point x="188" y="1382" type="line"/>
			<point x="188" y="1382"/>
			<point x="188" y="1382"/>
			<point x="188" y="1382" type="curve"/>
			<point x="188" y="0" type="line"/>
			<point x="188" y="0"/>
			<point x="188" y="0"/>
			<point x="188" y="0" type="curve"/>
			<point x="366" y="0" type="line"/>
			<point x="366" y="0"/>
			<point x="366" y="0"/>
			<point x="366" y="0" type="curve"/>
		</contour>
	</outline>
</glyph>
<glyph name="G" format="2">
	<unicode hex="0047"/>
	<advance width="1334"/>
	<outline>
		<contour>
			<point x="132" y="696" type="curve" smooth="yes"/>
			<point x="132" y="332"/>
			<point x="398" y="-22"/>
			<point x="782" y="-22" type="curve" smooth="yes"/>
			<point x="930" y="-22"/>
			<point x="1066" y="18"/>
			<point x="1200" y="76" type="curve"/>
			<point x="1200" y="598" type="line"/>
			<point x="1200" y="598"/>
			<point x="1200" y="598"/>
			<point x="1200" y="598" type="curve"/>
			<point x="778" y="598" type="line"/>
			<point x="778" y="598"/>
			<point x="778" y="598"/>
			<point x="778" y="598" type="curve"/>
			<point x="778" y="474" type="line"/>
			<point x="778" y="474"/>
			<point x="778" y="474"/>
			<point x="778" y="474" type="curve"/>
			<point x="1042" y="474" type="line"/>
			<point x="1042" y="148" type="line"/>
			<point x="962" y="120"/>
			<point x="866" y="106"/>
			<point x="780" y="106" type="curve" smooth="yes"/>
			<point x="516" y="106"/>
			<point x="312" y="372"/>
			<point x="312" y="696" type="curve" smooth="yes"/>
			<point x="312" y="1010"/>
			<point x="512" y="1282"/>
			<point x="776" y="1282" type="curve" smooth="yes"/>
			<point x="938" y="1282"/>
			<point x="1052" y="1234"/>
			<point x="1154" y="1150" type="curve"/>
			<point x="1154" y="1150"/>
			<point x="1154" y="1150"/>
			<point x="1154" y="1150" type="curve"/>
			<point x="1154" y="1150"/>
			<point x="1154" y="1150"/>
			<point x="1154" y="1150" type="curve"/>
			<point x="1182" y="1314" type="line"/>
			<point x="1182" y="1314"/>
			<point x="1182" y="1314"/>
			<point x="1182" y="1314" type="curve"/>
			<point x="1070" y="1384"/>
			<point x="914" y="1412"/>
			<point x="782" y="1412" type="curve" smooth="yes"/>
			<point x="396" y="1412"/>
			<point x="132" y="1062"/>
		</contour>
	</outline>
</glyph>
<glyph name="H" format="2">
	<unicode hex="0048"/>
	<advance width="708"/>
	<outline>
		<contour>
			<point x="183" y="330" type="line"/>
			<point x="524" y="330" type="line"/>
			<point x="524" y="0" type="line"/>
			<point x="524" y="0"/>
			<point x="524" y="0"/>
			<point x="524" y="0" type="curve"/>
			<point x="613" y="0" type="line"/>
			<point x="613" y="0"/>
			<point x="613" y="0"/>
			<point x="613" y="0" type="curve"/>
			<point x="613" y="694" type="line"/>
			<point x="613" y="694"/>
			<point x="613" y="694"/>
			<point x="613" y="694" type="curve"/>
			<point x="524" y="694" type="line"/>
			<point x="524" y="694"/>
			<point x="524" y="694"/>
			<point x="524" y="694" type="curve"/>
			<point x="524" y="391" type="line"/>
			<point x="183" y="391" type="line"/>
			<point x="183" y="694" type="line"/>
			<point x="183" y="694"/>
			<point x="183" y="694"/>
			<point x="183" y="694" type="curve"/>
			<point x="94" y="694" type="line"/>
			<point x="94" y="694"/>
			<point x="94" y="694"/>
			<point x="94" y="694" type="curve"/>
			<point x="94" y="0" type="line"/>
			<point x="94" y="0"/>
			<point x="94" y="0"/>
			<point x="94" y="0" type="curve"/>
			<point x="183" y="0" type="line"/>
			<point x="183" y="0"/>
			<point x="183" y="0"/>
			<point x="183" y="0" type="curve"/>
		</contour>
	</outline>
</glyph>
<glyph name="I" format="2">
	<unicode hex="0049"/>
	<advance width="554"/>
	<outline>
		<contour>
			<point x="188" y="1388" type="line"/>
			<point x="188" y="1388"/>
			<point x="188" y="1388"/>
			<point x="188" y="1388" type="curve"/>
			<point x="188" y="0" type="line"/>
			<point x="188" y="0"/>
			<point x="188" y="0"/>
			<point x="188" y="0" type="curve"/>
			<point x="366" y="0" type="line"/>
			<point x="366" y="0"/>
			<point x="366" y="0"/>
			<point x="366" y="0" type="curve"/>
			<point x="366" y="1388" type="line"/>
			<point x="366" y="1388"/>
			<point x="366" y="1388"/>
			<point x="366" y="1388" type="curve"/>
		</contour>
	</outline>
</glyph>
<glyph name="J" format="2">
	<unicode hex="004A"/>
	<advance width="472"/>
	<outline>
		<contour>
			<point x="213" y="-22" type="curve" smooth="yes"/>
			<point x="316" y="-22"/>
			<point x="388" y="36"/>
			<point x="388" y="149" type="curve" smooth="yes"/>
			<point x="388" y="694" type="line"/>
			<point x="388" y="694"/>
			<point x="388" y="694"/>
			<point x="388" y="694" type="curve"/>
			<point x="302" y="694" type="line"/>
			<point x="302" y="694"/>
			<point x="302" y="694"/>
			<point x="302" y="694" type="curve"/>
			<point x="302" y="152" type="line" smooth="yes"/>
			<point x="302" y="135"/>
			<point x="302" y="39"/>
			<point x="184" y="39" type="curve" smooth="yes"/>
			<point x="142" y="39"/>
			<point x="90" y="57"/>
			<point x="56" y="95" type="curve"/>
			<point x="56" y="95"/>
			<point x="56" y="95"/>
			<point x="56" y="95" type="curve"/>
			<point x="56" y="95"/>
			<point x="56" y="95"/>
			<point x="56" y="95" type="curve"/>
			<point x="51.338" y="70.025"/>
			<point x="46.676" y="45.05"/>
			<point x="42" y="20" type="curve"/>
			<point x="42" y="20"/>
			<point x="42" y="20"/>
			<point x="42" y="20" type="curve"/>
			<point x="66" y="8"/>
			<point x="129" y="-22"/>
		</contour>
	</outline>
</glyph>
<glyph name="K" format="2">
  <advance width="694"/>
  <unicode hex="004B"/>
  <outline>
    <contour>
      <point x="369" y="420" type="line"/>
      <point x="637" y="694" type="line"/>
      <point x="544" y="694" type="line"/>
      <point x="181" y="323" type="line"/>
      <point x="181" y="694" type="line"/>
      <point x="96" y="694" type="line"/>
      <point x="96" y="0" type="line"/>
      <point x="181" y="0" type="line"/>
      <point x="181" y="227" type="line"/>
      <point x="314" y="364" type="line"/>
      <point x="559" y="0" type="line"/>
      <point x="651" y="0" type="line"/>
    </contour>
  </outline>
</glyph>
<glyph name="L" format="2">
	<unicode hex="004C"/>
	<advance width="1082"/>
	<outline>
		<contour>
			<point x="366" y="130" type="line"/>
			<point x="366" y="1388" type="line"/>
			<point x="366" y="1388"/>
			<point x="366" y="1388"/>
			<point x="366" y="1388" type="curve"/>
			<point x="188" y="1388" type="line"/>
			<point x="188" y="1388"/>
			<point x="188" y="1388"/>
			<point x="188" y="1388" type="curve"/>
			<point x="188" y="0" type="line"/>
			<point x="188" y="0"/>
			<point x="188" y="0"/>
			<point x="188" y="0" type="curve"/>
			<point x="998" y="0" type="line"/>
			<point x="998" y="0"/>
			<point x="998" y="0"/>
			<point x="998" y="0" type="curve"/>
			<point x="998" y="130" type="line"/>
			<point x="998" y="130"/>
			<point x="998" y="130"/>
			<point x="998" y="130" type="curve"/>
		</contour>
	</outline>
</glyph>
<glyph name="M" format="2">
	<unicode hex="004D"/>
	<advance width="875"/>
	<outline>
		<contour>
			<point x="251" y="411" type="curve" smooth="yes"/>
			<point x="399" y="22" type="line"/>
			<point x="399" y="22"/>
			<point x="399" y="22"/>
			<point x="399" y="22" type="curve"/>
			<point x="472" y="22" type="line"/>
			<point x="472" y="22"/>
			<point x="472" y="22"/>
			<point x="472" y="22" type="curve"/>
			<point x="605" y="370" type="line" smooth="yes"/>
			<point x="651" y="490"/>
			<point x="685" y="583"/>
			<point x="695" y="621" type="curve"/>
			<point x="696" y="620" type="line"/>
			<point x="696" y="0" type="line"/>
			<point x="696" y="0"/>
			<point x="696" y="0"/>
			<point x="696" y="0" type="curve"/>
			<point x="774" y="0" type="line"/>
			<point x="774" y="0"/>
			<point x="774" y="0"/>
			<point x="774" y="0" type="curve"/>
			<point x="774" y="694" type="line"/>
			<point x="774" y="694"/>
			<point x="774" y="694"/>
			<point x="774" y="694" type="curve"/>
			<point x="660" y="694" type="line"/>
			<point x="660" y="694"/>
			<point x="660" y="694"/>
			<point x="660" y="694" type="curve"/>
			<point x="530" y="355" type="line" smooth="yes"/>
			<point x="495" y="264"/>
			<point x="448" y="140"/>
			<point x="437" y="93" type="curve"/>
			<point x="436" y="93" type="line"/>
			<point x="431" y="114"/>
			<point x="419" y="151"/>
			<point x="404" y="193" type="curve" smooth="yes"/>
			<point x="213" y="694" type="line"/>
			<point x="213" y="694"/>
			<point x="213" y="694"/>
			<point x="213" y="694" type="curve"/>
			<point x="100" y="694" type="line"/>
			<point x="100" y="694"/>
			<point x="100" y="694"/>
			<point x="100" y="694" type="curve"/>
			<point x="100" y="0" type="line"/>
			<point x="100" y="0"/>
			<point x="100" y="0"/>
			<point x="100" y="0" type="curve"/>
			<point x="178" y="0" type="line"/>
			<point x="178" y="0"/>
			<point x="178" y="0"/>
			<point x="178" y="0" type="curve"/>
			<point x="178" y="620" type="line"/>
			<point x="179" y="620" type="line"/>
			<point x="185" y="588"/>
			<point x="225" y="479"/>
		</contour>
	</outline>
</glyph>
<glyph name="N" format="2">
	<unicode hex="004E"/>
	<advance width="708"/>
	<outline>
		<contour>
			<point x="242" y="486" type="curve" smooth="yes"/>
			<point x="487" y="0" type="line"/>
			<point x="487" y="0"/>
			<point x="487" y="0"/>
			<point x="487" y="0" type="curve"/>
			<point x="611" y="0" type="line"/>
			<point x="611" y="0"/>
			<point x="611" y="0"/>
			<point x="611" y="0" type="curve"/>
			<point x="611" y="694" type="line"/>
			<point x="611" y="694"/>
			<point x="611" y="694"/>
			<point x="611" y="694" type="curve"/>
			<point x="533" y="694" type="line"/>
			<point x="533" y="694"/>
			<point x="533" y="694"/>
			<point x="533" y="694" type="curve"/>
			<point x="533" y="71" type="line"/>
			<point x="532" y="71" type="line"/>
			<point x="513" y="112"/>
			<point x="471" y="197"/>
			<point x="465" y="208" type="curve" smooth="yes"/>
			<point x="220" y="694" type="line"/>
			<point x="220" y="694"/>
			<point x="220" y="694"/>
			<point x="220" y="694" type="curve"/>
			<point x="96" y="694" type="line"/>
			<point x="96" y="694"/>
			<point x="96" y="694"/>
			<point x="96" y="694" type="curve"/>
			<point x="96" y="0" type="line"/>
			<point x="96" y="0"/>
			<point x="96" y="0"/>
			<point x="96" y="0" type="curve"/>
			<point x="174" y="0" type="line"/>
			<point x="174" y="0"/>
			<point x="174" y="0"/>
			<point x="174" y="0" type="curve"/>
			<point x="174" y="623" type="line"/>
			<point x="175" y="623" type="line"/>
			<point x="194" y="582"/>
			<point x="236" y="497"/>
		</contour>
	</outline>
</glyph>
<glyph name="O" format="2">
	<unicode hex="004F"/>
	<advance width="1472"/>
	<outline>
		<contour>
			<point x="1358" y="690" type="curve" smooth="yes"/>
			<point x="1358" y="1110"/>
			<point x="1068" y="1432"/>
			<point x="736" y="1432" type="curve" smooth="yes"/>
			<point x="396" y="1432"/>
			<point x="112" y="1106"/>
			<point x="112" y="690" type="curve" smooth="yes"/>
			<point x="112" y="266"/>
			<point x="408" y="-44"/>
			<point x="734" y="-44" type="curve" smooth="yes"/>
			<point x="1068" y="-44"/>
			<point x="1358" y="270"/>
		</contour>
		<contour>
			<point x="736" y="86" type="curve" smooth="yes"/>
			<point x="500" y="86"/>
			<point x="290" y="336"/>
			<point x="290" y="720" type="curve" smooth="yes"/>
			<point x="290" y="1086"/>
			<point x="510" y="1304"/>
			<point x="734" y="1304" type="curve" smooth="yes"/>
			<point x="966" y="1304"/>
			<point x="1180" y="1078"/>
			<point x="1180" y="720" type="curve" smooth="yes"/>
			<point x="1180" y="330"/>
			<point x="964" y="86"/>
		</contour>
	</outline>
</glyph>
<glyph name="P" format="2">
	<unicode hex="0050"/>
	<advance width="1276"/>
	<outline>
		<contour>
			<point x="370" y="578" type="line"/>
			<point x="704" y="578" type="line" smooth="yes"/>
			<point x="952" y="578"/>
			<point x="1164" y="760"/>
			<point x="1164" y="984" type="curve" smooth="yes"/>
			<point x="1164" y="1198"/>
			<point x="966" y="1388"/>
			<point x="690" y="1388" type="curve" smooth="yes"/>
			<point x="192" y="1388" type="line"/>
			<point x="192" y="1388"/>
			<point x="192" y="1388"/>
			<point x="192" y="1388" type="curve"/>
			<point x="192" y="0" type="line"/>
			<point x="192" y="0"/>
			<point x="192" y="0"/>
			<point x="192" y="0" type="curve"/>
			<point x="370" y="0" type="line"/>
			<point x="370" y="0"/>
			<point x="370" y="0"/>
			<point x="370" y="0" type="curve"/>
		</contour>
		<contour>
			<point x="646" y="1276" type="line" smooth="yes"/>
			<point x="866" y="1276"/>
			<point x="1002" y="1154"/>
			<point x="1002" y="984" type="curve" smooth="yes"/>
			<point x="1002" y="826"/>
			<point x="876" y="694"/>
			<point x="646" y="694" type="curve" smooth="yes"/>
			<point x="364" y="694" type="line"/>
			<point x="364" y="1276" type="line"/>
		</contour>
	</outline>
</glyph>
<glyph name="Q" format="2">
	<unicode hex="0051"/>
	<advance width="1472"/>
	<outline>
		<contour>
			<point x="112" y="690" type="curve" smooth="yes"/>
			<point x="112" y="266"/>
			<point x="408" y="-44"/>
			<point x="734" y="-44" type="curve" smooth="yes"/>
			<point x="766" y="-44"/>
			<point x="840" y="-42"/>
			<point x="926" y="-8" type="curve"/>
			<point x="983" y="-89"/>
			<point x="1041" y="-169"/>
			<point x="1098" y="-250" type="curve"/>
			<point x="1098" y="-250"/>
			<point x="1098" y="-250"/>
			<point x="1098" y="-250" type="curve"/>
			<point x="1304" y="-250" type="line"/>
			<point x="1304" y="-250"/>
			<point x="1304" y="-250"/>
			<point x="1304" y="-250" type="curve"/>
			<point x="1304" y="-250"/>
			<point x="1304" y="-250"/>
			<point x="1304" y="-250" type="curve"/>
			<point x="1066" y="66" type="line"/>
			<point x="1284" y="236"/>
			<point x="1358" y="480"/>
			<point x="1358" y="690" type="curve" smooth="yes"/>
			<point x="1358" y="1110"/>
			<point x="1068" y="1432"/>
			<point x="736" y="1432" type="curve" smooth="yes"/>
			<point x="396" y="1432"/>
			<point x="112" y="1106"/>
		</contour>
		<contour>
			<point x="284" y="690" type="curve" smooth="yes"/>
			<point x="284" y="1064"/>
			<point x="502" y="1304"/>
			<point x="734" y="1304" type="curve" smooth="yes"/>
			<point x="974" y="1304"/>
			<point x="1186" y="1060"/>
			<point x="1186" y="690" type="curve" smooth="yes"/>
			<point x="1186" y="560"/>
			<point x="1162" y="342"/>
			<point x="982" y="178" type="curve"/>
			<point x="824" y="388" type="line"/>
			<point x="824" y="388"/>
			<point x="824" y="388"/>
			<point x="824" y="388" type="curve"/>
			<point x="646" y="388" type="line"/>
			<point x="646" y="388"/>
			<point x="646" y="388"/>
			<point x="646" y="388" type="curve"/>
			<point x="713" y="293"/>
			<point x="781" y="198"/>
			<point x="848" y="102" type="curve"/>
			<point x="848" y="102"/>
			<point x="848" y="102"/>
			<point x="848" y="102" type="curve"/>
			<point x="846" y="102"/>
			<point x="794" y="84"/>
			<point x="736" y="84" type="curve" smooth="yes"/>
			<point x="500" y="84"/>
			<point x="284" y="318"/>
		</contour>
	</outline>
</glyph>
<glyph name="R" format="2">
	<unicode hex="0052"/>
	<advance width="1290"/>
	<outline>
		<contour>
			<point x="838" y="652" type="line"/>
			<point x="1044" y="712"/>
			<point x="1178" y="854"/>
			<point x="1178" y="1016" type="curve" smooth="yes"/>
			<point x="1178" y="1214"/>
			<point x="960" y="1388"/>
			<point x="674" y="1388" type="curve" smooth="yes"/>
			<point x="192" y="1388" type="line"/>
			<point x="192" y="1388"/>
			<point x="192" y="1388"/>
			<point x="192" y="1388" type="curve"/>
			<point x="192" y="0" type="line"/>
			<point x="192" y="0"/>
			<point x="192" y="0"/>
			<point x="192" y="0" type="curve"/>
			<point x="364" y="0" type="line"/>
			<point x="364" y="0"/>
			<point x="364" y="0"/>
			<point x="364" y="0" type="curve"/>
			<point x="364" y="634" type="line"/>
			<point x="680" y="634" type="line"/>
			<point x="1056" y="0" type="line"/>
			<point x="1056" y="0"/>
			<point x="1056" y="0"/>
			<point x="1056" y="0" type="curve"/>
			<point x="1234" y="0" type="line"/>
			<point x="1234" y="0"/>
			<point x="1234" y="0"/>
			<point x="1234" y="0" type="curve"/>
		</contour>
		<contour>
			<point x="364" y="756" type="line"/>
			<point x="364" y="1276" type="line"/>
			<point x="652" y="1276" type="line" smooth="yes"/>
			<point x="884" y="1276"/>
			<point x="1016" y="1158"/>
			<point x="1016" y="1016" type="curve" smooth="yes"/>
			<point x="1016" y="874"/>
			<point x="888" y="756"/>
			<point x="652" y="756" type="curve" smooth="yes"/>
		</contour>
	</outline>
</glyph>
<glyph name="S" format="2">
	<unicode hex="0053"/>
	<advance width="1110"/>
	<outline>
		<contour>
			<point x="840" y="358" type="curve" smooth="yes"/>
			<point x="840" y="226"/>
			<point x="730" y="94"/>
			<point x="548" y="94" type="curve" smooth="yes"/>
			<point x="466" y="94"/>
			<point x="286" y="114"/>
			<point x="118" y="256" type="curve"/>
			<point x="118" y="256"/>
			<point x="118" y="256"/>
			<point x="118" y="256" type="curve"/>
			<point x="118" y="256"/>
			<point x="118" y="256"/>
			<point x="118" y="256" type="curve"/>
			<point x="88" y="94" type="line"/>
			<point x="88" y="94"/>
			<point x="88" y="94"/>
			<point x="88" y="94" type="curve"/>
			<point x="264" y="-16"/>
			<point x="424" y="-44"/>
			<point x="550" y="-44" type="curve" smooth="yes"/>
			<point x="814" y="-44"/>
			<point x="998" y="158"/>
			<point x="998" y="378" type="curve" smooth="yes"/>
			<point x="998" y="508"/>
			<point x="936" y="604"/>
			<point x="892" y="652" type="curve" smooth="yes"/>
			<point x="798" y="752"/>
			<point x="732" y="770"/>
			<point x="548" y="816" type="curve" smooth="yes"/>
			<point x="432" y="844"/>
			<point x="400" y="852"/>
			<point x="340" y="904" type="curve" smooth="yes"/>
			<point x="326" y="916"/>
			<point x="270" y="974"/>
			<point x="270" y="1062" type="curve" smooth="yes"/>
			<point x="270" y="1180"/>
			<point x="378" y="1300"/>
			<point x="562" y="1300" type="curve" smooth="yes"/>
			<point x="730" y="1300"/>
			<point x="826" y="1234"/>
			<point x="900" y="1172" type="curve"/>
			<point x="900" y="1172"/>
			<point x="900" y="1172"/>
			<point x="900" y="1172" type="curve"/>
			<point x="900" y="1172"/>
			<point x="900" y="1172"/>
			<point x="900" y="1172" type="curve"/>
			<point x="930" y="1332" type="line"/>
			<point x="930" y="1332"/>
			<point x="930" y="1332"/>
			<point x="930" y="1332" type="curve"/>
			<point x="820" y="1398"/>
			<point x="710" y="1432"/>
			<point x="564" y="1432" type="curve" smooth="yes"/>
			<point x="286" y="1432"/>
			<point x="112" y="1236"/>
			<point x="112" y="1038" type="curve" smooth="yes"/>
			<point x="112" y="952"/>
			<point x="140" y="868"/>
			<point x="220" y="784" type="curve" smooth="yes"/>
			<point x="304" y="694"/>
			<point x="392" y="670"/>
			<point x="510" y="642" type="curve" smooth="yes"/>
			<point x="680" y="600"/>
			<point x="700" y="594"/>
			<point x="756" y="544" type="curve" smooth="yes"/>
			<point x="796" y="510"/>
			<point x="840" y="444"/>
		</contour>
	</outline>
</glyph>
<glyph name="T" format="2">
	<unicode hex="0054"/>
	<advance width="680"/>
	<outline>
		<contour>
			<point x="296" y="623" type="line"/>
			<point x="296" y="0" type="line"/>
			<point x="296" y="0"/>
			<point x="296" y="0"/>
			<point x="296" y="0" type="curve"/>
			<point x="385" y="0" type="line"/>
			<point x="385" y="0"/>
			<point x="385" y="0"/>
			<point x="385" y="0" type="curve"/>
			<point x="385" y="623" type="line"/>
			<point x="471.247" y="623"/>
			<point x="557.494" y="623"/>
			<point x="644" y="623" type="curve"/>
			<point x="644" y="623"/>
			<point x="644" y="623"/>
			<point x="644" y="623" type="curve"/>
			<point x="644" y="688" type="line"/>
			<point x="644" y="688"/>
			<point x="644" y="688"/>
			<point x="644" y="688" type="curve"/>
			<point x="36" y="688" type="line"/>
			<point x="36" y="688"/>
			<point x="36" y="688"/>
			<point x="36" y="688" type="curve"/>
			<point x="36" y="623" type="line"/>
			<point x="36" y="623"/>
			<point x="36" y="623"/>
			<point x="36" y="623" type="curve"/>
		</contour>
	</outline>
</glyph>
<glyph name="U" format="2">
  <advance width="687"/>
  <unicode hex="0055"/>
  <outline>
    <contour>
      <point x="593" y="694" type="line"/>
      <point x="515" y="694" type="line"/>
      <point x="515" y="232" type="line" smooth="yes"/>
      <point x="515" y="100"/>
      <point x="431" y="34"/>
      <point x="347" y="34" type="curve" smooth="yes"/>
      <point x="265" y="34"/>
      <point x="183" y="97"/>
      <point x="183" y="232" type="curve" smooth="yes"/>
      <point x="183" y="694" type="line"/>
      <point x="94" y="694" type="line"/>
      <point x="94" y="233" type="line" smooth="yes"/>
      <point x="94" y="87"/>
      <point x="211" y="-22"/>
      <point x="346" y="-22" type="curve" smooth="yes"/>
      <point x="480" y="-22"/>
      <point x="593" y="88"/>
      <point x="593" y="233" type="curve" smooth="yes"/>
    </contour>
  </outline>
</glyph>
<glyph name="V" format="2">
	<unicode hex="0056"/>
	<advance width="666"/>
	<outline>
		<contour>
			<point x="280" y="246" type="curve" smooth="yes"/>
			<point x="107" y="694" type="line"/>
			<point x="107" y="694"/>
			<point x="107" y="694"/>
			<point x="107" y="694" type="curve"/>
			<point x="14" y="694" type="line"/>
			<point x="14" y="694"/>
			<point x="14" y="694"/>
			<point x="14" y="694" type="curve"/>
			<point x="14" y="694"/>
			<point x="14" y="694"/>
			<point x="14" y="694" type="curve"/>
			<point x="287" y="0" type="line"/>
			<point x="287" y="0"/>
			<point x="287" y="0"/>
			<point x="287" y="0" type="curve"/>
			<point x="379" y="0" type="line"/>
			<point x="379" y="0"/>
			<point x="379" y="0"/>
			<point x="379" y="0" type="curve"/>
			<point x="652" y="694" type="line"/>
			<point x="652" y="694"/>
			<point x="652" y="694"/>
			<point x="652" y="694" type="curve"/>
			<point x="652" y="694"/>
			<point x="652" y="694"/>
			<point x="652" y="694" type="curve"/>
			<point x="574" y="694" type="line"/>
			<point x="574" y="694"/>
			<point x="574" y="694"/>
			<point x="574" y="694" type="curve"/>
			<point x="529.711" y="580.114"/>
			<point x="485.422" y="466.228"/>
			<point x="441" y="352" type="curve" smooth="yes"/>
			<point x="425" y="311"/>
			<point x="350" y="118"/>
			<point x="341" y="72" type="curve"/>
			<point x="340" y="72" type="line"/>
			<point x="332" y="112"/>
			<point x="289" y="222"/>
		</contour>
	</outline>
</glyph>
<glyph name="W" format="2">
	<unicode hex="0057"/>
	<advance width="1888"/>
	<outline>
		<contour>
			<point x="796" y="694" type="line" smooth="yes"/>
			<point x="838" y="840"/>
			<point x="924" y="1138"/>
			<point x="936" y="1242" type="curve"/>
			<point x="938" y="1242" type="line"/>
			<point x="946" y="1182"/>
			<point x="994" y="992"/>
			<point x="1048" y="802" type="curve" smooth="yes"/>
			<point x="1278" y="0" type="line"/>
			<point x="1278" y="0"/>
			<point x="1278" y="0"/>
			<point x="1278" y="0" type="curve"/>
			<point x="1452" y="0" type="line"/>
			<point x="1452" y="0"/>
			<point x="1452" y="0"/>
			<point x="1452" y="0" type="curve"/>
			<point x="1858" y="1388" type="line"/>
			<point x="1858" y="1388"/>
			<point x="1858" y="1388"/>
			<point x="1858" y="1388" type="curve"/>
			<point x="1858" y="1388"/>
			<point x="1858" y="1388"/>
			<point x="1858" y="1388" type="curve"/>
			<point x="1714" y="1388" type="line"/>
			<point x="1714" y="1388"/>
			<point x="1714" y="1388"/>
			<point x="1714" y="1388" type="curve"/>
			<point x="1532" y="760" type="line" smooth="yes"/>
			<point x="1480" y="582"/>
			<point x="1384" y="246"/>
			<point x="1374" y="144" type="curve"/>
			<point x="1372" y="144" type="line"/>
			<point x="1372" y="146"/>
			<point x="1360" y="250"/>
			<point x="1228" y="706" type="curve" smooth="yes"/>
			<point x="1032" y="1388" type="line"/>
			<point x="1032" y="1388"/>
			<point x="1032" y="1388"/>
			<point x="1032" y="1388" type="curve"/>
			<point x="870" y="1388" type="line"/>
			<point x="870" y="1388"/>
			<point x="870" y="1388"/>
			<point x="870" y="1388" type="curve"/>
			<point x="690" y="764" type="line" smooth="yes"/>
			<point x="646" y="610"/>
			<point x="546" y="260"/>
			<point x="536" y="148" type="curve"/>
			<point x="534" y="148" type="line"/>
			<point x="526" y="228"/>
			<point x="472" y="424"/>
			<point x="456" y="490" type="curve" smooth="yes"/>
			<point x="200" y="1388" type="line"/>
			<point x="200" y="1388"/>
			<point x="200" y="1388"/>
			<point x="200" y="1388" type="curve"/>
			<point x="28" y="1388" type="line"/>
			<point x="28" y="1388"/>
			<point x="28" y="1388"/>
			<point x="28" y="1388" type="curve"/>
			<point x="28" y="1388"/>
			<point x="28" y="1388"/>
			<point x="28" y="1388" type="curve"/>
			<point x="434" y="0" type="line"/>
			<point x="434" y="0"/>
			<point x="434" y="0"/>
			<point x="434" y="0" type="curve"/>
			<point x="596" y="0" type="line"/>
			<point x="596" y="0"/>
			<point x="596" y="0"/>
			<point x="596" y="0" type="curve"/>
		</contour>
	</outline>
</glyph>
<glyph name="X" format="2">
	<unicode hex="0058"/>
	<advance width="1332"/>
	<outline>
		<contour>
			<point x="738" y="732" type="line"/>
			<point x="1220" y="1388" type="line"/>
			<point x="1220" y="1388"/>
			<point x="1220" y="1388"/>
			<point x="1220" y="1388" type="curve"/>
			<point x="1220" y="1388"/>
			<point x="1220" y="1388"/>
			<point x="1220" y="1388" type="curve"/>
			<point x="1028" y="1388" type="line"/>
			<point x="1028" y="1388"/>
			<point x="1028" y="1388"/>
			<point x="1028" y="1388" type="curve"/>
			<point x="652" y="866" type="line"/>
			<point x="264" y="1388" type="line"/>
			<point x="264" y="1388"/>
			<point x="264" y="1388"/>
			<point x="264" y="1388" type="curve"/>
			<point x="56" y="1388" type="line"/>
			<point x="56" y="1388"/>
			<point x="56" y="1388"/>
			<point x="56" y="1388" type="curve"/>
			<point x="56" y="1388"/>
			<point x="56" y="1388"/>
			<point x="56" y="1388" type="curve"/>
			<point x="566" y="732" type="line"/>
			<point x="28" y="0" type="line"/>
			<point x="28" y="0"/>
			<point x="28" y="0"/>
			<point x="28" y="0" type="curve"/>
			<point x="28" y="0"/>
			<point x="28" y="0"/>
			<point x="28" y="0" type="curve"/>
			<point x="220" y="0" type="line"/>
			<point x="220" y="0"/>
			<point x="220" y="0"/>
			<point x="220" y="0" type="curve"/>
			<point x="652" y="612" type="line"/>
			<point x="1096" y="0" type="line"/>
			<point x="1096" y="0"/>
			<point x="1096" y="0"/>
			<point x="1096" y="0" type="curve"/>
			<point x="1304" y="0" type="line"/>
			<point x="1304" y="0"/>
			<point x="1304" y="0"/>
			<point x="1304" y="0" type="curve"/>
			<point x="1304" y="0"/>
			<point x="1304" y="0"/>
			<point x="1304" y="0" type="curve"/>
		</contour>
	</outline>
</glyph>
<glyph name="Y" format="2">
	<unicode hex="0059"/>
	<advance width="666"/>
	<outline>
		<contour>
			<point x="290" y="278" type="line"/>
			<point x="290" y="0" type="line"/>
			<point x="290" y="0"/>
			<point x="290" y="0"/>
			<point x="290" y="0" type="curve"/>
			<point x="376" y="0" type="line"/>
			<point x="376" y="0"/>
			<point x="376" y="0"/>
			<point x="376" y="0" type="curve"/>
			<point x="376" y="277" type="line"/>
			<point x="663" y="694" type="line"/>
			<point x="663" y="694"/>
			<point x="663" y="694"/>
			<point x="663" y="694" type="curve"/>
			<point x="663" y="694"/>
			<point x="663" y="694"/>
			<point x="663" y="694" type="curve"/>
			<point x="575" y="694" type="line"/>
			<point x="575" y="694"/>
			<point x="575" y="694"/>
			<point x="575" y="694" type="curve"/>
			<point x="420" y="468" type="line" smooth="yes"/>
			<point x="415" y="461"/>
			<point x="410" y="453"/>
			<point x="342" y="347" type="curve"/>
			<point x="323" y="378"/>
			<point x="323" y="380"/>
			<point x="306" y="404" type="curve" smooth="yes"/>
			<point x="108" y="694" type="line"/>
			<point x="108" y="694"/>
			<point x="108" y="694"/>
			<point x="108" y="694" type="curve"/>
			<point x="3" y="694" type="line"/>
			<point x="3" y="694"/>
			<point x="3" y="694"/>
			<point x="3" y="694" type="curve"/>
			<point x="3" y="694"/>
			<point x="3" y="694"/>
			<point x="3" y="694" type="curve"/>
		</contour>
	</outline>
</glyph>
<glyph name="Z" format="2">
	<unicode hex="005A"/>
	<advance width="1222"/>
	<outline>
		<contour>
			<point x="882" y="1266" type="curve"/>
			<point x="112" y="86" type="line"/>
			<point x="112" y="86"/>
			<point x="112" y="86"/>
			<point x="112" y="86" type="curve"/>
			<point x="112" y="0" type="line"/>
			<point x="112" y="0"/>
			<point x="112" y="0"/>
			<point x="112" y="0" type="curve"/>
			<point x="1120" y="0" type="line"/>
			<point x="1120" y="0"/>
			<point x="1120" y="0"/>
			<point x="1120" y="0" type="curve"/>
			<point x="1120" y="132" type="line"/>
			<point x="1120" y="132"/>
			<point x="1120" y="132"/>
			<point x="1120" y="132" type="curve"/>
			<point x="928" y="132" type="line" smooth="yes"/>
			<point x="754" y="132"/>
			<point x="576" y="128"/>
			<point x="338" y="128" type="curve"/>
			<point x="1108" y="1306" type="line"/>
			<point x="1108" y="1306"/>
			<point x="1108" y="1306"/>
			<point x="1108" y="1306" type="curve"/>
			<point x="1108" y="1388" type="line"/>
			<point x="1108" y="1388"/>
			<point x="1108" y="1388"/>
			<point x="1108" y="1388" type="curve"/>
			<point x="138" y="1388" type="line"/>
			<point x="138" y="1389"/>
			<point x="138" y="1389"/>
			<point x="138" y="1390" type="curve"/>
			<point x="138" y="1264" type="line"/>
			<point x="138" y="1264"/>
			<point x="138" y="1264"/>
			<point x="138" y="1264" type="curve"/>
			<point x="271" y="1264"/>
			<point x="404" y="1264"/>
			<point x="538" y="1264" type="curve" smooth="yes"/>
			<point x="562" y="1264"/>
			<point x="586" y="1264"/>
		</contour>
	</outline>
</glyph>
<glyph name="bracketleft" format="2">
	<unicode hex="005B"/>
	<advance width="288"/>
	<outline>
		<contour>
			<point x="174" y="-189" type="line"/>
			<point x="174" y="689" type="line"/>
			<point x="266" y="689" type="line"/>
			<point x="266" y="689"/>
			<point x="266" y="689"/>
			<point x="266" y="689" type="curve"/>
			<point x="266" y="750" type="line"/>
			<point x="266" y="750"/>
			<point x="266" y="750"/>
			<point x="266" y="750" type="curve"/>
			<point x="102" y="750" type="line"/>
			<point x="102" y="750"/>
			<point x="102" y="750"/>
			<point x="102" y="750" type="curve"/>
			<point x="102" y="-250" type="line"/>
			<point x="102" y="-250"/>
			<point x="102" y="-250"/>
			<point x="102" y="-250" type="curve"/>
			<point x="266" y="-250" type="line"/>
			<point x="266" y="-250"/>
			<point x="266" y="-250"/>
			<point x="266" y="-250" type="curve"/>
			<point x="266" y="-189" type="line"/>
			<point x="266" y="-189"/>
			<point x="266" y="-189"/>
			<point x="266" y="-189" type="curve"/>
		</contour>
	</outline>
</glyph>
<glyph name="bracketright" format="2">
  <advance width="288"/>
  <unicode hex="005D"/>
  <outline>
    <contour>
      <point x="186" y="750" type="line"/>
      <point x="22" y="750" type="line"/>
      <point x="22" y="689" type="line"/>
      <point x="114" y="689" type="line"/>
      <point x="114" y="-189" type="line"/>
      <point x="22" y="-189" type="line"/>
      <point x="22" y="-250" type="line"/>
      <point x="186" y="-250" type="line"/>
    </contour>
  </outline>
</glyph>
<glyph name="grave" format="2">
	<unicode hex="0060"/>
	<advance width="1000"/>
	<outline>
		<contour>
			<point x="466" y="1054" type="line"/>
			<point x="466" y="1054"/>
			<point x="466" y="1054"/>
			<point x="466" y="1054" type="curve"/>
			<point x="588" y="1054" type="line"/>
			<point x="588" y="1054"/>
			<point x="588" y="1054"/>
			<point x="588" y="1054" type="curve"/>
			<point x="588" y="1054"/>
			<point x="588" y="1054"/>
			<point x="588" y="1054" type="curve"/>
			<point x="322" y="1388" type="line"/>
			<point x="322" y="1388"/>
			<point x="322" y="1388"/>
			<point x="322" y="1388" type="curve"/>
			<point x="166" y="1388" type="line"/>
			<point x="166" y="1388"/>
			<point x="166" y="1388"/>
			<point x="166" y="1388" type="curve"/>
			<point x="166" y="1388"/>
			<point x="166" y="1388"/>
			<point x="166" y="1388" type="curve"/>
		</contour>
	</outline>
</glyph>
<glyph name="a" format="2">
	<unicode hex="0061"/>
	<advance width="960"/>
	<outline>
		<contour>
			<point x="798" y="578" type="line" smooth="yes"/>
			<point x="798" y="782"/>
			<point x="652" y="922"/>
			<point x="468" y="922" type="curve" smooth="yes"/>
			<point x="338" y="922"/>
			<point x="248" y="890"/>
			<point x="154" y="836" type="curve"/>
			<point x="154" y="836"/>
			<point x="154" y="836"/>
			<point x="154" y="836" type="curve"/>
			<point x="158" y="792"/>
			<point x="162" y="748"/>
			<point x="166" y="704" type="curve"/>
			<point x="166" y="704"/>
			<point x="166" y="704"/>
			<point x="166" y="704" type="curve"/>
			<point x="166" y="704"/>
			<point x="166" y="704"/>
			<point x="166" y="704" type="curve"/>
			<point x="270" y="778"/>
			<point x="370" y="804"/>
			<point x="468" y="804" type="curve" smooth="yes"/>
			<point x="562" y="804"/>
			<point x="642" y="724"/>
			<point x="642" y="576" type="curve" smooth="yes"/>
			<point x="642" y="490" type="line"/>
			<point x="342" y="486"/>
			<point x="88" y="402"/>
			<point x="88" y="226" type="curve" smooth="yes"/>
			<point x="88" y="140"/>
			<point x="142" y="-22"/>
			<point x="316" y="-22" type="curve" smooth="yes"/>
			<point x="344" y="-22"/>
			<point x="532" y="-18"/>
			<point x="648" y="72" type="curve"/>
			<point x="648" y="0" type="line"/>
			<point x="648" y="0"/>
			<point x="648" y="0"/>
			<point x="648" y="0" type="curve"/>
			<point x="798" y="0" type="line"/>
			<point x="798" y="0"/>
			<point x="798" y="0"/>
			<point x="798" y="0" type="curve"/>
		</contour>
		<contour>
			<point x="642" y="264" type="line" smooth="yes"/>
			<point x="642" y="226"/>
			<point x="642" y="176"/>
			<point x="574" y="138" type="curve" smooth="yes"/>
			<point x="516" y="102"/>
			<point x="440" y="100"/>
			<point x="418" y="100" type="curve" smooth="yes"/>
			<point x="322" y="100"/>
			<point x="232" y="146"/>
			<point x="232" y="230" type="curve" smooth="yes"/>
			<point x="232" y="370"/>
			<point x="556" y="384"/>
			<point x="642" y="388" type="curve"/>
		</contour>
	</outline>
</glyph>
<glyph name="b" format="2">
	<unicode hex="0062"/>
	<advance width="516"/>
	<outline>
		<contour>
			<point x="480" y="223" type="curve" smooth="yes"/>
			<point x="480" y="347"/>
			<point x="412" y="455"/>
			<point x="318" y="455" type="curve" smooth="yes"/>
			<point x="279" y="455"/>
			<point x="217" y="445"/>
			<point x="157" y="396" type="curve"/>
			<point x="157" y="694" type="line"/>
			<point x="157" y="694"/>
			<point x="157" y="694"/>
			<point x="157" y="694" type="curve"/>
			<point x="82" y="694" type="line"/>
			<point x="82" y="694"/>
			<point x="82" y="694"/>
			<point x="82" y="694" type="curve"/>
			<point x="82" y="0" type="line"/>
			<point x="82" y="0"/>
			<point x="82" y="0"/>
			<point x="82" y="0" type="curve"/>
			<point x="160" y="0" type="line"/>
			<point x="160" y="0"/>
			<point x="160" y="0"/>
			<point x="160" y="0" type="curve"/>
			<point x="160" y="46" type="line"/>
			<point x="184" y="24"/>
			<point x="227" y="-11"/>
			<point x="294" y="-11" type="curve" smooth="yes"/>
			<point x="394" y="-11"/>
			<point x="480" y="89"/>
		</contour>
		<contour>
			<point x="160" y="335" type="line"/>
			<point x="168.8224" y="348.2336"/>
			<point x="183.7256392" y="364.81166156"/>
			<point x="204.5420688633" y="377.0223427898" type="curve" smooth="yes"/>
			<point x="221.47759724" y="386.9565314"/>
			<point x="242.327" y="394"/>
			<point x="267" y="394" type="curve" smooth="yes"/>
			<point x="326" y="394"/>
			<point x="402" y="351"/>
			<point x="402" y="223" type="curve" smooth="yes"/>
			<point x="402" y="93"/>
			<point x="318" y="50"/>
			<point x="257" y="50" type="curve" smooth="yes"/>
			<point x="237.29915" y="50"/>
			<point x="219.129359135" y="54.593177405"/>
			<point x="202.7484322457" y="65.0685564184" type="curve" smooth="yes"/>
			<point x="186.70151218" y="75.33034263"/>
			<point x="172.37125" y="91.2369"/>
			<point x="160" y="114" type="curve"/>
		</contour>
	</outline>
</glyph>
<glyph name="c" format="2">
	<unicode hex="0063"/>
	<advance width="444"/>
	<outline>
		<contour>
			<point x="36" y="222" type="curve" smooth="yes"/>
			<point x="36" y="98"/>
			<point x="127" y="-11"/>
			<point x="252" y="-11" type="curve" smooth="yes"/>
			<point x="306" y="-11"/>
			<point x="361" y="3"/>
			<point x="415" y="40" type="curve"/>
			<point x="415" y="40"/>
			<point x="415" y="40"/>
			<point x="415" y="40" type="curve"/>
			<point x="413.002" y="62.311"/>
			<point x="411.004" y="84.622"/>
			<point x="409" y="107" type="curve"/>
			<point x="409" y="107"/>
			<point x="409" y="107"/>
			<point x="409" y="107" type="curve"/>
			<point x="409" y="107"/>
			<point x="409" y="107"/>
			<point x="409" y="107" type="curve"/>
			<point x="358" y="67"/>
			<point x="304" y="53"/>
			<point x="253" y="53" type="curve" smooth="yes"/>
			<point x="170" y="53"/>
			<point x="114" y="125"/>
			<point x="114" y="223" type="curve" smooth="yes"/>
			<point x="114" y="301"/>
			<point x="151" y="397"/>
			<point x="257" y="397" type="curve" smooth="yes"/>
			<point x="309" y="397"/>
			<point x="343" y="389"/>
			<point x="398" y="353" type="curve"/>
			<point x="398" y="353"/>
			<point x="398" y="353"/>
			<point x="398" y="353" type="curve"/>
			<point x="398" y="353"/>
			<point x="398" y="353"/>
			<point x="398" y="353" type="curve"/>
			<point x="401.996" y="374.645"/>
			<point x="405.992" y="396.29"/>
			<point x="410" y="418" type="curve"/>
			<point x="410" y="418"/>
			<point x="410" y="418"/>
			<point x="410" y="418" type="curve"/>
			<point x="351" y="452"/>
			<point x="317" y="461"/>
			<point x="256" y="461" type="curve" smooth="yes"/>
			<point x="117" y="461"/>
			<point x="36" y="340"/>
		</contour>
	</outline>
</glyph>
<glyph name="d" format="2">
  <advance width="516"/>
  <unicode hex="0064"/>
  <outline>
    <contour>
      <point x="36" y="222" type="curve" smooth="yes"/>
      <point x="36" y="91"/>
      <point x="113" y="-11"/>
      <point x="208" y="-11" type="curve" smooth="yes"/>
      <point x="241" y="-11"/>
      <point x="300" y="-2"/>
      <point x="356" y="52" type="curve"/>
      <point x="356" y="0" type="line"/>
      <point x="356" y="0" type="line"/>
      <point x="434" y="0" type="line"/>
      <point x="434" y="0" type="line"/>
      <point x="434" y="694" type="line"/>
      <point x="434" y="694" type="line"/>
      <point x="359" y="694" type="line"/>
      <point x="359" y="694" type="line"/>
      <point x="359" y="400" type="line"/>
      <point x="306" y="444"/>
      <point x="250" y="455"/>
      <point x="213" y="455" type="curve" smooth="yes"/>
      <point x="114" y="455"/>
      <point x="36" y="351"/>
    </contour>
    <contour>
      <point x="356" y="139" type="line" smooth="yes"/>
      <point x="356" y="125"/>
      <point x="355" y="107"/>
      <point x="323" y="78" type="curve" smooth="yes"/>
      <point x="300" y="58"/>
      <point x="275" y="50"/>
      <point x="249" y="50" type="curve" smooth="yes"/>
      <point x="187" y="50"/>
      <point x="114" y="97"/>
      <point x="114" y="221" type="curve" smooth="yes"/>
      <point x="114" y="353"/>
      <point x="200" y="394"/>
      <point x="259" y="394" type="curve" smooth="yes"/>
      <point x="304" y="394"/>
      <point x="334" y="371"/>
      <point x="356" y="339" type="curve"/>
    </contour>
  </outline>
</glyph>
<glyph name="e" format="2">
	<unicode hex="0065"/>
	<advance width="888"/>
	<outline>
		<contour>
			<point x="70" y="452" type="curve" smooth="yes"/>
			<point x="70" y="188"/>
			<point x="262" y="-22"/>
			<point x="502" y="-22" type="curve" smooth="yes"/>
			<point x="628" y="-22"/>
			<point x="742" y="26"/>
			<point x="820" y="82" type="curve"/>
			<point x="820" y="82"/>
			<point x="820" y="82"/>
			<point x="820" y="82" type="curve"/>
			<point x="816" y="125"/>
			<point x="812" y="169"/>
			<point x="808" y="212" type="curve"/>
			<point x="808" y="212"/>
			<point x="808" y="212"/>
			<point x="808" y="212" type="curve"/>
			<point x="808" y="212"/>
			<point x="808" y="212"/>
			<point x="808" y="212" type="curve"/>
			<point x="682" y="108"/>
			<point x="550" y="100"/>
			<point x="504" y="100" type="curve" smooth="yes"/>
			<point x="344" y="100"/>
			<point x="216" y="242"/>
			<point x="210" y="438" type="curve"/>
			<point x="828" y="438" type="line"/>
			<point x="828" y="438"/>
			<point x="828" y="438"/>
			<point x="828" y="438" type="curve"/>
			<point x="828" y="506"/>
			<point x="826" y="656"/>
			<point x="748" y="776" type="curve" smooth="yes"/>
			<point x="666" y="900"/>
			<point x="544" y="922"/>
			<point x="472" y="922" type="curve" smooth="yes"/>
			<point x="250" y="922"/>
			<point x="70" y="710"/>
		</contour>
		<contour>
			<point x="220" y="548" type="line"/>
			<point x="252" y="700"/>
			<point x="358" y="800"/>
			<point x="472" y="800" type="curve" smooth="yes"/>
			<point x="576" y="800"/>
			<point x="688" y="732"/>
			<point x="714" y="548" type="curve"/>
		</contour>
	</outline>
</glyph>
<glyph name="f" format="2">
	<unicode hex="0066"/>
	<advance width="610"/>
	<outline>
		<contour>
			<point x="202" y="888" type="line"/>
			<point x="54" y="888" type="line"/>
			<point x="54" y="888"/>
			<point x="54" y="888"/>
			<point x="54" y="888" type="curve"/>
			<point x="54" y="772" type="line"/>
			<point x="54" y="772"/>
			<point x="54" y="772"/>
			<point x="54" y="772" type="curve"/>
			<point x="202" y="772" type="line"/>
			<point x="202" y="0" type="line"/>
			<point x="202" y="0"/>
			<point x="202" y="0"/>
			<point x="202" y="0" type="curve"/>
			<point x="352" y="0" type="line"/>
			<point x="352" y="0"/>
			<point x="352" y="0"/>
			<point x="352" y="0" type="curve"/>
			<point x="352" y="772" type="line"/>
			<point x="572" y="772" type="line"/>
			<point x="572" y="772"/>
			<point x="572" y="772"/>
			<point x="572" y="772" type="curve"/>
			<point x="572" y="888" type="line"/>
			<point x="572" y="888"/>
			<point x="572" y="888"/>
			<point x="572" y="888" type="curve"/>
			<point x="346" y="888" type="line"/>
			<point x="346" y="1126" type="line" smooth="yes"/>
			<point x="346" y="1274"/>
			<point x="480" y="1288"/>
			<point x="532" y="1288" type="curve" smooth="yes"/>
			<point x="572" y="1288"/>
			<point x="626" y="1284"/>
			<point x="694" y="1254" type="curve"/>
			<point x="694" y="1254"/>
			<point x="694" y="1254"/>
			<point x="694" y="1254" type="curve"/>
			<point x="694" y="1254"/>
			<point x="694" y="1254"/>
			<point x="694" y="1254" type="curve"/>
			<point x="694" y="1388" type="line"/>
			<point x="694" y="1388"/>
			<point x="694" y="1388"/>
			<point x="694" y="1388" type="curve"/>
			<point x="670" y="1394"/>
			<point x="608" y="1410"/>
			<point x="534" y="1410" type="curve" smooth="yes"/>
			<point x="346" y="1410"/>
			<point x="202" y="1268"/>
			<point x="202" y="1068" type="curve" smooth="yes"/>
		</contour>
	</outline>
</glyph>
<glyph name="g" format="2">
	<unicode hex="0067"/>
	<advance width="1000"/>
	<outline>
		<contour>
			<point x="56" y="-142" type="curve" smooth="yes"/>
			<point x="56" y="-292"/>
			<point x="254" y="-412"/>
			<point x="498" y="-412" type="curve" smooth="yes"/>
			<point x="744" y="-412"/>
			<point x="942" y="-294"/>
			<point x="942" y="-140" type="curve" smooth="yes"/>
			<point x="942" y="138"/>
			<point x="608" y="138"/>
			<point x="530" y="138" type="curve" smooth="yes"/>
			<point x="354" y="138" type="line" smooth="yes"/>
			<point x="328" y="138"/>
			<point x="238" y="138"/>
			<point x="238" y="244" type="curve" smooth="yes"/>
			<point x="238" y="266"/>
			<point x="246" y="298"/>
			<point x="260" y="316" type="curve"/>
			<point x="302" y="286"/>
			<point x="368" y="258"/>
			<point x="442" y="258" type="curve" smooth="yes"/>
			<point x="622" y="258"/>
			<point x="762" y="406"/>
			<point x="762" y="584" type="curve" smooth="yes"/>
			<point x="762" y="680"/>
			<point x="720" y="750"/>
			<point x="698" y="780" type="curve"/>
			<point x="764" y="788"/>
			<point x="866" y="794"/>
			<point x="970" y="784" type="curve"/>
			<point x="970" y="784"/>
			<point x="970" y="784"/>
			<point x="970" y="784" type="curve"/>
			<point x="970" y="784"/>
			<point x="970" y="784"/>
			<point x="970" y="784" type="curve"/>
			<point x="963" y="826"/>
			<point x="955" y="868"/>
			<point x="948" y="910" type="curve"/>
			<point x="948" y="910"/>
			<point x="948" y="910"/>
			<point x="948" y="910" type="curve"/>
			<point x="808" y="910"/>
			<point x="692" y="872"/>
			<point x="632" y="846" type="curve"/>
			<point x="590" y="880"/>
			<point x="522" y="910"/>
			<point x="442" y="910" type="curve" smooth="yes"/>
			<point x="270" y="910"/>
			<point x="124" y="766"/>
			<point x="124" y="584" type="curve" smooth="yes"/>
			<point x="124" y="510"/>
			<point x="150" y="438"/>
			<point x="190" y="386" type="curve"/>
			<point x="132" y="304"/>
			<point x="132" y="226"/>
			<point x="132" y="216" type="curve" smooth="yes"/>
			<point x="132" y="164"/>
			<point x="150" y="106"/>
			<point x="184" y="64" type="curve"/>
			<point x="80" y="2"/>
			<point x="56" y="-90"/>
		</contour>
		<contour>
			<point x="442" y="372" type="curve" smooth="yes"/>
			<point x="368" y="372"/>
			<point x="264" y="418"/>
			<point x="264" y="584" type="curve" smooth="yes"/>
			<point x="264" y="750"/>
			<point x="368" y="796"/>
			<point x="442" y="796" type="curve" smooth="yes"/>
			<point x="528" y="796"/>
			<point x="622" y="740"/>
			<point x="622" y="584" type="curve" smooth="yes"/>
			<point x="622" y="428"/>
			<point x="528" y="372"/>
		</contour>
		<contour>
			<point x="532" y="-6" type="line" smooth="yes"/>
			<point x="576" y="-6"/>
			<point x="802" y="-6"/>
			<point x="802" y="-144" type="curve" smooth="yes"/>
			<point x="802" y="-232"/>
			<point x="664" y="-298"/>
			<point x="500" y="-298" type="curve" smooth="yes"/>
			<point x="338" y="-298"/>
			<point x="196" y="-236"/>
			<point x="196" y="-142" type="curve" smooth="yes"/>
			<point x="196" y="-136"/>
			<point x="196" y="-6"/>
			<point x="352" y="-6" type="curve" smooth="yes"/>
		</contour>
	</outline>
</glyph>
<glyph name="h" format="2">
	<unicode hex="0068"/>
	<advance width="1032"/>
	<outline>
		<contour>
			<point x="870" y="596" type="line" smooth="yes"/>
			<point x="870" y="728"/>
			<point x="840" y="910"/>
			<point x="596" y="910" type="curve" smooth="yes"/>
			<point x="472" y="910"/>
			<point x="376" y="848"/>
			<point x="312" y="766" type="curve"/>
			<point x="312" y="766" type="line"/>
			<point x="312" y="1388" type="line"/>
			<point x="312" y="1388"/>
			<point x="312" y="1388"/>
			<point x="312" y="1388" type="curve"/>
			<point x="162" y="1388" type="line"/>
			<point x="162" y="1388"/>
			<point x="162" y="1388"/>
			<point x="162" y="1388" type="curve"/>
			<point x="162" y="0" type="line"/>
			<point x="162" y="0"/>
			<point x="162" y="0"/>
			<point x="162" y="0" type="curve"/>
			<point x="318" y="0" type="line"/>
			<point x="318" y="0"/>
			<point x="318" y="0"/>
			<point x="318" y="0" type="curve"/>
			<point x="318" y="490" type="line" smooth="yes"/>
			<point x="318" y="622"/>
			<point x="368" y="788"/>
			<point x="520" y="788" type="curve" smooth="yes"/>
			<point x="712" y="788"/>
			<point x="714" y="646"/>
			<point x="714" y="582" type="curve" smooth="yes"/>
			<point x="714" y="0" type="line"/>
			<point x="714" y="0"/>
			<point x="714" y="0"/>
			<point x="714" y="0" type="curve"/>
			<point x="870" y="0" type="line"/>
			<point x="870" y="0"/>
			<point x="870" y="0"/>
			<point x="870" y="0" type="curve"/>
		</contour>
	</outline>
</glyph>
<glyph name="i" format="2">
	<unicode hex="0069"/>
	<advance width="476"/>
	<outline>
		<contour>
			<point x="148" y="1360" type="curve"/>
			<point x="148" y="1182" type="line"/>
			<point x="148" y="1182"/>
			<point x="148" y="1182"/>
			<point x="148" y="1182" type="curve"/>
			<point x="326" y="1182" type="line"/>
			<point x="326" y="1182"/>
			<point x="326" y="1182"/>
			<point x="326" y="1182" type="curve"/>
			<point x="326" y="1360" type="line"/>
			<point x="326" y="1360"/>
			<point x="326" y="1360"/>
			<point x="326" y="1360" type="curve"/>
			<point x="148" y="1360" type="line"/>
			<point x="148" y="1360"/>
			<point x="148" y="1360"/>
		</contour>
		<contour>
			<point x="162" y="888" type="curve"/>
			<point x="162" y="0" type="line"/>
			<point x="162" y="0"/>
			<point x="162" y="0"/>
			<point x="162" y="0" type="curve"/>
			<point x="312" y="0" type="line"/>
			<point x="312" y="0"/>
			<point x="312" y="0"/>
			<point x="312" y="0" type="curve"/>
			<point x="312" y="888" type="line"/>
			<point x="312" y="888"/>
			<point x="312" y="888"/>
			<point x="312" y="888" type="curve"/>
			<point x="162" y="888" type="line"/>
			<point x="162" y="888"/>
			<point x="162" y="888"/>
		</contour>
	</outline>
</glyph>
<glyph name="j" format="2">
  <advance width="266"/>
  <unicode hex="006A"/>
  <outline>
    <contour>
      <point x="184" y="680" type="line"/>
      <point x="95" y="680" type="line"/>
      <point x="95" y="591" type="line"/>
      <point x="184" y="591" type="line"/>
    </contour>
    <contour>
      <point x="-61" y="-171" type="line"/>
      <point x="-13" y="-199"/>
      <point x="33" y="-205"/>
      <point x="59" y="-205" type="curve" smooth="yes"/>
      <point x="122" y="-205"/>
      <point x="184" y="-153"/>
      <point x="184" y="-59" type="curve" smooth="yes"/>
      <point x="184" y="444" type="line"/>
      <point x="109" y="444" type="line"/>
      <point x="109" y="-68" type="line" smooth="yes"/>
      <point x="109.0" y="-93.43616"/>
      <point x="101.10207232" y="-110.184599552"/>
      <point x="89.82630838308044" y="-121.13315484296805" type="curve" smooth="yes"/>
      <point x="72.7310881792" y="-137.7322930176"/>
      <point x="47.87168000000001" y="-141.0"/>
      <point x="31" y="-141" type="curve" smooth="yes"/>
      <point x="2" y="-141"/>
      <point x="-24" y="-130"/>
      <point x="-46" y="-110" type="curve"/>
    </contour>
  </outline>
</glyph>
<glyph name="k" format="2">
	<unicode hex="006B"/>
	<advance width="488"/>
	<outline>
		<contour>
			<point x="281" y="272" type="line"/>
			<point x="449" y="444" type="line"/>
			<point x="449" y="444"/>
			<point x="449" y="444"/>
			<point x="449" y="444" type="curve"/>
			<point x="449" y="444"/>
			<point x="449" y="444"/>
			<point x="449" y="444" type="curve"/>
			<point x="359" y="444" type="line"/>
			<point x="359" y="444"/>
			<point x="359" y="444"/>
			<point x="359" y="444" type="curve"/>
			<point x="156" y="236" type="line"/>
			<point x="156" y="694" type="line"/>
			<point x="156" y="694"/>
			<point x="156" y="694"/>
			<point x="156" y="694" type="curve"/>
			<point x="84" y="694" type="line"/>
			<point x="84" y="694"/>
			<point x="84" y="694"/>
			<point x="84" y="694" type="curve"/>
			<point x="84" y="0" type="line"/>
			<point x="84" y="0"/>
			<point x="84" y="0"/>
			<point x="84" y="0" type="curve"/>
			<point x="153" y="0" type="line"/>
			<point x="153" y="0"/>
			<point x="153" y="0"/>
			<point x="153" y="0" type="curve"/>
			<point x="153" y="141" type="line"/>
			<point x="233" y="224" type="line"/>
			<point x="389" y="0" type="line"/>
			<point x="389" y="0"/>
			<point x="389" y="0"/>
			<point x="389" y="0" type="curve"/>
			<point x="471" y="0" type="line"/>
			<point x="471" y="0"/>
			<point x="471" y="0"/>
			<point x="471" y="0" type="curve"/>
			<point x="471" y="0"/>
			<point x="471" y="0"/>
			<point x="471" y="0" type="curve"/>
		</contour>
	</outline>
</glyph>
<glyph name="l" format="2">
	<unicode hex="006C"/>
	<advance width="476"/>
	<outline>
		<contour>
			<point x="162" y="1388" type="curve"/>
			<point x="162" y="0" type="line"/>
			<point x="162" y="0"/>
			<point x="162" y="0"/>
			<point x="162" y="0" type="curve"/>
			<point x="312" y="0" type="line"/>
			<point x="312" y="0"/>
			<point x="312" y="0"/>
			<point x="312" y="0" type="curve"/>
			<point x="312" y="1388" type="line"/>
			<point x="312" y="1388"/>
			<point x="312" y="1388"/>
			<point x="312" y="1388" type="curve"/>
			<point x="162" y="1388" type="line"/>
			<point x="162" y="1388"/>
			<point x="162" y="1388"/>
		</contour>
	</outline>
</glyph>
<glyph name="m" format="2">
	<unicode hex="006D"/>
	<advance width="1588"/>
	<outline>
		<contour>
			<point x="1426" y="596" type="line" smooth="yes"/>
			<point x="1426" y="730"/>
			<point x="1394" y="910"/>
			<point x="1152" y="910" type="curve" smooth="yes"/>
			<point x="1032" y="910"/>
			<point x="928" y="854"/>
			<point x="854" y="746" type="curve"/>
			<point x="802" y="898"/>
			<point x="662" y="910"/>
			<point x="598" y="910" type="curve" smooth="yes"/>
			<point x="454" y="910"/>
			<point x="360" y="828"/>
			<point x="306" y="756" type="curve"/>
			<point x="306" y="756" type="line"/>
			<point x="306" y="900" type="line"/>
			<point x="306" y="900"/>
			<point x="306" y="900"/>
			<point x="306" y="900" type="curve"/>
			<point x="162" y="900" type="line"/>
			<point x="162" y="900"/>
			<point x="162" y="900"/>
			<point x="162" y="900" type="curve"/>
			<point x="162" y="0" type="line"/>
			<point x="162" y="0"/>
			<point x="162" y="0"/>
			<point x="162" y="0" type="curve"/>
			<point x="318" y="0" type="line"/>
			<point x="318" y="0"/>
			<point x="318" y="0"/>
			<point x="318" y="0" type="curve"/>
			<point x="318" y="490" type="line" smooth="yes"/>
			<point x="318" y="626"/>
			<point x="372" y="788"/>
			<point x="520" y="788" type="curve" smooth="yes"/>
			<point x="706" y="788"/>
			<point x="716" y="658"/>
			<point x="716" y="582" type="curve" smooth="yes"/>
			<point x="716" y="0" type="line"/>
			<point x="716" y="0"/>
			<point x="716" y="0"/>
			<point x="716" y="0" type="curve"/>
			<point x="872" y="0" type="line"/>
			<point x="872" y="0"/>
			<point x="872" y="0"/>
			<point x="872" y="0" type="curve"/>
			<point x="872" y="490" type="line" smooth="yes"/>
			<point x="872" y="626"/>
			<point x="926" y="788"/>
			<point x="1074" y="788" type="curve" smooth="yes"/>
			<point x="1260" y="788"/>
			<point x="1270" y="658"/>
			<point x="1270" y="582" type="curve" smooth="yes"/>
			<point x="1270" y="0" type="line"/>
			<point x="1270" y="0"/>
			<point x="1270" y="0"/>
			<point x="1270" y="0" type="curve"/>
			<point x="1426" y="0" type="line"/>
			<point x="1426" y="0"/>
			<point x="1426" y="0"/>
			<point x="1426" y="0" type="curve"/>
		</contour>
	</outline>
</glyph>
<glyph name="n" format="2">
	<unicode hex="006E"/>
	<advance width="1032"/>
	<outline>
		<contour>
			<point x="870" y="596" type="line" smooth="yes"/>
			<point x="870" y="728"/>
			<point x="840" y="910"/>
			<point x="596" y="910" type="curve" smooth="yes"/>
			<point x="416" y="910"/>
			<point x="318" y="774"/>
			<point x="306" y="758" type="curve"/>
			<point x="306" y="758" type="line"/>
			<point x="306" y="900" type="line"/>
			<point x="306" y="900"/>
			<point x="306" y="900"/>
			<point x="306" y="900" type="curve"/>
			<point x="162" y="900" type="line"/>
			<point x="162" y="900"/>
			<point x="162" y="900"/>
			<point x="162" y="900" type="curve"/>
			<point x="162" y="0" type="line"/>
			<point x="162" y="0"/>
			<point x="162" y="0"/>
			<point x="162" y="0" type="curve"/>
			<point x="318" y="0" type="line"/>
			<point x="318" y="0"/>
			<point x="318" y="0"/>
			<point x="318" y="0" type="curve"/>
			<point x="318" y="490" type="line" smooth="yes"/>
			<point x="318" y="622"/>
			<point x="368" y="788"/>
			<point x="520" y="788" type="curve" smooth="yes"/>
			<point x="712" y="788"/>
			<point x="714" y="646"/>
			<point x="714" y="582" type="curve" smooth="yes"/>
			<point x="714" y="0" type="line"/>
			<point x="714" y="0"/>
			<point x="714" y="0"/>
			<point x="714" y="0" type="curve"/>
			<point x="870" y="0" type="line"/>
			<point x="870" y="0"/>
			<point x="870" y="0"/>
			<point x="870" y="0" type="curve"/>
		</contour>
	</outline>
</glyph>
<glyph name="o" format="2">
	<unicode hex="006F"/>
	<advance width="1000"/>
	<outline>
		<contour>
			<point x="938" y="440" type="curve" smooth="yes"/>
			<point x="938" y="708"/>
			<point x="738" y="922"/>
			<point x="500" y="922" type="curve" smooth="yes"/>
			<point x="254" y="922"/>
			<point x="60" y="702"/>
			<point x="60" y="440" type="curve" smooth="yes"/>
			<point x="60" y="176"/>
			<point x="264" y="-22"/>
			<point x="498" y="-22" type="curve" smooth="yes"/>
			<point x="738" y="-22"/>
			<point x="938" y="180"/>
		</contour>
		<contour>
			<point x="498" y="106" type="curve" smooth="yes"/>
			<point x="360" y="106"/>
			<point x="216" y="218"/>
			<point x="216" y="460" type="curve" smooth="yes"/>
			<point x="216" y="702"/>
			<point x="368" y="800"/>
			<point x="498" y="800" type="curve" smooth="yes"/>
			<point x="638" y="800"/>
			<point x="782" y="696"/>
			<point x="782" y="460" type="curve" smooth="yes"/>
			<point x="782" y="224"/>
			<point x="646" y="106"/>
		</contour>
	</outline>
</glyph>
<glyph name="p" format="2">
  <advance width="516"/>
  <unicode hex="0070"/>
  <outline>
    <contour>
      <point x="160" y="46" type="line"/>
      <point x="191" y="17"/>
      <point x="235" y="-11"/>
      <point x="295" y="-11" type="curve" smooth="yes"/>
      <point x="392" y="-11"/>
      <point x="480" y="87"/>
      <point x="480" y="223" type="curve" smooth="yes"/>
      <point x="480" y="343"/>
      <point x="417" y="455"/>
      <point x="321" y="455" type="curve" smooth="yes"/>
      <point x="261" y="455"/>
      <point x="203" y="434"/>
      <point x="157" y="395" type="curve"/>
      <point x="157" y="444" type="line"/>
      <point x="82" y="444" type="line"/>
      <point x="82" y="-194" type="line"/>
      <point x="160" y="-194" type="line"/>
    </contour>
    <contour>
      <point x="160" y="333" type="line"/>
      <point x="184" y="368"/>
      <point x="223" y="391"/>
      <point x="266" y="391" type="curve" smooth="yes"/>
      <point x="342" y="391"/>
      <point x="402" y="315"/>
      <point x="402" y="223" type="curve" smooth="yes"/>
      <point x="402" y="120"/>
      <point x="331" y="50"/>
      <point x="256" y="50" type="curve" smooth="yes"/>
      <point x="217" y="50"/>
      <point x="190" y="70"/>
      <point x="170" y="97" type="curve" smooth="yes"/>
      <point x="160" y="112"/>
      <point x="160" y="114"/>
      <point x="160" y="132" type="curve" smooth="yes"/>
    </contour>
  </outline>
</glyph>
<glyph name="q" format="2">
	<unicode hex="0071"/>
	<advance width="1032"/>
	<outline>
		<contour>
			<point x="712" y="100" type="curve"/>
			<point x="712" y="-388" type="line"/>
			<point x="712" y="-388"/>
			<point x="712" y="-388"/>
			<point x="712" y="-388" type="curve"/>
			<point x="868" y="-388" type="line"/>
			<point x="868" y="-388"/>
			<point x="868" y="-388"/>
			<point x="868" y="-388" type="curve"/>
			<point x="868" y="910" type="line"/>
			<point x="868" y="910"/>
			<point x="868" y="910"/>
			<point x="868" y="910" type="curve"/>
			<point x="718" y="910" type="line"/>
			<point x="718" y="910"/>
			<point x="718" y="910"/>
			<point x="718" y="910" type="curve"/>
			<point x="718" y="774" type="line"/>
			<point x="698" y="800"/>
			<point x="600" y="910"/>
			<point x="444" y="910" type="curve" smooth="yes"/>
			<point x="244" y="910"/>
			<point x="72" y="712"/>
			<point x="72" y="442" type="curve" smooth="yes"/>
			<point x="72" y="188"/>
			<point x="218" y="-22"/>
			<point x="410" y="-22" type="curve" smooth="yes"/>
			<point x="522" y="-22"/>
			<point x="628" y="24"/>
		</contour>
		<contour>
			<point x="718" y="280" type="line" smooth="yes"/>
			<point x="718" y="244"/>
			<point x="718" y="240"/>
			<point x="698" y="214" type="curve"/>
			<point x="646" y="134"/>
			<point x="572" y="100"/>
			<point x="500" y="100" type="curve" smooth="yes"/>
			<point x="348" y="100"/>
			<point x="228" y="256"/>
			<point x="228" y="442" type="curve" smooth="yes"/>
			<point x="228" y="646"/>
			<point x="372" y="782"/>
			<point x="518" y="782" type="curve" smooth="yes"/>
			<point x="572" y="782"/>
			<point x="614" y="760"/>
			<point x="646" y="729" type="curve" smooth="yes"/>
			<point x="695" y="681"/>
			<point x="718" y="609"/>
			<point x="718" y="560" type="curve" smooth="yes"/>
		</contour>
	</outline>
</glyph>
<glyph name="r" format="2">
	<unicode hex="0072"/>
	<advance width="341"/>
	<outline>
		<contour>
			<point x="157" y="214" type="line" smooth="yes"/>
			<point x="157" y="314"/>
			<point x="229" y="386"/>
			<point x="327" y="388" type="curve"/>
			<point x="327" y="388"/>
			<point x="327" y="388"/>
			<point x="327" y="388" type="curve"/>
			<point x="327" y="455" type="line"/>
			<point x="327" y="455"/>
			<point x="327" y="455"/>
			<point x="327" y="455" type="curve"/>
			<point x="238" y="454"/>
			<point x="183" y="405"/>
			<point x="152" y="359" type="curve"/>
			<point x="152" y="359" type="line"/>
			<point x="152" y="450" type="line"/>
			<point x="152" y="450"/>
			<point x="152" y="450"/>
			<point x="152" y="450" type="curve"/>
			<point x="82" y="450" type="line"/>
			<point x="82" y="450"/>
			<point x="82" y="450"/>
			<point x="82" y="450" type="curve"/>
			<point x="82" y="0" type="line"/>
			<point x="82" y="0"/>
			<point x="82" y="0"/>
			<point x="82" y="0" type="curve"/>
			<point x="157" y="0" type="line"/>
			<point x="157" y="0"/>
			<point x="157" y="0"/>
			<point x="157" y="0" type="curve"/>
		</contour>
	</outline>
</glyph>
<glyph name="s" format="2">
	<unicode hex="0073"/>
	<advance width="383"/>
	<outline>
		<contour>
			<point x="360" y="128" type="curve" smooth="yes"/>
			<point x="360" y="178"/>
			<point x="328" y="213"/>
			<point x="321" y="220" type="curve" smooth="yes"/>
			<point x="287" y="252"/>
			<point x="255" y="261"/>
			<point x="205" y="270" type="curve" smooth="yes"/>
			<point x="150" y="281"/>
			<point x="104" y="291"/>
			<point x="104" y="340" type="curve" smooth="yes"/>
			<point x="104" y="402"/>
			<point x="176" y="402"/>
			<point x="189" y="402" type="curve" smooth="yes"/>
			<point x="221" y="402"/>
			<point x="274" y="398"/>
			<point x="331" y="364" type="curve"/>
			<point x="331" y="364"/>
			<point x="331" y="364"/>
			<point x="331" y="364" type="curve"/>
			<point x="331" y="364"/>
			<point x="331" y="364"/>
			<point x="331" y="364" type="curve"/>
			<point x="334.996" y="385.645"/>
			<point x="338.992" y="407.29"/>
			<point x="343" y="429" type="curve"/>
			<point x="320.25" y="439.5"/>
			<point x="299.60546875" y="446.9375"/>
			<point x="279.3078613281" y="451.982421875" type="curve" smooth="yes"/>
			<point x="253.2109375" y="458.46875"/>
			<point x="227.6875" y="461"/>
			<point x="199" y="461" type="curve" smooth="yes"/>
			<point x="174" y="461"/>
			<point x="33" y="461"/>
			<point x="33" y="330" type="curve" smooth="yes"/>
			<point x="33" y="281"/>
			<point x="62" y="249"/>
			<point x="87" y="230" type="curve" smooth="yes"/>
			<point x="118" y="208"/>
			<point x="140" y="204"/>
			<point x="195" y="193" type="curve" smooth="yes"/>
			<point x="231" y="186"/>
			<point x="289" y="174"/>
			<point x="289" y="121" type="curve" smooth="yes"/>
			<point x="289" y="52"/>
			<point x="210" y="52"/>
			<point x="195" y="52" type="curve" smooth="yes"/>
			<point x="114" y="52"/>
			<point x="58" y="89"/>
			<point x="40" y="101" type="curve"/>
			<point x="40" y="101"/>
			<point x="40" y="101"/>
			<point x="40" y="101" type="curve"/>
			<point x="40" y="101"/>
			<point x="40" y="101"/>
			<point x="40" y="101" type="curve"/>
			<point x="36.004" y="78.356"/>
			<point x="32.008" y="55.712"/>
			<point x="28" y="33" type="curve"/>
			<point x="48" y="23"/>
			<point x="76.984375" y="8.3125"/>
			<point x="115.685546875" y="-1.296875" type="curve" smooth="yes"/>
			<point x="138.90625" y="-7.0625"/>
			<point x="165.625" y="-11"/>
			<point x="196" y="-11" type="curve" smooth="yes"/>
			<point x="214" y="-11"/>
			<point x="269" y="-11"/>
			<point x="312" y="21" type="curve" smooth="yes"/>
			<point x="343" y="45"/>
			<point x="360" y="85"/>
		</contour>
	</outline>
</glyph>
<glyph name="t" format="2">
	<unicode hex="0074"/>
	<advance width="361"/>
	<outline>
		<contour>
			<point x="175" y="386" type="line"/>
			<point x="316" y="386" type="line"/>
			<point x="316" y="386"/>
			<point x="316" y="386"/>
			<point x="316" y="386" type="curve"/>
			<point x="316" y="444" type="line"/>
			<point x="316" y="444"/>
			<point x="316" y="444"/>
			<point x="316" y="444" type="curve"/>
			<point x="175" y="444" type="line"/>
			<point x="175" y="571" type="line"/>
			<point x="175" y="571"/>
			<point x="175" y="571"/>
			<point x="175" y="571" type="curve"/>
			<point x="106" y="571" type="line"/>
			<point x="106" y="571"/>
			<point x="106" y="571"/>
			<point x="106" y="571" type="curve"/>
			<point x="106" y="444" type="line"/>
			<point x="19" y="444" type="line"/>
			<point x="19" y="444"/>
			<point x="19" y="444"/>
			<point x="19" y="444" type="curve"/>
			<point x="19" y="386" type="line"/>
			<point x="19" y="386"/>
			<point x="19" y="386"/>
			<point x="19" y="386" type="curve"/>
			<point x="103" y="386" type="line"/>
			<point x="103" y="119" type="line" smooth="yes"/>
			<point x="103" y="59"/>
			<point x="117" y="-11"/>
			<point x="186" y="-11" type="curve" smooth="yes"/>
			<point x="256" y="-11"/>
			<point x="307" y="14"/>
			<point x="332" y="27" type="curve"/>
			<point x="332" y="27"/>
			<point x="332" y="27"/>
			<point x="332" y="27" type="curve"/>
			<point x="326.672" y="46.647"/>
			<point x="321.344" y="66.294"/>
			<point x="316" y="86" type="curve"/>
			<point x="316" y="86"/>
			<point x="316" y="86"/>
			<point x="316" y="86" type="curve"/>
			<point x="316" y="86"/>
			<point x="316" y="86"/>
			<point x="316" y="86" type="curve"/>
			<point x="290" y="65"/>
			<point x="258" y="53"/>
			<point x="226" y="53" type="curve" smooth="yes"/>
			<point x="189" y="53"/>
			<point x="175" y="83"/>
			<point x="175" y="136" type="curve" smooth="yes"/>
		</contour>
	</outline>
</glyph>
<glyph name="u" format="2">
	<unicode hex="0075"/>
	<advance width="1032"/>
	<outline>
		<contour>
			<point x="374" y="-22" type="curve" smooth="yes"/>
			<point x="480" y="-22"/>
			<point x="622" y="10"/>
			<point x="720" y="96" type="curve"/>
			<point x="720" y="0" type="line"/>
			<point x="720" y="0"/>
			<point x="720" y="0"/>
			<point x="720" y="0" type="curve"/>
			<point x="870" y="0" type="line"/>
			<point x="870" y="0"/>
			<point x="870" y="0"/>
			<point x="870" y="0" type="curve"/>
			<point x="870" y="888" type="line"/>
			<point x="870" y="888"/>
			<point x="870" y="888"/>
			<point x="870" y="888" type="curve"/>
			<point x="714" y="888" type="line"/>
			<point x="714" y="888"/>
			<point x="714" y="888"/>
			<point x="714" y="888" type="curve"/>
			<point x="714" y="308" type="line" smooth="yes"/>
			<point x="714" y="158"/>
			<point x="602" y="88"/>
			<point x="474" y="88" type="curve" smooth="yes"/>
			<point x="332" y="88"/>
			<point x="318" y="140"/>
			<point x="318" y="226" type="curve" smooth="yes"/>
			<point x="318" y="888" type="line"/>
			<point x="318" y="888"/>
			<point x="318" y="888"/>
			<point x="318" y="888" type="curve"/>
			<point x="162" y="888" type="line"/>
			<point x="162" y="888"/>
			<point x="162" y="888"/>
			<point x="162" y="888" type="curve"/>
			<point x="162" y="218" type="line" smooth="yes"/>
			<point x="162" y="74"/>
			<point x="208" y="-22"/>
		</contour>
	</outline>
</glyph>
<glyph name="v" format="2">
	<unicode hex="0076"/>
	<advance width="922"/>
	<outline>
		<contour>
			<point x="372" y="0" type="line"/>
			<point x="372" y="0"/>
			<point x="372" y="0"/>
			<point x="372" y="0" type="curve"/>
			<point x="548" y="0" type="line"/>
			<point x="548" y="0"/>
			<point x="548" y="0"/>
			<point x="548" y="0" type="curve"/>
			<point x="892" y="888" type="line"/>
			<point x="892" y="888"/>
			<point x="892" y="888"/>
			<point x="892" y="888" type="curve"/>
			<point x="892" y="888"/>
			<point x="892" y="888"/>
			<point x="892" y="888" type="curve"/>
			<point x="742" y="888" type="line"/>
			<point x="742" y="888"/>
			<point x="742" y="888"/>
			<point x="742" y="888" type="curve"/>
			<point x="584" y="472" type="line" smooth="yes"/>
			<point x="542" y="362"/>
			<point x="480" y="200"/>
			<point x="464" y="106" type="curve"/>
			<point x="462" y="106" type="line"/>
			<point x="450" y="178"/>
			<point x="398" y="316"/>
			<point x="378" y="370" type="curve" smooth="yes"/>
			<point x="184" y="888" type="line"/>
			<point x="184" y="888"/>
			<point x="184" y="888"/>
			<point x="184" y="888" type="curve"/>
			<point x="28" y="888" type="line"/>
			<point x="28" y="888"/>
			<point x="28" y="888"/>
			<point x="28" y="888" type="curve"/>
			<point x="28" y="888"/>
			<point x="28" y="888"/>
			<point x="28" y="888" type="curve"/>
		</contour>
	</outline>
</glyph>
<glyph name="w" format="2">
	<unicode hex="0077"/>
	<advance width="1366"/>
	<outline>
		<contour>
			<point x="302" y="0" type="line"/>
			<point x="302" y="0"/>
			<point x="302" y="0"/>
			<point x="302" y="0" type="curve"/>
			<point x="460" y="0" type="line"/>
			<point x="460" y="0"/>
			<point x="460" y="0"/>
			<point x="460" y="0" type="curve"/>
			<point x="476" y="50"/>
			<point x="672" y="674"/>
			<point x="674" y="776" type="curve"/>
			<point x="676" y="776" type="line"/>
			<point x="680" y="720"/>
			<point x="714" y="582"/>
			<point x="740" y="496" type="curve" smooth="yes"/>
			<point x="789" y="331"/>
			<point x="837" y="166"/>
			<point x="886" y="0" type="curve"/>
			<point x="886" y="0"/>
			<point x="886" y="0"/>
			<point x="886" y="0" type="curve"/>
			<point x="1062" y="0" type="line"/>
			<point x="1062" y="0"/>
			<point x="1062" y="0"/>
			<point x="1062" y="0" type="curve"/>
			<point x="1336" y="888" type="line"/>
			<point x="1336" y="888"/>
			<point x="1336" y="888"/>
			<point x="1336" y="888" type="curve"/>
			<point x="1190" y="888" type="line"/>
			<point x="1190" y="888"/>
			<point x="1190" y="888"/>
			<point x="1190" y="888" type="curve"/>
			<point x="1147" y="747"/>
			<point x="1105" y="606"/>
			<point x="1062" y="464" type="curve" smooth="yes"/>
			<point x="1040" y="392"/>
			<point x="980" y="194"/>
			<point x="970" y="108" type="curve"/>
			<point x="968" y="108" type="line"/>
			<point x="960" y="170"/>
			<point x="910" y="348"/>
			<point x="876" y="462" type="curve" smooth="yes"/>
			<point x="746" y="888" type="line"/>
			<point x="746" y="888"/>
			<point x="746" y="888"/>
			<point x="746" y="888" type="curve"/>
			<point x="606" y="888" type="line"/>
			<point x="606" y="888"/>
			<point x="606" y="888"/>
			<point x="606" y="888" type="curve"/>
			<point x="470" y="442"/>
			<point x="402" y="212"/>
			<point x="394" y="110" type="curve"/>
			<point x="392" y="110" type="line"/>
			<point x="382" y="206"/>
			<point x="316" y="432"/>
			<point x="284" y="542" type="curve" smooth="yes"/>
			<point x="180" y="888" type="line"/>
			<point x="180" y="888"/>
			<point x="180" y="888"/>
			<point x="180" y="888" type="curve"/>
			<point x="28" y="888" type="line"/>
			<point x="28" y="888"/>
			<point x="28" y="888"/>
			<point x="28" y="888" type="curve"/>
		</contour>
	</outline>
</glyph>
<glyph name="x" format="2">
	<unicode hex="0078"/>
	<advance width="461"/>
	<outline>
		<contour>
			<point x="194" y="229" type="line"/>
			<point x="0" y="0" type="line"/>
			<point x="0" y="0"/>
			<point x="0" y="0"/>
			<point x="0" y="0" type="curve"/>
			<point x="0" y="0"/>
			<point x="0" y="0"/>
			<point x="0" y="0" type="curve"/>
			<point x="82" y="0" type="line"/>
			<point x="82" y="0"/>
			<point x="82" y="0"/>
			<point x="82" y="0" type="curve"/>
			<point x="227" y="188" type="line"/>
			<point x="377" y="0" type="line"/>
			<point x="377" y="0"/>
			<point x="377" y="0"/>
			<point x="377" y="0" type="curve"/>
			<point x="460" y="0" type="line"/>
			<point x="460" y="0"/>
			<point x="460" y="0"/>
			<point x="460" y="0" type="curve"/>
			<point x="460" y="0"/>
			<point x="460" y="0"/>
			<point x="460" y="0" type="curve"/>
			<point x="260" y="229" type="line"/>
			<point x="443" y="444" type="line"/>
			<point x="443" y="444"/>
			<point x="443" y="444"/>
			<point x="443" y="444" type="curve"/>
			<point x="443" y="444"/>
			<point x="443" y="444"/>
			<point x="443" y="444" type="curve"/>
			<point x="361" y="444" type="line"/>
			<point x="361" y="444"/>
			<point x="361" y="444"/>
			<point x="361" y="444" type="curve"/>
			<point x="316.378" y="389.055"/>
			<point x="271.756" y="334.11"/>
			<point x="227" y="279" type="curve"/>
			<point x="89" y="444" type="line"/>
			<point x="89" y="444"/>
			<point x="89" y="444"/>
			<point x="89" y="444" type="curve"/>
			<point x="6" y="444" type="line"/>
			<point x="6" y="444"/>
			<point x="6" y="444"/>
			<point x="6" y="444" type="curve"/>
			<point x="6" y="444"/>
			<point x="6" y="444"/>
			<point x="6" y="444" type="curve"/>
		</contour>
	</outline>
</glyph>
<glyph name="y" format="2">
	<unicode hex="0079"/>
	<advance width="461"/>
	<outline>
		<contour>
			<point x="446" y="444" type="line"/>
			<point x="446" y="444"/>
			<point x="446" y="444"/>
			<point x="446" y="444" type="curve"/>
			<point x="446" y="444"/>
			<point x="446" y="444"/>
			<point x="446" y="444" type="curve"/>
			<point x="371" y="444" type="line"/>
			<point x="371" y="444"/>
			<point x="371" y="444"/>
			<point x="371" y="444" type="curve"/>
			<point x="241" y="126"/>
			<point x="239" y="80"/>
			<point x="238" y="57" type="curve"/>
			<point x="237" y="57" type="line"/>
			<point x="231" y="124"/>
			<point x="151" y="310"/>
			<point x="93" y="444" type="curve"/>
			<point x="93" y="444"/>
			<point x="93" y="444"/>
			<point x="93" y="444" type="curve"/>
			<point x="14" y="444" type="line"/>
			<point x="14" y="444"/>
			<point x="14" y="444"/>
			<point x="14" y="444" type="curve"/>
			<point x="14" y="444"/>
			<point x="14" y="444"/>
			<point x="14" y="444" type="curve"/>
			<point x="208" y="0" type="line"/>
			<point x="198.676" y="-23.643"/>
			<point x="189.352" y="-47.286"/>
			<point x="180" y="-71" type="curve" smooth="yes"/>
			<point x="149" y="-149"/>
			<point x="129" y="-148"/>
			<point x="115" y="-148" type="curve" smooth="yes"/>
			<point x="99" y="-148"/>
			<point x="67" y="-144"/>
			<point x="37" y="-132" type="curve"/>
			<point x="37" y="-132"/>
			<point x="37" y="-132"/>
			<point x="37" y="-132" type="curve"/>
			<point x="37" y="-132"/>
			<point x="37" y="-132"/>
			<point x="37" y="-132" type="curve"/>
			<point x="38.998" y="-153.645"/>
			<point x="40.996" y="-175.29"/>
			<point x="43" y="-197" type="curve"/>
			<point x="65" y="-202"/>
			<point x="93" y="-205"/>
			<point x="115" y="-205" type="curve" smooth="yes"/>
			<point x="150" y="-205"/>
			<point x="187" y="-193"/>
			<point x="228" y="-91" type="curve" smooth="yes"/>
		</contour>
	</outline>
</glyph>
<glyph name="z" format="2">
  <advance width="434"/>
  <unicode hex="007A"/>
  <outline>
    <contour>
      <point x="400" y="405" type="line"/>
      <point x="400" y="444" type="line"/>
      <point x="42" y="444" type="line"/>
      <point x="42" y="385" type="line"/>
      <point x="181" y="385" type="line" smooth="yes"/>
      <point x="193" y="385"/>
      <point x="205" y="386"/>
      <point x="217" y="386" type="curve" smooth="yes"/>
      <point x="295" y="386" type="line"/>
      <point x="28" y="41" type="line"/>
      <point x="28" y="0" type="line"/>
      <point x="402" y="0" type="line"/>
      <point x="402" y="62" type="line"/>
      <point x="255" y="62" type="line" smooth="yes"/>
      <point x="243" y="62"/>
      <point x="231" y="61"/>
      <point x="219" y="61" type="curve" smooth="yes"/>
      <point x="134" y="61" type="line"/>
    </contour>
  </outline>
</glyph>
<glyph name="exclamdown" format="2">
	<unicode hex="00A1"/>
	<advance width="319"/>
	<outline>
		<contour>
			<point x="193" y="282" type="curve" smooth="yes"/>
			<point x="193" y="296"/>
			<point x="193" y="310.638"/>
			<point x="193" y="325" type="curve"/>
			<point x="193" y="325"/>
			<point x="193" y="325"/>
			<point x="193" y="325" type="curve"/>
			<point x="126" y="325" type="line"/>
			<point x="126" y="325"/>
			<point x="126" y="325"/>
			<point x="126" y="325" type="curve"/>
			<point x="126" y="310.681"/>
			<point x="126" y="296"/>
			<point x="126" y="282" type="curve" smooth="yes"/>
			<point x="126" y="123"/>
			<point x="120.672" y="-35.016"/>
			<point x="118" y="-194" type="curve"/>
			<point x="118" y="-194"/>
			<point x="118" y="-194"/>
			<point x="118" y="-194" type="curve"/>
			<point x="201" y="-194" type="line"/>
			<point x="201" y="-194"/>
			<point x="201" y="-194"/>
			<point x="201" y="-194" type="curve"/>
			<point x="198.336" y="-35.492"/>
			<point x="193" y="123"/>
		</contour>
		<contour>
			<point x="201" y="500" type="line"/>
			<point x="201" y="500"/>
			<point x="201" y="500"/>
			<point x="201" y="500" type="curve"/>
			<point x="118" y="500" type="line"/>
			<point x="118" y="500"/>
			<point x="118" y="500"/>
			<point x="118" y="500" type="curve"/>
			<point x="118" y="417" type="line"/>
			<point x="118" y="417"/>
			<point x="118" y="417"/>
			<point x="118" y="417" type="curve"/>
			<point x="201" y="417" type="line"/>
			<point x="201" y="417"/>
			<point x="201" y="417"/>
			<point x="201" y="417" type="curve"/>
		</contour>
	</outline>
</glyph>
<glyph name="dieresis" format="2">
	<unicode hex="00A8"/>
	<advance width="500"/>
	<outline>
		<contour>
			<point x="194" y="680" type="line"/>
			<point x="111" y="680" type="line"/>
			<point x="111" y="597" type="line"/>
			<point x="194" y="597" type="line"/>
		</contour>
		<contour>
			<point x="388" y="680" type="line"/>
			<point x="305" y="680" type="line"/>
			<point x="305" y="597" type="line"/>
			<point x="388" y="597" type="line"/>
		</contour>
	</outline>
</glyph>
<glyph name="macron" format="2">
  <advance width="500"/>
  <unicode hex="00AF"/>
  <outline>
    <contour>
      <point x="430" y="567" type="line"/>
      <point x="430" y="631" type="line"/>
      <point x="69" y="631" type="line"/>
      <point x="69" y="567" type="line"/>
    </contour>
  </outline>
</glyph>
<glyph name="acute" format="2">
	<unicode hex="00B4"/>
	<advance width="500"/>
	<outline>
		<contour>
			<point x="416" y="694" type="line"/>
			<point x="338" y="694" type="line"/>
			<point x="205" y="527" type="line"/>
			<point x="266" y="527" type="line"/>
		</contour>
	</outline>
</glyph>
<glyph name="cedilla" format="2">
	<unicode hex="00B8"/>
	<advance width="888"/>
	<outline>
		<contour>
			<point x="560" y="-48" type="line"/>
			<point x="560" y="-48"/>
			<point x="560" y="-48"/>
			<point x="560" y="-48" type="curve"/>
			<point x="560" y="-48"/>
			<point x="560" y="-48"/>
			<point x="560" y="-48" type="curve"/>
			<point x="438" y="-48" type="line"/>
			<point x="438" y="-48"/>
			<point x="438" y="-48"/>
			<point x="438" y="-48" type="curve"/>
			<point x="389" y="-160"/>
			<point x="339" y="-272"/>
			<point x="290" y="-384" type="curve"/>
			<point x="290" y="-384"/>
			<point x="290" y="-384"/>
			<point x="290" y="-384" type="curve"/>
			<point x="290" y="-384"/>
			<point x="290" y="-384"/>
			<point x="290" y="-384" type="curve"/>
			<point x="428" y="-384" type="line"/>
			<point x="428" y="-384"/>
			<point x="428" y="-384"/>
			<point x="428" y="-384" type="curve"/>
		</contour>
	</outline>
</glyph>
<glyph name="questiondown" format="2">
	<unicode hex="00BF"/>
	<advance width="944"/>
	<outline>
		<contour>
			<point x="526" y="834" type="curve"/>
			<point x="526" y="1000" type="line"/>
			<point x="526" y="1000"/>
			<point x="526" y="1000"/>
			<point x="526" y="1000" type="curve"/>
			<point x="360" y="1000" type="line"/>
			<point x="360" y="1000"/>
			<point x="360" y="1000"/>
			<point x="360" y="1000" type="curve"/>
			<point x="360" y="834" type="line"/>
			<point x="360" y="834"/>
			<point x="360" y="834"/>
			<point x="360" y="834" type="curve"/>
			<point x="526" y="834" type="line"/>
			<point x="526" y="834"/>
			<point x="526" y="834"/>
		</contour>
		<contour>
			<point x="112" y="-100" type="curve" smooth="yes"/>
			<point x="112" y="-262"/>
			<point x="198" y="-410"/>
			<point x="446" y="-410" type="curve" smooth="yes"/>
			<point x="564" y="-410"/>
			<point x="700" y="-380"/>
			<point x="830" y="-304" type="curve"/>
			<point x="830" y="-304"/>
			<point x="830" y="-304"/>
			<point x="830" y="-304" type="curve"/>
			<point x="815" y="-262"/>
			<point x="799" y="-220"/>
			<point x="784" y="-178" type="curve"/>
			<point x="784" y="-178"/>
			<point x="784" y="-178"/>
			<point x="784" y="-178" type="curve"/>
			<point x="784" y="-178"/>
			<point x="784" y="-178"/>
			<point x="784" y="-178" type="curve"/>
			<point x="654" y="-272"/>
			<point x="520" y="-288"/>
			<point x="448" y="-288" type="curve" smooth="yes"/>
			<point x="322" y="-288"/>
			<point x="268" y="-236"/>
			<point x="268" y="-104" type="curve" smooth="yes"/>
			<point x="268" y="-10"/>
			<point x="298" y="22"/>
			<point x="328" y="54" type="curve" smooth="yes"/>
			<point x="458" y="198"/>
			<point x="510" y="392"/>
			<point x="510" y="586" type="curve" smooth="yes"/>
			<point x="510" y="650" type="line"/>
			<point x="510" y="650"/>
			<point x="510" y="650"/>
			<point x="510" y="650" type="curve"/>
			<point x="376" y="650" type="line"/>
			<point x="376" y="650"/>
			<point x="376" y="650"/>
			<point x="376" y="650" type="curve"/>
			<point x="376" y="536" type="line" smooth="yes"/>
			<point x="376" y="440"/>
			<point x="346" y="278"/>
			<point x="210" y="140" type="curve" smooth="yes"/>
			<point x="174" y="104"/>
			<point x="112" y="42"/>
		</contour>
	</outline>
</glyph>
<glyph name="AE" format="2">
	<unicode hex="00C6"/>
	<advance width="861"/>
	<outline>
		<contour>
			<point x="419" y="222" type="line"/>
			<point x="419" y="0" type="line"/>
			<point x="419" y="0"/>
			<point x="419" y="0"/>
			<point x="419" y="0" type="curve"/>
			<point x="818" y="0" type="line"/>
			<point x="818" y="0"/>
			<point x="818" y="0"/>
			<point x="818" y="0" type="curve"/>
			<point x="818" y="71" type="line"/>
			<point x="818" y="71"/>
			<point x="818" y="71"/>
			<point x="818" y="71" type="curve"/>
			<point x="714.437" y="70.667"/>
			<point x="610.874" y="70.334"/>
			<point x="507" y="70" type="curve"/>
			<point x="507" y="330" type="line"/>
			<point x="777" y="330" type="line"/>
			<point x="777" y="330"/>
			<point x="777" y="330"/>
			<point x="777" y="330" type="curve"/>
			<point x="777" y="391" type="line"/>
			<point x="777" y="391"/>
			<point x="777" y="391"/>
			<point x="777" y="391" type="curve"/>
			<point x="507" y="391" type="line"/>
			<point x="507" y="630" type="line"/>
			<point x="605.901" y="629.667"/>
			<point x="704.802" y="629.334"/>
			<point x="804" y="629" type="curve"/>
			<point x="804" y="629"/>
			<point x="804" y="629"/>
			<point x="804" y="629" type="curve"/>
			<point x="804" y="694" type="line"/>
			<point x="804" y="694"/>
			<point x="804" y="694"/>
			<point x="804" y="694" type="curve"/>
			<point x="312" y="694" type="line"/>
			<point x="312" y="694"/>
			<point x="312" y="694"/>
			<point x="312" y="694" type="curve"/>
			<point x="28" y="0" type="line"/>
			<point x="28" y="0"/>
			<point x="28" y="0"/>
			<point x="28" y="0" type="curve"/>
			<point x="28" y="0"/>
			<point x="28" y="0"/>
			<point x="28" y="0" type="curve"/>
			<point x="103" y="0" type="line"/>
			<point x="103" y="0"/>
			<point x="103" y="0"/>
			<point x="103" y="0" type="curve"/>
			<point x="194" y="222" type="line"/>
		</contour>
		<contour>
			<point x="217" y="278" type="line"/>
			<point x="361" y="630" type="line"/>
			<point x="419" y="630" type="line"/>
			<point x="419" y="278" type="line"/>
		</contour>
	</outline>
</glyph>
<glyph name="Oslash" format="2">
	<unicode hex="00D8"/>
	<advance width="777"/>
	<outline>
		<contour>
			<point x="235" y="19" type="line"/>
			<point x="292" y="-12"/>
			<point x="345" y="-22"/>
			<point x="388" y="-22" type="curve" smooth="yes"/>
			<point x="568" y="-22"/>
			<point x="721" y="137"/>
			<point x="721" y="345" type="curve" smooth="yes"/>
			<point x="721" y="487"/>
			<point x="650" y="590"/>
			<point x="593" y="637" type="curve"/>
			<point x="610.316" y="666.97"/>
			<point x="627.632" y="696.94"/>
			<point x="645" y="727" type="curve"/>
			<point x="645" y="727"/>
			<point x="645" y="727"/>
			<point x="645" y="727" type="curve"/>
			<point x="626.685" y="737.656"/>
			<point x="608.37" y="748.312"/>
			<point x="590" y="759" type="curve"/>
			<point x="590" y="759"/>
			<point x="590" y="759"/>
			<point x="590" y="759" type="curve"/>
			<point x="542" y="675" type="line"/>
			<point x="471" y="712"/>
			<point x="419" y="716"/>
			<point x="389" y="716" type="curve" smooth="yes"/>
			<point x="206" y="716"/>
			<point x="56" y="550"/>
			<point x="56" y="345" type="curve" smooth="yes"/>
			<point x="56" y="296"/>
			<point x="63" y="163"/>
			<point x="183" y="57" type="curve"/>
			<point x="166.017" y="27.03"/>
			<point x="149.034" y="-2.94"/>
			<point x="132" y="-33" type="curve"/>
			<point x="132" y="-33"/>
			<point x="132" y="-33"/>
			<point x="132" y="-33" type="curve"/>
			<point x="150.315" y="-43.656"/>
			<point x="168.63" y="-54.312"/>
			<point x="187" y="-65" type="curve"/>
			<point x="187" y="-65"/>
			<point x="187" y="-65"/>
			<point x="187" y="-65" type="curve"/>
		</contour>
		<contour>
			<point x="218" y="117" type="line"/>
			<point x="149" y="196"/>
			<point x="141" y="292"/>
			<point x="141" y="345" type="curve" smooth="yes"/>
			<point x="141" y="543"/>
			<point x="262" y="655"/>
			<point x="388" y="655" type="curve" smooth="yes"/>
			<point x="426" y="655"/>
			<point x="466" y="645"/>
			<point x="509" y="619" type="curve"/>
		</contour>
		<contour>
			<point x="558" y="576" type="line"/>
			<point x="617" y="510"/>
			<point x="636" y="420"/>
			<point x="636" y="345" type="curve" smooth="yes"/>
			<point x="636" y="146"/>
			<point x="513" y="39"/>
			<point x="389" y="39" type="curve" smooth="yes"/>
			<point x="359" y="39"/>
			<point x="316" y="45"/>
			<point x="268" y="74" type="curve"/>
		</contour>
	</outline>
</glyph>
<glyph name="germandbls" format="2">
	<unicode hex="00DF"/>
	<advance width="960"/>
	<outline>
		<contour>
			<point x="656" y="822" type="curve"/>
			<point x="788" y="896"/>
			<point x="848" y="1012"/>
			<point x="848" y="1116" type="curve" smooth="yes"/>
			<point x="848" y="1282"/>
			<point x="692" y="1410"/>
			<point x="506" y="1410" type="curve" smooth="yes"/>
			<point x="346" y="1410"/>
			<point x="164" y="1308"/>
			<point x="164" y="1104" type="curve" smooth="yes"/>
			<point x="164" y="0" type="line"/>
			<point x="164" y="0"/>
			<point x="164" y="0"/>
			<point x="164" y="0" type="curve"/>
			<point x="314" y="0" type="line"/>
			<point x="314" y="0"/>
			<point x="314" y="0"/>
			<point x="314" y="0" type="curve"/>
			<point x="314" y="1102" type="line" smooth="yes"/>
			<point x="314" y="1274"/>
			<point x="462" y="1288"/>
			<point x="504" y="1288" type="curve" smooth="yes"/>
			<point x="622" y="1288"/>
			<point x="694" y="1214"/>
			<point x="694" y="1118" type="curve" smooth="yes"/>
			<point x="694" y="1010"/>
			<point x="612" y="890"/>
			<point x="426" y="888" type="curve"/>
			<point x="426" y="888"/>
			<point x="426" y="888"/>
			<point x="426" y="888" type="curve"/>
			<point x="426" y="766" type="line"/>
			<point x="426" y="766"/>
			<point x="426" y="766"/>
			<point x="426" y="766" type="curve"/>
			<point x="632" y="760"/>
			<point x="750" y="568"/>
			<point x="750" y="358" type="curve" smooth="yes"/>
			<point x="750" y="194"/>
			<point x="660" y="100"/>
			<point x="550" y="100" type="curve" smooth="yes"/>
			<point x="530" y="100"/>
			<point x="474" y="104"/>
			<point x="416" y="130" type="curve"/>
			<point x="416" y="130"/>
			<point x="416" y="130"/>
			<point x="416" y="130" type="curve"/>
			<point x="374" y="18" type="line"/>
			<point x="374" y="18"/>
			<point x="374" y="18"/>
			<point x="374" y="18" type="curve"/>
			<point x="374" y="8"/>
			<point x="466" y="-22"/>
			<point x="552" y="-22" type="curve" smooth="yes"/>
			<point x="742" y="-22"/>
			<point x="904" y="140"/>
			<point x="904" y="358" type="curve" smooth="yes"/>
			<point x="904" y="516"/>
			<point x="834" y="712"/>
		</contour>
	</outline>
</glyph>
<glyph name="oslash" format="2">
	<unicode hex="00F8"/>
	<advance width="1000"/>
	<outline>
		<contour>
			<point x="64" y="440" type="curve" smooth="yes"/>
			<point x="64" y="236"/>
			<point x="174" y="130"/>
			<point x="224" y="82" type="curve"/>
			<point x="86" y="-164" type="line"/>
			<point x="86" y="-164"/>
			<point x="86" y="-164"/>
			<point x="86" y="-164" type="curve"/>
			<point x="121" y="-184"/>
			<point x="157" y="-204"/>
			<point x="192" y="-224" type="curve"/>
			<point x="192" y="-224"/>
			<point x="192" y="-224"/>
			<point x="192" y="-224" type="curve"/>
			<point x="237" y="-144"/>
			<point x="281" y="-64"/>
			<point x="326" y="16" type="curve"/>
			<point x="388" y="-12"/>
			<point x="448" y="-22"/>
			<point x="498" y="-22" type="curve" smooth="yes"/>
			<point x="734" y="-22"/>
			<point x="934" y="178"/>
			<point x="934" y="440" type="curve" smooth="yes"/>
			<point x="934" y="592"/>
			<point x="870" y="726"/>
			<point x="776" y="812" type="curve"/>
			<point x="912" y="1054" type="line"/>
			<point x="912" y="1054"/>
			<point x="912" y="1054"/>
			<point x="912" y="1054" type="curve"/>
			<point x="877" y="1074"/>
			<point x="841" y="1094"/>
			<point x="806" y="1114" type="curve"/>
			<point x="806" y="1114"/>
			<point x="806" y="1114"/>
			<point x="806" y="1114" type="curve"/>
			<point x="676" y="882" type="line"/>
			<point x="628" y="904"/>
			<point x="560" y="922"/>
			<point x="500" y="922" type="curve" smooth="yes"/>
			<point x="258" y="922"/>
			<point x="64" y="704"/>
		</contour>
		<contour>
			<point x="288" y="198" type="line"/>
			<point x="216" y="290"/>
			<point x="214" y="398"/>
			<point x="214" y="440" type="curve" smooth="yes"/>
			<point x="214" y="676"/>
			<point x="350" y="800"/>
			<point x="500" y="800" type="curve" smooth="yes"/>
			<point x="540" y="800"/>
			<point x="578" y="792"/>
			<point x="614" y="774" type="curve"/>
		</contour>
		<contour>
			<point x="710" y="694" type="line"/>
			<point x="742" y="652"/>
			<point x="784" y="568"/>
			<point x="784" y="440" type="curve" smooth="yes"/>
			<point x="784" y="210"/>
			<point x="644" y="100"/>
			<point x="498" y="100" type="curve" smooth="yes"/>
			<point x="460" y="100"/>
			<point x="422" y="106"/>
			<point x="388" y="122" type="curve"/>
		</contour>
	</outline>
</glyph>
<glyph name="dotlessi" format="2">
	<unicode hex="0131"/>
	<advance width="476"/>
	<outline>
		<contour>
			<point x="162" y="888" type="curve"/>
			<point x="162" y="0" type="line"/>
			<point x="162" y="0"/>
			<point x="162" y="0"/>
			<point x="162" y="0" type="curve"/>
			<point x="312" y="0" type="line"/>
			<point x="312" y="0"/>
			<point x="312" y="0"/>
			<point x="312" y="0" type="curve"/>
			<point x="312" y="888" type="line"/>
			<point x="312" y="888"/>
			<point x="312" y="888"/>
			<point x="312" y="888" type="curve"/>
			<point x="162" y="888" type="line"/>
			<point x="162" y="888"/>
			<point x="162" y="888"/>
		</contour>
	</outline>
</glyph>
<glyph name="OE" format="2">
	<unicode hex="0152"/>
	<advance width="1944"/>
	<outline>
		<contour>
			<point x="716" y="-44" type="curve" smooth="yes"/>
			<point x="772" y="-44"/>
			<point x="810" y="-36"/>
			<point x="876" y="-22" type="curve" smooth="yes"/>
			<point x="952" y="-6"/>
			<point x="984" y="0"/>
			<point x="1038" y="0" type="curve" smooth="yes"/>
			<point x="1858" y="0" type="line"/>
			<point x="1858" y="0"/>
			<point x="1858" y="0"/>
			<point x="1858" y="0" type="curve"/>
			<point x="1858" y="142" type="line"/>
			<point x="1858" y="142"/>
			<point x="1858" y="142"/>
			<point x="1858" y="142" type="curve"/>
			<point x="1612" y="142"/>
			<point x="1365" y="142"/>
			<point x="1118" y="142" type="curve"/>
			<point x="1118" y="660" type="line"/>
			<point x="1776" y="660" type="line"/>
			<point x="1776" y="660"/>
			<point x="1776" y="660"/>
			<point x="1776" y="660" type="curve"/>
			<point x="1776" y="782" type="line"/>
			<point x="1776" y="782"/>
			<point x="1776" y="782"/>
			<point x="1776" y="782" type="curve"/>
			<point x="1118" y="782" type="line"/>
			<point x="1118" y="1258" type="line"/>
			<point x="1355" y="1258"/>
			<point x="1592" y="1258"/>
			<point x="1830" y="1258" type="curve"/>
			<point x="1830" y="1258"/>
			<point x="1830" y="1258"/>
			<point x="1830" y="1258" type="curve"/>
			<point x="1830" y="1388" type="line"/>
			<point x="1830" y="1388"/>
			<point x="1830" y="1388"/>
			<point x="1830" y="1388" type="curve"/>
			<point x="1038" y="1388" type="line" smooth="yes"/>
			<point x="996" y="1388"/>
			<point x="968" y="1390"/>
			<point x="878" y="1410" type="curve" smooth="yes"/>
			<point x="812" y="1424"/>
			<point x="772" y="1432"/>
			<point x="716" y="1432" type="curve" smooth="yes"/>
			<point x="370" y="1432"/>
			<point x="56" y="1114"/>
			<point x="56" y="690" type="curve" smooth="yes"/>
			<point x="56" y="262"/>
			<point x="376" y="-44"/>
		</contour>
		<contour>
			<point x="726" y="78" type="curve" smooth="yes"/>
			<point x="444" y="78"/>
			<point x="228" y="368"/>
			<point x="228" y="720" type="curve" smooth="yes"/>
			<point x="228" y="1046"/>
			<point x="446" y="1310"/>
			<point x="726" y="1310" type="curve" smooth="yes"/>
			<point x="892" y="1310"/>
			<point x="920" y="1242"/>
			<point x="936" y="1120" type="curve" smooth="yes"/>
			<point x="944" y="1054"/>
			<point x="944" y="872"/>
			<point x="944" y="694" type="curve" smooth="yes"/>
			<point x="944" y="462"/>
			<point x="944" y="328"/>
			<point x="936" y="262" type="curve" smooth="yes"/>
			<point x="920" y="148"/>
			<point x="894" y="78"/>
		</contour>
	</outline>
</glyph>
<glyph name="oe" format="2">
	<unicode hex="0153"/>
	<advance width="1554"/>
	<outline>
		<contour>
			<point x="482" y="-22" type="curve" smooth="yes"/>
			<point x="560" y="-22"/>
			<point x="710" y="0"/>
			<point x="834" y="180" type="curve"/>
			<point x="908" y="64"/>
			<point x="1042" y="-22"/>
			<point x="1196" y="-22" type="curve" smooth="yes"/>
			<point x="1330" y="-22"/>
			<point x="1432" y="36"/>
			<point x="1488" y="82" type="curve"/>
			<point x="1488" y="82"/>
			<point x="1488" y="82"/>
			<point x="1488" y="82" type="curve"/>
			<point x="1484" y="125"/>
			<point x="1480" y="169"/>
			<point x="1476" y="212" type="curve"/>
			<point x="1476" y="212"/>
			<point x="1476" y="212"/>
			<point x="1476" y="212" type="curve"/>
			<point x="1476" y="212"/>
			<point x="1476" y="212"/>
			<point x="1476" y="212" type="curve"/>
			<point x="1384" y="126"/>
			<point x="1276" y="100"/>
			<point x="1200" y="100" type="curve" smooth="yes"/>
			<point x="1050" y="100"/>
			<point x="920" y="230"/>
			<point x="910" y="438" type="curve"/>
			<point x="1498" y="438" type="line"/>
			<point x="1498" y="438"/>
			<point x="1498" y="438"/>
			<point x="1498" y="438" type="curve"/>
			<point x="1498" y="612"/>
			<point x="1454" y="922"/>
			<point x="1166" y="922" type="curve" smooth="yes"/>
			<point x="1012" y="922"/>
			<point x="890" y="820"/>
			<point x="830" y="724" type="curve"/>
			<point x="702" y="914"/>
			<point x="534" y="922"/>
			<point x="482" y="922" type="curve" smooth="yes"/>
			<point x="254" y="922"/>
			<point x="60" y="714"/>
			<point x="60" y="450" type="curve" smooth="yes"/>
			<point x="60" y="184"/>
			<point x="254" y="-22"/>
		</contour>
		<contour>
			<point x="482" y="100" type="curve" smooth="yes"/>
			<point x="340" y="100"/>
			<point x="204" y="220"/>
			<point x="204" y="460" type="curve" smooth="yes"/>
			<point x="204" y="690"/>
			<point x="342" y="800"/>
			<point x="482" y="800" type="curve" smooth="yes"/>
			<point x="612" y="800"/>
			<point x="754" y="702"/>
			<point x="754" y="460" type="curve" smooth="yes"/>
			<point x="754" y="214"/>
			<point x="618" y="100"/>
		</contour>
		<contour>
			<point x="920" y="548" type="line"/>
			<point x="950" y="692"/>
			<point x="1052" y="800"/>
			<point x="1166" y="800" type="curve" smooth="yes"/>
			<point x="1270" y="800"/>
			<point x="1356" y="722"/>
			<point x="1380" y="548" type="curve"/>
		</contour>
	</outline>
</glyph>
<glyph name="dotlessj" format="2">
	<unicode hex="0237"/>
	<advance width="266"/>
	<outline>
		<contour>
			<point x="109" y="-68" type="line" smooth="yes"/>
			<point x="109" y="-132"/>
			<point x="59" y="-141"/>
			<point x="31" y="-141" type="curve" smooth="yes"/>
			<point x="2" y="-141"/>
			<point x="-24" y="-130"/>
			<point x="-46" y="-110" type="curve"/>
			<point x="-46" y="-110"/>
			<point x="-46" y="-110"/>
			<point x="-46" y="-110" type="curve"/>
			<point x="-46" y="-110"/>
			<point x="-46" y="-110"/>
			<point x="-46" y="-110" type="curve"/>
			<point x="-61" y="-171" type="line"/>
			<point x="-61" y="-171"/>
			<point x="-61" y="-171"/>
			<point x="-61" y="-171" type="curve"/>
			<point x="-13" y="-199"/>
			<point x="33" y="-205"/>
			<point x="59" y="-205" type="curve" smooth="yes"/>
			<point x="122" y="-205"/>
			<point x="184" y="-153"/>
			<point x="184" y="-59" type="curve" smooth="yes"/>
			<point x="184" y="444" type="line"/>
			<point x="184" y="444"/>
			<point x="184" y="444"/>
			<point x="184" y="444" type="curve"/>
			<point x="109" y="444" type="line"/>
			<point x="109" y="444"/>
			<point x="109" y="444"/>
			<point x="109" y="444" type="curve"/>
		</contour>
	</outline>
</glyph>
<glyph name="circumflex" format="2">
	<unicode hex="02C6"/>
	<advance width="1000"/>
	<outline>
		<contour>
			<point x="562" y="1388" type="line"/>
			<point x="562" y="1388"/>
			<point x="562" y="1388"/>
			<point x="562" y="1388" type="curve"/>
			<point x="436" y="1388" type="line"/>
			<point x="436" y="1388"/>
			<point x="436" y="1388"/>
			<point x="436" y="1388" type="curve"/>
			<point x="154" y="1054" type="line"/>
			<point x="154" y="1054"/>
			<point x="154" y="1054"/>
			<point x="154" y="1054" type="curve"/>
			<point x="195" y="1054"/>
			<point x="235" y="1054"/>
			<point x="276" y="1054" type="curve"/>
			<point x="276" y="1054" type="line"/>
			<point x="276" y="1054"/>
			<point x="276" y="1054"/>
			<point x="276" y="1054" type="curve"/>
			<point x="498" y="1300" type="line"/>
			<point x="722" y="1054" type="line"/>
			<point x="722" y="1054"/>
			<point x="722" y="1054"/>
			<point x="722" y="1054" type="curve"/>
			<point x="844" y="1054" type="line"/>
			<point x="844" y="1054"/>
			<point x="844" y="1054"/>
			<point x="844" y="1054" type="curve"/>
			<point x="844" y="1054"/>
			<point x="844" y="1054"/>
			<point x="844" y="1054" type="curve"/>
		</contour>
	</outline>
</glyph>
<glyph name="caron" format="2">
	<unicode hex="02C7"/>
	<advance width="500"/>
	<outline>
		<contour>
			<point x="422" y="654" type="line"/>
			<point x="422" y="654"/>
			<point x="422" y="654"/>
			<point x="422" y="654" type="curve"/>
			<point x="422" y="654"/>
			<point x="422" y="654"/>
			<point x="422" y="654" type="curve"/>
			<point x="361" y="654" type="line"/>
			<point x="361" y="654"/>
			<point x="361" y="654"/>
			<point x="361" y="654" type="curve"/>
			<point x="250" y="531" type="line"/>
			<point x="138" y="654" type="line"/>
			<point x="138" y="654"/>
			<point x="138" y="654"/>
			<point x="138" y="654" type="curve"/>
			<point x="77" y="654" type="line"/>
			<point x="77" y="654"/>
			<point x="77" y="654"/>
			<point x="77" y="654" type="curve"/>
			<point x="77" y="654"/>
			<point x="77" y="654"/>
			<point x="77" y="654" type="curve"/>
			<point x="218" y="487" type="line"/>
			<point x="218" y="487"/>
			<point x="218" y="487"/>
			<point x="218" y="487" type="curve"/>
			<point x="281" y="487" type="line"/>
			<point x="281" y="487"/>
			<point x="281" y="487"/>
			<point x="281" y="487" type="curve"/>
		</contour>
	</outline>
</glyph>
<glyph name="breve" format="2">
	<unicode hex="02D8"/>
	<advance width="500"/>
	<outline>
		<contour>
			<point x="249" y="516" type="curve" smooth="yes"/>
			<point x="338" y="516"/>
			<point x="416" y="589"/>
			<point x="418" y="694" type="curve"/>
			<point x="418" y="694"/>
			<point x="418" y="694"/>
			<point x="418" y="694" type="curve"/>
			<point x="357" y="694" type="line"/>
			<point x="357" y="694"/>
			<point x="357" y="694"/>
			<point x="357" y="694" type="curve"/>
			<point x="355" y="620"/>
			<point x="298" y="583"/>
			<point x="250" y="583" type="curve" smooth="yes"/>
			<point x="199" y="583"/>
			<point x="144" y="622"/>
			<point x="142" y="694" type="curve"/>
			<point x="142" y="694"/>
			<point x="142" y="694"/>
			<point x="142" y="694" type="curve"/>
			<point x="81" y="694" type="line"/>
			<point x="81" y="694"/>
			<point x="81" y="694"/>
			<point x="81" y="694" type="curve"/>
			<point x="83" y="587"/>
			<point x="163" y="516"/>
		</contour>
	</outline>
</glyph>
<glyph name="dotaccent" format="2">
	<unicode hex="02D9"/>
	<advance width="554"/>
	<outline>
		<contour>
			<point x="366" y="1360" type="curve"/>
			<point x="188" y="1360" type="line"/>
			<point x="188" y="1360"/>
			<point x="188" y="1360"/>
			<point x="188" y="1360" type="curve"/>
			<point x="188" y="1182" type="line"/>
			<point x="188" y="1182"/>
			<point x="188" y="1182"/>
			<point x="188" y="1182" type="curve"/>
			<point x="366" y="1182" type="line"/>
			<point x="366" y="1182"/>
			<point x="366" y="1182"/>
			<point x="366" y="1182" type="curve"/>
			<point x="366" y="1360" type="line"/>
			<point x="366" y="1360"/>
			<point x="366" y="1360"/>
		</contour>
	</outline>
</glyph>
<glyph name="ring" format="2">
	<unicode hex="02DA"/>
	<advance width="1332"/>
	<outline>
		<contour>
			<point x="888" y="1220" type="curve" smooth="yes"/>
			<point x="888" y="1314"/>
			<point x="790" y="1388"/>
			<point x="666" y="1388" type="curve" smooth="yes"/>
			<point x="536" y="1388"/>
			<point x="444" y="1308"/>
			<point x="444" y="1222" type="curve" smooth="yes"/>
			<point x="444" y="1128"/>
			<point x="542" y="1054"/>
			<point x="666" y="1054" type="curve" smooth="yes"/>
			<point x="796" y="1054"/>
			<point x="888" y="1134"/>
		</contour>
		<contour>
			<point x="666" y="1138" type="curve" smooth="yes"/>
			<point x="648" y="1138"/>
			<point x="556" y="1138"/>
			<point x="556" y="1220" type="curve" smooth="yes"/>
			<point x="556" y="1304"/>
			<point x="646" y="1304"/>
			<point x="666" y="1304" type="curve" smooth="yes"/>
			<point x="684" y="1304"/>
			<point x="776" y="1304"/>
			<point x="776" y="1222" type="curve" smooth="yes"/>
			<point x="776" y="1138"/>
			<point x="686" y="1138"/>
		</contour>
	</outline>
</glyph>
<glyph name="tilde" format="2">
	<unicode hex="02DC"/>
	<advance width="1000"/>
	<outline>
		<contour>
			<point x="632" y="1238" type="curve" smooth="yes"/>
			<point x="586" y="1238"/>
			<point x="544" y="1266"/>
			<point x="490" y="1304" type="curve" smooth="yes"/>
			<point x="452" y="1330"/>
			<point x="412" y="1354"/>
			<point x="362" y="1354" type="curve" smooth="yes"/>
			<point x="268" y="1354"/>
			<point x="170" y="1272"/>
			<point x="166" y="1116" type="curve"/>
			<point x="166" y="1116"/>
			<point x="166" y="1116"/>
			<point x="166" y="1116" type="curve"/>
			<point x="288" y="1116" type="line"/>
			<point x="288" y="1116"/>
			<point x="288" y="1116"/>
			<point x="288" y="1116" type="curve"/>
			<point x="290" y="1184"/>
			<point x="314" y="1232"/>
			<point x="366" y="1232" type="curve" smooth="yes"/>
			<point x="412" y="1232"/>
			<point x="454" y="1204"/>
			<point x="508" y="1166" type="curve" smooth="yes"/>
			<point x="546" y="1140"/>
			<point x="586" y="1116"/>
			<point x="636" y="1116" type="curve" smooth="yes"/>
			<point x="730" y="1116"/>
			<point x="828" y="1198"/>
			<point x="832" y="1354" type="curve"/>
			<point x="832" y="1354"/>
			<point x="832" y="1354"/>
			<point x="832" y="1354" type="curve"/>
			<point x="710" y="1354" type="line"/>
			<point x="710" y="1354"/>
			<point x="710" y="1354"/>
			<point x="710" y="1354" type="curve"/>
			<point x="708" y="1286"/>
			<point x="684" y="1238"/>
		</contour>
	</outline>
</glyph>
<glyph name="hungarumlaut" format="2">
	<unicode hex="02DD"/>
	<advance width="500"/>
	<outline>
		<contour>
			<point x="249" y="694" type="line"/>
			<point x="249" y="694"/>
			<point x="249" y="694"/>
			<point x="249" y="694" type="curve"/>
			<point x="249" y="694"/>
			<point x="249" y="694"/>
			<point x="249" y="694" type="curve"/>
			<point x="171" y="694" type="line"/>
			<point x="171" y="694"/>
			<point x="171" y="694"/>
			<point x="171" y="694" type="curve"/>
			<point x="108" y="527" type="line"/>
			<point x="108" y="527"/>
			<point x="108" y="527"/>
			<point x="108" y="527" type="curve"/>
			<point x="169" y="527" type="line"/>
			<point x="169" y="527"/>
			<point x="169" y="527"/>
			<point x="169" y="527" type="curve"/>
		</contour>
		<contour>
			<point x="416" y="694" type="line"/>
			<point x="416" y="694"/>
			<point x="416" y="694"/>
			<point x="416" y="694" type="curve"/>
			<point x="416" y="694"/>
			<point x="416" y="694"/>
			<point x="416" y="694" type="curve"/>
			<point x="338" y="694" type="line"/>
			<point x="338" y="694"/>
			<point x="338" y="694"/>
			<point x="338" y="694" type="curve"/>
			<point x="275" y="527" type="line"/>
			<point x="275" y="527"/>
			<point x="275" y="527"/>
			<point x="275" y="527" type="curve"/>
			<point x="336" y="527" type="line"/>
			<point x="336" y="527"/>
			<point x="336" y="527"/>
			<point x="336" y="527" type="curve"/>
		</contour>
	</outline>
</glyph>
<glyph name="endash" format="2">
	<unicode hex="2013"/>
	<advance width="1000"/>
	<outline>
		<contour>
			<point x="998" y="488" type="curve"/>
			<point x="998" y="610" type="line"/>
			<point x="998" y="610"/>
			<point x="998" y="610"/>
			<point x="998" y="610" type="curve"/>
			<point x="0" y="610" type="line"/>
			<point x="0" y="610"/>
			<point x="0" y="610"/>
			<point x="0" y="610" type="curve"/>
			<point x="0" y="488" type="line"/>
			<point x="0" y="488"/>
			<point x="0" y="488"/>
			<point x="0" y="488" type="curve"/>
			<point x="998" y="488" type="line"/>
			<point x="998" y="488"/>
			<point x="998" y="488"/>
		</contour>
	</outline>
</glyph>
<glyph name="emdash" format="2">
	<unicode hex="2014"/>
	<advance width="2000"/>
	<outline>
		<contour>
			<point x="1998" y="488" type="curve"/>
			<point x="1998" y="610" type="line"/>
			<point x="1998" y="610"/>
			<point x="1998" y="610"/>
			<point x="1998" y="610" type="curve"/>
			<point x="0" y="610" type="line"/>
			<point x="0" y="610"/>
			<point x="0" y="610"/>
			<point x="0" y="610" type="curve"/>
			<point x="0" y="488" type="line"/>
			<point x="0" y="488"/>
			<point x="0" y="488"/>
			<point x="0" y="488" type="curve"/>
			<point x="1998" y="488" type="line"/>
			<point x="1998" y="488"/>
			<point x="1998" y="488"/>
		</contour>
	</outline>
</glyph>
<glyph name="quoteleft" format="2">
	<unicode hex="2018"/>
	<advance width="554"/>
	<outline>
		<contour>
			<point x="360" y="1388" type="line"/>
			<point x="360" y="1388"/>
			<point x="360" y="1388"/>
			<point x="360" y="1388" type="curve"/>
			<point x="360" y="1388"/>
			<point x="360" y="1388"/>
			<point x="360" y="1388" type="curve"/>
			<point x="278" y="1388" type="line"/>
			<point x="278" y="1388"/>
			<point x="278" y="1388"/>
			<point x="278" y="1388" type="curve"/>
			<point x="194" y="1136" type="line"/>
			<point x="194" y="972" type="line"/>
			<point x="194" y="972"/>
			<point x="194" y="972"/>
			<point x="194" y="972" type="curve"/>
			<point x="360" y="972" type="line"/>
			<point x="360" y="972"/>
			<point x="360" y="972"/>
			<point x="360" y="972" type="curve"/>
			<point x="360" y="1138" type="line"/>
			<point x="360" y="1138"/>
			<point x="360" y="1138"/>
			<point x="360" y="1138" type="curve"/>
			<point x="310" y="1138" type="line"/>
		</contour>
	</outline>
</glyph>
<glyph name="quoteright" format="2">
	<unicode hex="2019"/>
	<advance width="277"/>
	<outline>
		<contour>
			<point x="122" y="611" type="line"/>
			<point x="97" y="486" type="line"/>
			<point x="97" y="486"/>
			<point x="97" y="486"/>
			<point x="97" y="486" type="curve"/>
			<point x="97" y="486"/>
			<point x="97" y="486"/>
			<point x="97" y="486" type="curve"/>
			<point x="138" y="486" type="line"/>
			<point x="138" y="486"/>
			<point x="138" y="486"/>
			<point x="138" y="486" type="curve"/>
			<point x="180" y="612" type="line"/>
			<point x="180" y="694" type="line"/>
			<point x="180" y="694"/>
			<point x="180" y="694"/>
			<point x="180" y="694" type="curve"/>
			<point x="97" y="694" type="line"/>
			<point x="97" y="694"/>
			<point x="97" y="694"/>
			<point x="97" y="694" type="curve"/>
			<point x="97" y="611" type="line"/>
			<point x="97" y="611"/>
			<point x="97" y="611"/>
			<point x="97" y="611" type="curve"/>
		</contour>
	</outline>
</glyph>
<glyph name="quotedblleft" format="2">
	<unicode hex="201C"/>
	<advance width="1000"/>
	<outline>
		<contour>
			<point x="544" y="1388" type="line"/>
			<point x="544" y="1388"/>
			<point x="544" y="1388"/>
			<point x="544" y="1388" type="curve"/>
			<point x="544" y="1388"/>
			<point x="544" y="1388"/>
			<point x="544" y="1388" type="curve"/>
			<point x="462" y="1388" type="line"/>
			<point x="462" y="1388"/>
			<point x="462" y="1388"/>
			<point x="462" y="1388" type="curve"/>
			<point x="378" y="1136" type="line"/>
			<point x="378" y="972" type="line"/>
			<point x="378" y="972"/>
			<point x="378" y="972"/>
			<point x="378" y="972" type="curve"/>
			<point x="544" y="972" type="line"/>
			<point x="544" y="972"/>
			<point x="544" y="972"/>
			<point x="544" y="972" type="curve"/>
			<point x="544" y="1138" type="line"/>
			<point x="544" y="1138"/>
			<point x="544" y="1138"/>
			<point x="544" y="1138" type="curve"/>
			<point x="494" y="1138" type="line"/>
		</contour>
		<contour>
			<point x="932" y="1388" type="line"/>
			<point x="932" y="1388"/>
			<point x="932" y="1388"/>
			<point x="932" y="1388" type="curve"/>
			<point x="932" y="1388"/>
			<point x="932" y="1388"/>
			<point x="932" y="1388" type="curve"/>
			<point x="850" y="1388" type="line"/>
			<point x="850" y="1388"/>
			<point x="850" y="1388"/>
			<point x="850" y="1388" type="curve"/>
			<point x="766" y="1136" type="line"/>
			<point x="766" y="972" type="line"/>
			<point x="766" y="972"/>
			<point x="766" y="972"/>
			<point x="766" y="972" type="curve"/>
			<point x="932" y="972" type="line"/>
			<point x="932" y="972"/>
			<point x="932" y="972"/>
			<point x="932" y="972" type="curve"/>
			<point x="932" y="1138" type="line"/>
			<point x="932" y="1138"/>
			<point x="932" y="1138"/>
			<point x="932" y="1138" type="curve"/>
			<point x="882" y="1138" type="line"/>
		</contour>
	</outline>
</glyph>
<glyph name="quotedblright" format="2">
	<unicode hex="201D"/>
	<advance width="500"/>
	<outline>
		<contour>
			<point x="116" y="612" type="line"/>
			<point x="116" y="694" type="line"/>
			<point x="33" y="694" type="line"/>
			<point x="33" y="611" type="line"/>
			<point x="58" y="611" type="line"/>
			<point x="33" y="486" type="line"/>
			<point x="74" y="486" type="line"/>
		</contour>
		<contour>
			<point x="310" y="612" type="line"/>
			<point x="310" y="694" type="line"/>
			<point x="227" y="694" type="line"/>
			<point x="227" y="611" type="line"/>
			<point x="252" y="611" type="line"/>
			<point x="227" y="486" type="line"/>
			<point x="268" y="486" type="line"/>
		</contour>
	</outline>
</glyph>
<glyph name="fi" format="2">
	<unicode hex="FB01"/>
	<advance width="1072"/>
	<outline>
		<contour>
			<point x="914" y="1390" type="curve"/>
			<point x="748" y="1390" type="line"/>
			<point x="748" y="1390"/>
			<point x="748" y="1390"/>
			<point x="748" y="1390" type="curve"/>
			<point x="748" y="1224" type="line"/>
			<point x="748" y="1224"/>
			<point x="748" y="1224"/>
			<point x="748" y="1224" type="curve"/>
			<point x="914" y="1224" type="line"/>
			<point x="914" y="1224"/>
			<point x="914" y="1224"/>
			<point x="914" y="1224" type="curve"/>
			<point x="914" y="1390" type="line"/>
			<point x="914" y="1390"/>
			<point x="914" y="1390"/>
		</contour>
		<contour>
			<point x="906" y="888" type="curve"/>
			<point x="756" y="888" type="line"/>
			<point x="756" y="888"/>
			<point x="756" y="888"/>
			<point x="756" y="888" type="curve"/>
			<point x="756" y="0" type="line"/>
			<point x="756" y="0"/>
			<point x="756" y="0"/>
			<point x="756" y="0" type="curve"/>
			<point x="906" y="0" type="line"/>
			<point x="906" y="0"/>
			<point x="906" y="0"/>
			<point x="906" y="0" type="curve"/>
			<point x="906" y="888" type="line"/>
			<point x="906" y="888"/>
			<point x="906" y="888"/>
		</contour>
		<contour>
			<point x="202" y="772" type="line"/>
			<point x="202" y="0" type="line"/>
			<point x="202" y="0"/>
			<point x="202" y="0"/>
			<point x="202" y="0" type="curve"/>
			<point x="352" y="0" type="line"/>
			<point x="352" y="0"/>
			<point x="352" y="0"/>
			<point x="352" y="0" type="curve"/>
			<point x="352" y="772" type="line"/>
			<point x="588" y="772" type="line"/>
			<point x="588" y="772"/>
			<point x="588" y="772"/>
			<point x="588" y="772" type="curve"/>
			<point x="588" y="888" type="line"/>
			<point x="588" y="888"/>
			<point x="588" y="888"/>
			<point x="588" y="888" type="curve"/>
			<point x="346" y="888" type="line"/>
			<point x="346" y="1130" type="line" smooth="yes"/>
			<point x="346" y="1258"/>
			<point x="418" y="1288"/>
			<point x="468" y="1288" type="curve" smooth="yes"/>
			<point x="510" y="1288"/>
			<point x="554" y="1274"/>
			<point x="588" y="1252" type="curve"/>
			<point x="588" y="1252"/>
			<point x="588" y="1252"/>
			<point x="588" y="1252" type="curve"/>
			<point x="588" y="1252"/>
			<point x="588" y="1252"/>
			<point x="588" y="1252" type="curve"/>
			<point x="588" y="1388" type="line"/>
			<point x="588" y="1388"/>
			<point x="588" y="1388"/>
			<point x="588" y="1388" type="curve"/>
			<point x="576" y="1392"/>
			<point x="526" y="1410"/>
			<point x="468" y="1410" type="curve" smooth="yes"/>
			<point x="320" y="1410"/>
			<point x="202" y="1270"/>
			<point x="202" y="1070" type="curve" smooth="yes"/>
			<point x="202" y="888" type="line"/>
			<point x="54" y="888" type="line"/>
			<point x="54" y="888"/>
			<point x="54" y="888"/>
			<point x="54" y="888" type="curve"/>
			<point x="54" y="772" type="line"/>
			<point x="54" y="772"/>
			<point x="54" y="772"/>
			<point x="54" y="772" type="curve"/>
		</contour>
	</outline>
</glyph>
<glyph name="fl" format="2">
	<unicode hex="FB02"/>
	<advance width="1072"/>
	<outline>
		<contour>
			<point x="202" y="772" type="line"/>
			<point x="202" y="0" type="line"/>
			<point x="202" y="0"/>
			<point x="202" y="0"/>
			<point x="202" y="0" type="curve"/>
			<point x="352" y="0" type="line"/>
			<point x="352" y="0"/>
			<point x="352" y="0"/>
			<point x="352" y="0" type="curve"/>
			<point x="352" y="772" type="line"/>
			<point x="588" y="772" type="line"/>
			<point x="588" y="772"/>
			<point x="588" y="772"/>
			<point x="588" y="772" type="curve"/>
			<point x="588" y="888" type="line"/>
			<point x="588" y="888"/>
			<point x="588" y="888"/>
			<point x="588" y="888" type="curve"/>
			<point x="346" y="888" type="line"/>
			<point x="346" y="1130" type="line" smooth="yes"/>
			<point x="346" y="1258"/>
			<point x="418" y="1288"/>
			<point x="468" y="1288" type="curve" smooth="yes"/>
			<point x="508" y="1288"/>
			<point x="552" y="1276"/>
			<point x="588" y="1254" type="curve"/>
			<point x="588" y="1254"/>
			<point x="588" y="1254"/>
			<point x="588" y="1254" type="curve"/>
			<point x="588" y="1254"/>
			<point x="588" y="1254"/>
			<point x="588" y="1254" type="curve"/>
			<point x="588" y="1388" type="line"/>
			<point x="588" y="1388"/>
			<point x="588" y="1388"/>
			<point x="588" y="1388" type="curve"/>
			<point x="576" y="1392"/>
			<point x="526" y="1410"/>
			<point x="468" y="1410" type="curve" smooth="yes"/>
			<point x="320" y="1410"/>
			<point x="202" y="1270"/>
			<point x="202" y="1070" type="curve" smooth="yes"/>
			<point x="202" y="888" type="line"/>
			<point x="54" y="888" type="line"/>
			<point x="54" y="888"/>
			<point x="54" y="888"/>
			<point x="54" y="888" type="curve"/>
			<point x="54" y="772" type="line"/>
			<point x="54" y="772"/>
			<point x="54" y="772"/>
			<point x="54" y="772" type="curve"/>
		</contour>
		<contour>
			<point x="906" y="1388" type="curve"/>
			<point x="756" y="1388" type="line"/>
			<point x="756" y="1388"/>
			<point x="756" y="1388"/>
			<point x="756" y="1388" type="curve"/>
			<point x="756" y="0" type="line"/>
			<point x="756" y="0"/>
			<point x="756" y="0"/>
			<point x="756" y="0" type="curve"/>
			<point x="906" y="0" type="line"/>
			<point x="906" y="0"/>
			<point x="906" y="0"/>
			<point x="906" y="0" type="curve"/>
			<point x="906" y="1388" type="line"/>
			<point x="906" y="1388"/>
			<point x="906" y="1388"/>
		</contour>
	</outline>
</glyph>
<glyph name="ff" format="2">
	<advance width="1166"/>
	<outline>
		<contour>
			<point x="352" y="772" type="line"/>
			<point x="572" y="772" type="line"/>
			<point x="572" y="772"/>
			<point x="572" y="772"/>
			<point x="572" y="772" type="curve"/>
			<point x="572" y="888" type="line"/>
			<point x="572" y="888"/>
			<point x="572" y="888"/>
			<point x="572" y="888" type="curve"/>
			<point x="346" y="888" type="line"/>
			<point x="346" y="1126" type="line" smooth="yes"/>
			<point x="346" y="1274"/>
			<point x="480" y="1288"/>
			<point x="532" y="1288" type="curve" smooth="yes"/>
			<point x="572" y="1288"/>
			<point x="626" y="1284"/>
			<point x="694" y="1254" type="curve"/>
			<point x="694" y="1254"/>
			<point x="694" y="1254"/>
			<point x="694" y="1254" type="curve"/>
			<point x="694" y="1254"/>
			<point x="694" y="1254"/>
			<point x="694" y="1254" type="curve"/>
			<point x="694" y="1388" type="line"/>
			<point x="694" y="1388"/>
			<point x="694" y="1388"/>
			<point x="694" y="1388" type="curve"/>
			<point x="670" y="1394"/>
			<point x="608" y="1410"/>
			<point x="534" y="1410" type="curve" smooth="yes"/>
			<point x="346" y="1410"/>
			<point x="202" y="1268"/>
			<point x="202" y="1068" type="curve" smooth="yes"/>
			<point x="202" y="888" type="line"/>
			<point x="54" y="888" type="line"/>
			<point x="54" y="888"/>
			<point x="54" y="888"/>
			<point x="54" y="888" type="curve"/>
			<point x="54" y="772" type="line"/>
			<point x="54" y="772"/>
			<point x="54" y="772"/>
			<point x="54" y="772" type="curve"/>
			<point x="202" y="772" type="line"/>
			<point x="202" y="0" type="line"/>
			<point x="202" y="0"/>
			<point x="202" y="0"/>
			<point x="202" y="0" type="curve"/>
			<point x="352" y="0" type="line"/>
			<point x="352" y="0"/>
			<point x="352" y="0"/>
			<point x="352" y="0" type="curve"/>
		</contour>
		<contour>
			<point x="906" y="772" type="line"/>
			<point x="1126" y="772" type="line"/>
			<point x="1126" y="772"/>
			<point x="1126" y="772"/>
			<point x="1126" y="772" type="curve"/>
			<point x="1126" y="888" type="line"/>
			<point x="1126" y="888"/>
			<point x="1126" y="888"/>
			<point x="1126" y="888" type="curve"/>
			<point x="900" y="888" type="line"/>
			<point x="900" y="1126" type="line" smooth="yes"/>
			<point x="900" y="1274"/>
			<point x="1034" y="1288"/>
			<point x="1086" y="1288" type="curve" smooth="yes"/>
			<point x="1126" y="1288"/>
			<point x="1180" y="1284"/>
			<point x="1248" y="1254" type="curve"/>
			<point x="1248" y="1254"/>
			<point x="1248" y="1254"/>
			<point x="1248" y="1254" type="curve"/>
			<point x="1248" y="1254"/>
			<point x="1248" y="1254"/>
			<point x="1248" y="1254" type="curve"/>
			<point x="1248" y="1388" type="line"/>
			<point x="1248" y="1388"/>
			<point x="1248" y="1388"/>
			<point x="1248" y="1388" type="curve"/>
			<point x="1224" y="1394"/>
			<point x="1162" y="1410"/>
			<point x="1088" y="1410" type="curve" smooth="yes"/>
			<point x="900" y="1410"/>
			<point x="756" y="1268"/>
			<point x="756" y="1068" type="curve" smooth="yes"/>
			<point x="756" y="0" type="line"/>
			<point x="756" y="0"/>
			<point x="756" y="0"/>
			<point x="756" y="0" type="curve"/>
			<point x="906" y="0" type="line"/>
			<point x="906" y="0"/>
			<point x="906" y="0"/>
			<point x="906" y="0" type="curve"/>
		</contour>
	</outline>
</glyph>
<glyph name="ffi" format="2">
	<advance width="1626"/>
	<outline>
		<contour>
			<point x="202" y="1068" type="curve" smooth="yes"/>
			<point x="202" y="888" type="line"/>
			<point x="54" y="888" type="line"/>
			<point x="54" y="888"/>
			<point x="54" y="888"/>
			<point x="54" y="888" type="curve"/>
			<point x="54" y="772" type="line"/>
			<point x="54" y="772"/>
			<point x="54" y="772"/>
			<point x="54" y="772" type="curve"/>
			<point x="202" y="772" type="line"/>
			<point x="202" y="0" type="line"/>
			<point x="202" y="0"/>
			<point x="202" y="0"/>
			<point x="202" y="0" type="curve"/>
			<point x="352" y="0" type="line"/>
			<point x="352" y="0"/>
			<point x="352" y="0"/>
			<point x="352" y="0" type="curve"/>
			<point x="352" y="772" type="line"/>
			<point x="588" y="772" type="line"/>
			<point x="588" y="772"/>
			<point x="588" y="772"/>
			<point x="588" y="772" type="curve"/>
			<point x="588" y="888" type="line"/>
			<point x="588" y="888"/>
			<point x="588" y="888"/>
			<point x="588" y="888" type="curve"/>
			<point x="346" y="888" type="line"/>
			<point x="346" y="1128" type="line" smooth="yes"/>
			<point x="346" y="1268"/>
			<point x="448" y="1288"/>
			<point x="498" y="1288" type="curve" smooth="yes"/>
			<point x="530" y="1288"/>
			<point x="580" y="1284"/>
			<point x="638" y="1254" type="curve"/>
			<point x="638" y="1254"/>
			<point x="638" y="1254"/>
			<point x="638" y="1254" type="curve"/>
			<point x="638" y="1254"/>
			<point x="638" y="1254"/>
			<point x="638" y="1254" type="curve"/>
			<point x="638" y="1388" type="line"/>
			<point x="638" y="1388"/>
			<point x="638" y="1388"/>
			<point x="638" y="1388" type="curve"/>
			<point x="596" y="1402"/>
			<point x="546" y="1410"/>
			<point x="500" y="1410" type="curve" smooth="yes"/>
			<point x="332" y="1410"/>
			<point x="202" y="1270"/>
		</contour>
		<contour>
			<point x="908" y="772" type="line"/>
			<point x="1144" y="772" type="line"/>
			<point x="1144" y="772"/>
			<point x="1144" y="772"/>
			<point x="1144" y="772" type="curve"/>
			<point x="1144" y="888" type="line"/>
			<point x="1144" y="888"/>
			<point x="1144" y="888"/>
			<point x="1144" y="888" type="curve"/>
			<point x="902" y="888" type="line"/>
			<point x="902" y="1130" type="line" smooth="yes"/>
			<point x="902" y="1258"/>
			<point x="974" y="1288"/>
			<point x="1024" y="1288" type="curve" smooth="yes"/>
			<point x="1066" y="1288"/>
			<point x="1108" y="1276"/>
			<point x="1144" y="1254" type="curve"/>
			<point x="1144" y="1254"/>
			<point x="1144" y="1254"/>
			<point x="1144" y="1254" type="curve"/>
			<point x="1144" y="1254"/>
			<point x="1144" y="1254"/>
			<point x="1144" y="1254" type="curve"/>
			<point x="1144" y="1390" type="line"/>
			<point x="1144" y="1390"/>
			<point x="1144" y="1390"/>
			<point x="1144" y="1390" type="curve"/>
			<point x="1100" y="1406"/>
			<point x="1086" y="1410"/>
			<point x="1024" y="1410" type="curve" smooth="yes"/>
			<point x="876" y="1410"/>
			<point x="758" y="1270"/>
			<point x="758" y="1070" type="curve" smooth="yes"/>
			<point x="758" y="0" type="line"/>
			<point x="758" y="0"/>
			<point x="758" y="0"/>
			<point x="758" y="0" type="curve"/>
			<point x="908" y="0" type="line"/>
			<point x="908" y="0"/>
			<point x="908" y="0"/>
			<point x="908" y="0" type="curve"/>
		</contour>
		<contour>
			<point x="1462" y="888" type="curve"/>
			<point x="1312" y="888" type="line"/>
			<point x="1312" y="888"/>
			<point x="1312" y="888"/>
			<point x="1312" y="888" type="curve"/>
			<point x="1312" y="0" type="line"/>
			<point x="1312" y="0"/>
			<point x="1312" y="0"/>
			<point x="1312" y="0" type="curve"/>
			<point x="1462" y="0" type="line"/>
			<point x="1462" y="0"/>
			<point x="1462" y="0"/>
			<point x="1462" y="0" type="curve"/>
			<point x="1462" y="888" type="line"/>
			<point x="1462" y="888"/>
			<point x="1462" y="888"/>
		</contour>
		<contour>
			<point x="1470" y="1390" type="curve"/>
			<point x="1304" y="1390" type="line"/>
			<point x="1304" y="1390"/>
			<point x="1304" y="1390"/>
			<point x="1304" y="1390" type="curve"/>
			<point x="1304" y="1224" type="line"/>
			<point x="1304" y="1224"/>
			<point x="1304" y="1224"/>
			<point x="1304" y="1224" type="curve"/>
			<point x="1470" y="1224" type="line"/>
			<point x="1470" y="1224"/>
			<point x="1470" y="1224"/>
			<point x="1470" y="1224" type="curve"/>
			<point x="1470" y="1390" type="line"/>
			<point x="1470" y="1390"/>
			<point x="1470" y="1390"/>
		</contour>
	</outline>
</glyph>
<glyph name="ffl" format="2">
	<advance width="1626"/>
	<outline>
		<contour>
			<point x="352" y="772" type="line"/>
			<point x="588" y="772" type="line"/>
			<point x="588" y="772"/>
			<point x="588" y="772"/>
			<point x="588" y="772" type="curve"/>
			<point x="588" y="888" type="line"/>
			<point x="588" y="888"/>
			<point x="588" y="888"/>
			<point x="588" y="888" type="curve"/>
			<point x="346" y="888" type="line"/>
			<point x="346" y="1128" type="line" smooth="yes"/>
			<point x="346" y="1268"/>
			<point x="448" y="1288"/>
			<point x="498" y="1288" type="curve" smooth="yes"/>
			<point x="530" y="1288"/>
			<point x="580" y="1284"/>
			<point x="638" y="1254" type="curve"/>
			<point x="638" y="1254"/>
			<point x="638" y="1254"/>
			<point x="638" y="1254" type="curve"/>
			<point x="638" y="1254"/>
			<point x="638" y="1254"/>
			<point x="638" y="1254" type="curve"/>
			<point x="638" y="1388" type="line"/>
			<point x="638" y="1388"/>
			<point x="638" y="1388"/>
			<point x="638" y="1388" type="curve"/>
			<point x="596" y="1402"/>
			<point x="546" y="1410"/>
			<point x="500" y="1410" type="curve" smooth="yes"/>
			<point x="332" y="1410"/>
			<point x="202" y="1270"/>
			<point x="202" y="1068" type="curve" smooth="yes"/>
			<point x="202" y="888" type="line"/>
			<point x="54" y="888" type="line"/>
			<point x="54" y="888"/>
			<point x="54" y="888"/>
			<point x="54" y="888" type="curve"/>
			<point x="54" y="772" type="line"/>
			<point x="54" y="772"/>
			<point x="54" y="772"/>
			<point x="54" y="772" type="curve"/>
			<point x="202" y="772" type="line"/>
			<point x="202" y="0" type="line"/>
			<point x="202" y="0"/>
			<point x="202" y="0"/>
			<point x="202" y="0" type="curve"/>
			<point x="352" y="0" type="line"/>
			<point x="352" y="0"/>
			<point x="352" y="0"/>
			<point x="352" y="0" type="curve"/>
		</contour>
		<contour>
			<point x="1462" y="1388" type="curve"/>
			<point x="1312" y="1388" type="line"/>
			<point x="1312" y="1388"/>
			<point x="1312" y="1388"/>
			<point x="1312" y="1388" type="curve"/>
			<point x="1312" y="0" type="line"/>
			<point x="1312" y="0"/>
			<point x="1312" y="0"/>
			<point x="1312" y="0" type="curve"/>
			<point x="1462" y="0" type="line"/>
			<point x="1462" y="0"/>
			<point x="1462" y="0"/>
			<point x="1462" y="0" type="curve"/>
			<point x="1462" y="1388" type="line"/>
			<point x="1462" y="1388"/>
			<point x="1462" y="1388"/>
		</contour>
		<contour>
			<point x="908" y="772" type="line"/>
			<point x="1144" y="772" type="line"/>
			<point x="1144" y="772"/>
			<point x="1144" y="772"/>
			<point x="1144" y="772" type="curve"/>
			<point x="1144" y="888" type="line"/>
			<point x="1144" y="888"/>
			<point x="1144" y="888"/>
			<point x="1144" y="888" type="curve"/>
			<point x="902" y="888" type="line"/>
			<point x="902" y="1130" type="line" smooth="yes"/>
			<point x="902" y="1258"/>
			<point x="974" y="1288"/>
			<point x="1024" y="1288" type="curve" smooth="yes"/>
			<point x="1064" y="1288"/>
			<point x="1108" y="1276"/>
			<point x="1144" y="1254" type="curve"/>
			<point x="1144" y="1254"/>
			<point x="1144" y="1254"/>
			<point x="1144" y="1254" type="curve"/>
			<point x="1144" y="1254"/>
			<point x="1144" y="1254"/>
			<point x="1144" y="1254" type="curve"/>
			<point x="1144" y="1388" type="line"/>
			<point x="1144" y="1388"/>
			<point x="1144" y="1388"/>
			<point x="1144" y="1388" type="curve"/>
			<point x="1132" y="1392"/>
			<point x="1082" y="1410"/>
			<point x="1024" y="1410" type="curve" smooth="yes"/>
			<point x="876" y="1410"/>
			<point x="758" y="1270"/>
			<point x="758" y="1070" type="curve" smooth="yes"/>
			<point x="758" y="0" type="line"/>
			<point x="758" y="0"/>
			<point x="758" y="0"/>
			<point x="758" y="0" type="curve"/>
			<point x="908" y="0" type="line"/>
			<point x="908" y="0"/>
			<point x="908" y="0"/>
			<point x="908" y="0" type="curve"/>
		</contour>
	</outline>
</glyph>
<glyph name="sfthyphen" format="2">
	<advance width="333"/>
	<outline>
		<contour>
			<point x="276" y="193" type="curve"/>
			<point x="276" y="212.314"/>
			<point x="276" y="231.628"/>
			<point x="276" y="251" type="curve"/>
			<point x="276" y="251"/>
			<point x="276" y="251"/>
			<point x="276" y="251" type="curve"/>
			<point x="187.755" y="251"/>
			<point x="99.51" y="251"/>
			<point x="11" y="251" type="curve"/>
			<point x="11" y="251"/>
			<point x="11" y="251"/>
			<point x="11" y="251" type="curve"/>
			<point x="11" y="231.686"/>
			<point x="11" y="212.372"/>
			<point x="11" y="193" type="curve"/>
			<point x="11" y="193"/>
			<point x="11" y="193"/>
			<point x="11" y="193" type="curve"/>
			<point x="99.245" y="193"/>
			<point x="187.49" y="193"/>
			<point x="276" y="193" type="curve"/>
			<point x="276" y="193"/>
			<point x="276" y="193"/>
		</contour>
	</outline>
</glyph>
